<?xml version="1.0" encoding="UTF-8"?>
<svg version="1.1" xmlns="http://www.w3.org/2000/svg" width="1040" height="809">
<path d="M0 0 C29.7 0 59.4 0 90 0 C90 47.85 90 95.7 90 145 C115.74 145 141.48 145 168 145 C168 97.15 168 49.3 168 0 C197.7 0 227.4 0 258 0 C258 129.03 258 258.06 258 391 C228.3 391 198.6 391 168 391 C168 337.87 168 284.74 168 230 C142.26 230 116.52 230 90 230 C90 283.13 90 336.26 90 391 C60.3 391 30.6 391 0 391 C0 261.97 0 132.94 0 0 Z " fill="#000000" transform="translate(747,215)"/>
<path d="M0 0 C59.73 0 119.46 0 181 0 C181 28.05 181 56.1 181 85 C150.97 85 120.94 85 90 85 C90 108.1 90 131.2 90 155 C116.07 155 142.14 155 169 155 C169 182.06 169 209.12 169 237 C142.93 237 116.86 237 90 237 C90 260.1 90 283.2 90 307 C120.36 307 150.72 307 182 307 C182 334.72 182 362.44 182 391 C121.94 391 61.88 391 0 391 C0 261.97 0 132.94 0 0 Z " fill="#000000" transform="translate(456,215)"/>
<path d="M0 0 C0.83146042 -0.00570007 1.66292084 -0.01140015 2.51957703 -0.01727295 C4.27516431 -0.02666984 6.0307688 -0.03323564 7.78637695 -0.03710938 C10.40414522 -0.0467097 13.02109073 -0.07773961 15.63867188 -0.109375 C24.21056373 -0.16479039 32.57407115 0.15857567 41.0546875 1.46875 C41.76361649 1.57709167 42.47254547 1.68543335 43.20295715 1.79705811 C50.40894042 3.03753389 57.00054 5.16421679 64.13671875 7.203125 C64.13671875 38.553125 64.13671875 69.903125 64.13671875 102.203125 C56.87671875 100.223125 49.61671875 98.243125 42.13671875 96.203125 C21.81840823 92.02349632 0.08552043 91.69684644 -18.21484375 102.45703125 C-43.72995282 119.27893944 -55.53936746 146.41242884 -61.515625 175.36328125 C-67.84403208 211.16266435 -63.95789401 254.28530303 -43.14135742 284.96166992 C-31.85416234 300.89310917 -16.37953309 312.82095033 3.125 316.7265625 C21.56039812 319.27505643 39.96902838 317.10669263 57.5 311.0390625 C60.13671875 310.203125 60.13671875 310.203125 64.13671875 310.203125 C64.13671875 341.223125 64.13671875 372.243125 64.13671875 404.203125 C45.2051495 409.14179524 30.46831609 412.60709105 11.57421875 412.515625 C10.77547333 412.51346985 9.97672791 412.5113147 9.15377808 412.50909424 C-2.74390807 412.45754847 -14.26338961 412.0800212 -25.86328125 409.203125 C-27.12301758 408.89713379 -27.12301758 408.89713379 -28.40820312 408.58496094 C-71.3641811 397.86936295 -105.70954358 370.54247485 -128.55078125 332.765625 C-149.17017343 297.76949234 -159.89081258 257.45198448 -160.06640625 216.81640625 C-160.07210632 215.75689255 -160.0778064 214.69737885 -160.0836792 213.60575867 C-160.09306825 211.37121559 -160.09963871 209.13665905 -160.10351562 206.90209961 C-160.11312665 203.56923541 -160.14417044 200.23701448 -160.17578125 196.90429688 C-160.27059807 177.86990822 -158.85696421 158.95153102 -154.11328125 140.453125 C-153.85579102 139.42348633 -153.59830078 138.39384766 -153.33300781 137.33300781 C-145.50617385 106.91828809 -131.9857021 78.61268696 -110.86328125 55.203125 C-109.67467591 53.80823278 -108.48703287 52.41251943 -107.30078125 51.015625 C-106.16347529 49.7371546 -105.01722212 48.4666011 -103.86328125 47.203125 C-102.84814453 46.089375 -102.84814453 46.089375 -101.8125 44.953125 C-75.85963939 17.73533505 -37.75288043 0.20727823 0 0 Z " fill="#000000" transform="translate(189.86328125,203.796875)"/>
<path d="M0 0 C11.88 0 23.76 0 36 0 C36 266.97 36 533.94 36 809 C24.12 809 12.24 809 0 809 C0 542.03 0 275.06 0 0 Z " fill="#FF0000" transform="translate(342,0)"/>
<path d="M0 0 C4.95 0 9.9 0 15 0 C15 7.59 15 15.18 15 23 C18.96 23 22.92 23 27 23 C27 15.41 27 7.82 27 0 C31.95 0 36.9 0 42 0 C42 20.79 42 41.58 42 63 C37.05 63 32.1 63 27 63 C27 54.42 27 45.84 27 37 C23.04 37 19.08 37 15 37 C15 45.58 15 54.16 15 63 C10.05 63 5.1 63 0 63 C0 42.21 0 21.42 0 0 Z " fill="#000000" transform="translate(761,687)"/>
<path d="M0 0 C4.62 0 9.24 0 14 0 C14 21.78 14 43.56 14 66 C9.38 66 4.76 66 0 66 C-0.33 65.01 -0.66 64.02 -1 63 C-1.515625 63.639375 -2.03125 64.27875 -2.5625 64.9375 C-5.77282886 67.65393211 -7.8221972 67.92796892 -12 68 C-15.62678659 67.05703549 -17.37064998 65.94826593 -19.44921875 62.81640625 C-24.46638673 53.3714797 -25.25398137 43.4951751 -22.6875 33.17578125 C-21.18250199 28.41280458 -19.3669882 24.9720805 -15.1875 22 C-11.29421065 20.77857589 -8.93468072 20.97989759 -5 22 C-3.68 22.99 -2.36 23.98 -1 25 C-0.67 16.75 -0.34 8.5 0 0 Z M-5 34 C-7.82309273 36.28536078 -8.90642573 37.45506749 -9.53125 41.09375 C-9.5209375 42.2178125 -9.510625 43.341875 -9.5 44.5 C-9.5103125 45.6240625 -9.520625 46.748125 -9.53125 47.90625 C-8.90642573 51.54493251 -7.82309273 52.71463922 -5 55 C-1.96798998 54.32582184 -1.96798998 54.32582184 -0.828125 52.28125 C0.15742314 49.56634379 0.26585168 47.38500666 0.25 44.5 C0.25515625 43.5615625 0.2603125 42.623125 0.265625 41.65625 C-0.00937642 38.90623578 -0.44754637 37.276932 -2 35 C-2.99 34.67 -3.98 34.34 -5 34 Z " fill="#000000" transform="translate(286,684)"/>
<path d="M0 0 C4.62 0 9.24 0 14 0 C14.33 8.58 14.66 17.16 15 26 C16.65 24.68 18.3 23.36 20 22 C23.85596249 20.66355846 27.02746058 20.61098423 30.8125 22.125 C34.62069308 25.3891655 35.90667234 27.91371953 36.34057617 32.96411133 C36.34010505 34.50349969 36.32338394 36.04294331 36.29296875 37.58203125 C36.28872391 38.39621017 36.28447906 39.2103891 36.28010559 40.04924011 C36.26337753 42.63733668 36.22573712 45.22464071 36.1875 47.8125 C36.17244553 49.57225434 36.15875846 51.33202095 36.14648438 53.09179688 C36.11349336 57.39483437 36.0617524 61.69728303 36 66 C31.38 66 26.76 66 22 66 C21.67 56.1 21.34 46.2 21 36 C19.02 36 17.04 36 15 36 C14.67 45.9 14.34 55.8 14 66 C9.38 66 4.76 66 0 66 C0 44.22 0 22.44 0 0 Z " fill="#000000" transform="translate(519,684)"/>
<path d="M0 0 C4.62 0 9.24 0 14 0 C14.33 11.55 14.66 23.1 15 35 C17.31 31.04 19.62 27.08 22 23 C25.9784165 21.99110317 27.61072339 21.76895475 31.4375 22.25 C32.26443359 22.30414062 33.09136719 22.35828125 33.94335938 22.4140625 C35.96680319 22.55441698 37.98481195 22.76969279 40 23 C37.36940553 27.78454454 34.56448754 32.09942072 31.25 36.4375 C30.83878906 36.97826172 30.42757812 37.51902344 30.00390625 38.07617188 C29.0063214 39.38695197 28.00370323 40.693899 27 42 C27.77923828 43.34191406 27.77923828 43.34191406 28.57421875 44.7109375 C32.61639804 51.70716624 36.4726934 58.72493015 40 66 C34.39 66 28.78 66 23 66 C20.36 60.72 17.72 55.44 15 50 C14.67 55.28 14.34 60.56 14 66 C9.38 66 4.76 66 0 66 C0 44.22 0 22.44 0 0 Z " fill="#000000" transform="translate(891,684)"/>
<path d="M0 0 C9.9 0 19.8 0 30 0 C30 4.62 30 9.24 30 14 C25.05 14 20.1 14 15 14 C15 17.63 15 21.26 15 25 C19.29 25 23.58 25 28 25 C28 29.62 28 34.24 28 39 C23.71 39 19.42 39 15 39 C15 42.3 15 45.6 15 49 C19.95 49 24.9 49 30 49 C30 53.62 30 58.24 30 63 C20.1 63 10.2 63 0 63 C0 42.21 0 21.42 0 0 Z " fill="#000000" transform="translate(452,687)"/>
<path d="M0 0 C0 5.28 0 10.56 0 16 C-1.711875 15.938125 -3.42375 15.87625 -5.1875 15.8125 C-11.12837839 15.83040463 -11.12837839 15.83040463 -16 19 C-19.34480255 23.8977466 -20.14920162 29.16358383 -20 35 C-18.99268289 40.33628321 -17.40561603 44.58920049 -13 48 C-9.14854957 49.92572521 -4.19956748 49.04883218 0 49 C0 53.95 0 58.9 0 64 C-7.44436617 66.48145539 -13.94986217 66.63308563 -21.25 63.4375 C-29.2169061 58.88264999 -33.43319772 51.58891532 -36 43 C-38.26046837 32.07440288 -37.2764215 20.76152711 -31.3125 11.125 C-26.99522337 5.25137179 -21.57438461 0.63802569 -14.296875 -0.83203125 C-9.48834824 -1.18367521 -4.77803372 -0.54295838 0 0 Z " fill="#000000" transform="translate(37,686)"/>
<path d="M0 0 C2.4375 1.5625 2.4375 1.5625 4 3 C4.33 2.34 4.66 1.68 5 1 C9.62 1 14.24 1 19 1 C19 15.19 19 29.38 19 44 C14.38 44 9.76 44 5 44 C4.67 43.34 4.34 42.68 4 42 C3.484375 42.474375 2.96875 42.94875 2.4375 43.4375 C-0.79998727 45.51281235 -3.16554644 45.86777746 -7 46 C-10.62678659 45.05703549 -12.37064998 43.94826593 -14.44921875 40.81640625 C-17.0402491 35.93873594 -18.69060787 31.56905837 -19 26 C-19.0825 24.783125 -19.165 23.56625 -19.25 22.3125 C-19.14475957 15.57711271 -17.59189722 8.65316203 -14.125 2.875 C-9.48968858 -1.21498067 -5.96878817 -1.41080448 0 0 Z M0 12 C-2.82309273 14.28536078 -3.90642573 15.45506749 -4.53125 19.09375 C-4.5209375 20.2178125 -4.510625 21.341875 -4.5 22.5 C-4.5103125 23.6240625 -4.520625 24.748125 -4.53125 25.90625 C-3.90642573 29.54493251 -2.82309273 30.71463922 0 33 C1.99983534 32.20882096 1.99983534 32.20882096 4 31 C5.01702117 27.9489365 5.16582083 25.75800939 5.1875 22.5625 C5.20876953 21.14130859 5.20876953 21.14130859 5.23046875 19.69140625 C4.9917319 16.90344541 4.57694455 15.29992909 3 13 C2.01 12.67 1.02 12.34 0 12 Z " fill="#000000" transform="translate(831,706)"/>
<path d="M0 0 C2.4375 1.5625 2.4375 1.5625 4 3 C4.33 2.34 4.66 1.68 5 1 C9.62 1 14.24 1 19 1 C19 15.19 19 29.38 19 44 C14.38 44 9.76 44 5 44 C4.67 43.34 4.34 42.68 4 42 C3.484375 42.474375 2.96875 42.94875 2.4375 43.4375 C-0.79998727 45.51281235 -3.16554644 45.86777746 -7 46 C-10.62678659 45.05703549 -12.37064998 43.94826593 -14.44921875 40.81640625 C-17.0402491 35.93873594 -18.69060787 31.56905837 -19 26 C-19.0825 24.783125 -19.165 23.56625 -19.25 22.3125 C-19.14475957 15.57711271 -17.59189722 8.65316203 -14.125 2.875 C-9.48968858 -1.21498067 -5.96878817 -1.41080448 0 0 Z M0 12 C-2.82309273 14.28536078 -3.90642573 15.45506749 -4.53125 19.09375 C-4.5209375 20.2178125 -4.510625 21.341875 -4.5 22.5 C-4.5103125 23.6240625 -4.520625 24.748125 -4.53125 25.90625 C-3.90642573 29.54493251 -2.82309273 30.71463922 0 33 C1.99983534 32.20882096 1.99983534 32.20882096 4 31 C5.01702117 27.9489365 5.16582083 25.75800939 5.1875 22.5625 C5.20876953 21.14130859 5.20876953 21.14130859 5.23046875 19.69140625 C4.9917319 16.90344541 4.57694455 15.29992909 3 13 C2.01 12.67 1.02 12.34 0 12 Z " fill="#000000" transform="translate(636,706)"/>
<path d="M0 0 C4.65692605 3.81021222 7.43325407 7.3246433 8.75 13.25 C8.75 16.88 8.75 20.51 8.75 24.25 C1.49 24.25 -5.77 24.25 -13.25 24.25 C-12.59 26.56 -11.93 28.87 -11.25 31.25 C-9.17446352 31.8034764 -7.40634036 32.25 -5.25 32.25 C-4.92 30.93 -4.59 29.61 -4.25 28.25 C-0.29 28.25 3.67 28.25 7.75 28.25 C7.52606995 33.73628628 6.27497798 36.78995796 2.48046875 40.80078125 C-1.52344249 44.15394393 -5.80543651 44.4442423 -10.8125 44.125 C-16.45437457 43.29023284 -19.84643549 40.92647983 -23.5 36.5625 C-27.8134761 28.39770596 -27.82028498 20.26207033 -26.25 11.25 C-24.54530046 5.91648461 -22.08393571 2.24243639 -17.25 -0.75 C-11.09657203 -3.62159972 -5.87815078 -3.16515811 0 0 Z M-11.9375 9.4375 C-13.65364695 11.80741722 -13.48187108 13.39025666 -13.25 16.25 C-10.28 16.25 -7.31 16.25 -4.25 16.25 C-4.69703986 11.77116304 -4.69703986 11.77116304 -7.25 8.25 C-10.18500458 7.9622533 -10.18500458 7.9622533 -11.9375 9.4375 Z " fill="#000000" transform="translate(959.25,707.75)"/>
<path d="M0 0 C4.65692605 3.81021222 7.43325407 7.3246433 8.75 13.25 C8.75 16.88 8.75 20.51 8.75 24.25 C1.49 24.25 -5.77 24.25 -13.25 24.25 C-12.59 26.56 -11.93 28.87 -11.25 31.25 C-9.17446352 31.8034764 -7.40634036 32.25 -5.25 32.25 C-4.92 30.93 -4.59 29.61 -4.25 28.25 C-0.29 28.25 3.67 28.25 7.75 28.25 C7.52606995 33.73628628 6.27497798 36.78995796 2.48046875 40.80078125 C-1.52344249 44.15394393 -5.80543651 44.4442423 -10.8125 44.125 C-16.45437457 43.29023284 -19.84643549 40.92647983 -23.5 36.5625 C-27.8134761 28.39770596 -27.82028498 20.26207033 -26.25 11.25 C-24.54530046 5.91648461 -22.08393571 2.24243639 -17.25 -0.75 C-11.09657203 -3.62159972 -5.87815078 -3.16515811 0 0 Z M-11.9375 9.4375 C-13.65364695 11.80741722 -13.48187108 13.39025666 -13.25 16.25 C-10.28 16.25 -7.31 16.25 -4.25 16.25 C-4.69703986 11.77116304 -4.69703986 11.77116304 -7.25 8.25 C-10.18500458 7.9622533 -10.18500458 7.9622533 -11.9375 9.4375 Z " fill="#000000" transform="translate(248.25,707.75)"/>
<path d="M0 0 C4.65692605 3.81021222 7.43325407 7.3246433 8.75 13.25 C8.75 16.88 8.75 20.51 8.75 24.25 C1.49 24.25 -5.77 24.25 -13.25 24.25 C-12.59 26.56 -11.93 28.87 -11.25 31.25 C-9.17446352 31.8034764 -7.40634036 32.25 -5.25 32.25 C-4.92 30.93 -4.59 29.61 -4.25 28.25 C-0.29 28.25 3.67 28.25 7.75 28.25 C7.52606995 33.73628628 6.27497798 36.78995796 2.48046875 40.80078125 C-1.52344249 44.15394393 -5.80543651 44.4442423 -10.8125 44.125 C-16.45437457 43.29023284 -19.84643549 40.92647983 -23.5 36.5625 C-27.8134761 28.39770596 -27.82028498 20.26207033 -26.25 11.25 C-24.54530046 5.91648461 -22.08393571 2.24243639 -17.25 -0.75 C-11.09657203 -3.62159972 -5.87815078 -3.16515811 0 0 Z M-11.9375 9.4375 C-13.65364695 11.80741722 -13.48187108 13.39025666 -13.25 16.25 C-10.28 16.25 -7.31 16.25 -4.25 16.25 C-4.69703986 11.77116304 -4.69703986 11.77116304 -7.25 8.25 C-10.18500458 7.9622533 -10.18500458 7.9622533 -11.9375 9.4375 Z " fill="#000000" transform="translate(68.25,707.75)"/>
<path d="M0 0 C3.09375 0.061875 3.09375 0.061875 6.25 0.125 C6.25 4.745 6.25 9.365 6.25 14.125 C4.27 14.785 2.29 15.445 0.25 16.125 C-0.08 18.435 -0.41 20.745 -0.75 23.125 C1.56 23.125 3.87 23.125 6.25 23.125 C6.25 27.085 6.25 31.045 6.25 35.125 C3.94 35.125 1.63 35.125 -0.75 35.125 C-0.75 45.355 -0.75 55.585 -0.75 66.125 C-5.37 66.125 -9.99 66.125 -14.75 66.125 C-14.75 55.895 -14.75 45.665 -14.75 35.125 C-16.4 35.125 -18.05 35.125 -19.75 35.125 C-19.75 31.165 -19.75 27.205 -19.75 23.125 C-18.1 23.125 -16.45 23.125 -14.75 23.125 C-14.79640625 22.11179687 -14.8428125 21.09859375 -14.890625 20.0546875 C-14.92816758 18.70315468 -14.96456506 17.35158972 -15 16 C-15.03351563 15.33484375 -15.06703125 14.6696875 -15.1015625 13.984375 C-15.20227668 8.84795168 -14.05371983 6.0178447 -10.75 2.125 C-7.38672266 -0.39027151 -4.09718296 -0.08194366 0 0 Z " fill="#000000" transform="translate(188.75,683.875)"/>
<path d="M0 0 C4.95 0 9.9 0 15 0 C15 3.96 15 7.92 15 12 C16.65 12 18.3 12 20 12 C20 15.96 20 19.92 20 24 C18.35 24 16.7 24 15 24 C15 34.23 15 44.46 15 55 C10.05 55 5.1 55 0 55 C0 44.77 0 34.54 0 24 C-1.65 24 -3.3 24 -5 24 C-5 20.04 -5 16.08 -5 12 C-3.35 12 -1.7 12 0 12 C0 8.04 0 4.08 0 0 Z " fill="#000000" transform="translate(492,695)"/>
<path d="M0 0 C4.95 0 9.9 0 15 0 C15 3.96 15 7.92 15 12 C16.65 12 18.3 12 20 12 C20 15.96 20 19.92 20 24 C18.35 24 16.7 24 15 24 C15 34.23 15 44.46 15 55 C10.05 55 5.1 55 0 55 C0 44.77 0 34.54 0 24 C-1.65 24 -3.3 24 -5 24 C-5 20.04 -5 16.08 -5 12 C-3.35 12 -1.7 12 0 12 C0 8.04 0 4.08 0 0 Z " fill="#000000" transform="translate(122,695)"/>
<path d="M0 0 C4.62 0 9.24 0 14 0 C14 21.78 14 43.56 14 66 C9.38 66 4.76 66 0 66 C0 44.22 0 22.44 0 0 Z " fill="#000000" transform="translate(665,684)"/>
<path d="M0 0 C1.14275391 0.10054687 1.14275391 0.10054687 2.30859375 0.203125 C5.13688178 0.88936473 6.55952416 1.62042524 8.5625 3.75 C8.953125 6.66796875 8.953125 6.66796875 8.8125 9.9375 C8.77640625 11.02417969 8.7403125 12.11085938 8.703125 13.23046875 C8.63351562 14.47763672 8.63351562 14.47763672 8.5625 15.75 C7.49 15.5025 6.4175 15.255 5.3125 15 C1.64267352 14.4112162 1.64267352 14.4112162 -0.875 16.125 C-3.16571848 19.97340705 -3.21343406 23.38237116 -2.4375 27.75 C-1.07987846 30.52564845 -1.07987846 30.52564845 1.5625 31.75 C5.25682511 31.60387105 5.25682511 31.60387105 8.5625 30.75 C8.5625 35.04 8.5625 39.33 8.5625 43.75 C1.55817756 46.87692966 -2.72605092 47.39352875 -10.125 44.8125 C-15.65321271 39.8819319 -17.65607811 33.40209264 -18.375 26.1875 C-18.70655495 17.89862627 -17.79757758 11.33523817 -12.4375 4.75 C-8.35356276 1.06449566 -5.51694799 -0.55820722 0 0 Z " fill="#000000" transform="translate(875.4375,705.25)"/>
<path d="M0 0 C1.14275391 0.10054687 1.14275391 0.10054687 2.30859375 0.203125 C5.13688178 0.88936473 6.55952416 1.62042524 8.5625 3.75 C8.953125 6.66796875 8.953125 6.66796875 8.8125 9.9375 C8.77640625 11.02417969 8.7403125 12.11085938 8.703125 13.23046875 C8.63351562 14.47763672 8.63351562 14.47763672 8.5625 15.75 C7.49 15.5025 6.4175 15.255 5.3125 15 C1.64267352 14.4112162 1.64267352 14.4112162 -0.875 16.125 C-3.16571848 19.97340705 -3.21343406 23.38237116 -2.4375 27.75 C-1.07987846 30.52564845 -1.07987846 30.52564845 1.5625 31.75 C5.25682511 31.60387105 5.25682511 31.60387105 8.5625 30.75 C8.5625 35.04 8.5625 39.33 8.5625 43.75 C1.55817756 46.87692966 -2.72605092 47.39352875 -10.125 44.8125 C-15.65321271 39.8819319 -17.65607811 33.40209264 -18.375 26.1875 C-18.70655495 17.89862627 -17.79757758 11.33523817 -12.4375 4.75 C-8.35356276 1.06449566 -5.51694799 -0.55820722 0 0 Z " fill="#000000" transform="translate(604.4375,705.25)"/>
<path d="M0 0 C0 4.62 0 9.24 0 14 C-2.31 14 -4.62 14 -7 14 C-10.24849977 15.72226496 -10.24849977 15.72226496 -11 19 C-11.14939774 20.91765594 -11.24810283 22.83946522 -11.31640625 24.76171875 C-11.35830078 25.87998047 -11.40019531 26.99824219 -11.44335938 28.15039062 C-11.48267578 29.31763672 -11.52199219 30.48488281 -11.5625 31.6875 C-11.60568359 32.86634766 -11.64886719 34.04519531 -11.69335938 35.25976562 C-11.79951094 38.17303626 -11.90026629 41.0865026 -12 44 C-16.62 44 -21.24 44 -26 44 C-26 29.81 -26 15.62 -26 1 C-21.38 1 -16.76 1 -12 1 C-11.67 1.99 -11.34 2.98 -11 4 C-10.401875 3.360625 -9.80375 2.72125 -9.1875 2.0625 C-5.79134439 -1.13958958 -4.57005135 -1.14251284 0 0 Z " fill="#000000" transform="translate(1002,706)"/>
<path d="M0 0 C0 4.62 0 9.24 0 14 C-2.31 14 -4.62 14 -7 14 C-10.24849977 15.72226496 -10.24849977 15.72226496 -11 19 C-11.14939774 20.91765594 -11.24810283 22.83946522 -11.31640625 24.76171875 C-11.35830078 25.87998047 -11.40019531 26.99824219 -11.44335938 28.15039062 C-11.48267578 29.31763672 -11.52199219 30.48488281 -11.5625 31.6875 C-11.60568359 32.86634766 -11.64886719 34.04519531 -11.69335938 35.25976562 C-11.79951094 38.17303626 -11.90026629 41.0865026 -12 44 C-16.62 44 -21.24 44 -26 44 C-26 29.81 -26 15.62 -26 1 C-21.38 1 -16.76 1 -12 1 C-11.67 1.99 -11.34 2.98 -11 4 C-10.401875 3.360625 -9.80375 2.72125 -9.1875 2.0625 C-5.79134439 -1.13958958 -4.57005135 -1.14251284 0 0 Z " fill="#000000" transform="translate(111,706)"/>
<path d="M0 0 C3.96 0 7.92 0 12 0 C16.29 9.24 20.58 18.48 25 28 C28.90670927 19.16042033 28.90670927 19.16042033 32.80834961 10.31860352 C33.29311768 9.22475342 33.77788574 8.13090332 34.27734375 7.00390625 C34.77484131 5.87799072 35.27233887 4.7520752 35.78491211 3.59204102 C37 1 37 1 38 0 C40.01964199 -0.07244053 42.04167124 -0.08377188 44.0625 -0.0625 C45.71958984 -0.04896484 45.71958984 -0.04896484 47.41015625 -0.03515625 C48.26480469 -0.02355469 49.11945313 -0.01195313 50 0 C49.34 0.66 48.68 1.32 48 2 C47.01 2 46.02 2 45 2 C45 13.55 45 25.1 45 37 C46.65 37.33 48.3 37.66 50 38 C50 38.33 50 38.66 50 39 C44.39 39 38.78 39 33 39 C34.32 38.01 35.64 37.02 37 36 C37.55108288 33.39464695 37.55108288 33.39464695 37.390625 30.45703125 C37.37773438 29.38388672 37.36484375 28.31074219 37.3515625 27.20507812 C37.31804687 26.08552734 37.28453125 24.96597656 37.25 23.8125 C37.23195313 22.68134766 37.21390625 21.55019531 37.1953125 20.38476562 C37.14812652 17.58899624 37.08230595 14.79492028 37 12 C36.65219482 12.78238037 36.30438965 13.56476074 35.94604492 14.37084961 C34.65171342 17.26891885 33.34803666 20.16253871 32.0378418 23.0534668 C31.47252496 24.30599336 30.91097514 25.56022718 30.35327148 26.81616211 C29.55141511 28.62016076 28.73489005 30.4176169 27.91796875 32.21484375 C27.43094482 33.29886475 26.9439209 34.38288574 26.44213867 35.49975586 C25 38 25 38 22 39 C17.71 29.76 13.42 20.52 9 11 C9 19.58 9 28.16 9 37 C10.65 37.33 12.3 37.66 14 38 C14 38.33 14 38.66 14 39 C9.38 39 4.76 39 0 39 C1.32 38.01 2.64 37.02 4 36 C4.40663704 33.38985056 4.56157676 31.20411478 4.53125 28.59375 C4.5350769 27.87264038 4.53890381 27.15153076 4.54284668 26.40856934 C4.54556603 24.88548383 4.53820293 23.36235164 4.52148438 21.83935547 C4.50007099 19.50773019 4.52128084 17.17918568 4.546875 14.84765625 C4.54423172 13.3671807 4.53910674 11.88670706 4.53125 10.40625 C4.53934692 9.7093103 4.54744385 9.01237061 4.55578613 8.29431152 C4.55732631 6.08679848 4.55732631 6.08679848 4 3 C2.68 2.01 1.36 1.02 0 0 Z " fill="#000000" transform="translate(990,24)"/>
<path d="M0 0 C4.62 0 9.24 0 14 0 C14 14.19 14 28.38 14 43 C9.38 43 4.76 43 0 43 C0 28.81 0 14.62 0 0 Z " fill="#000000" transform="translate(564,707)"/>
<path d="M0 0 C4.62 0 9.24 0 14 0 C14 14.19 14 28.38 14 43 C9.38 43 4.76 43 0 43 C0 28.81 0 14.62 0 0 Z " fill="#000000" transform="translate(200,707)"/>
<path d="M0 0 C4.62 0 9.24 0 14 0 C14 14.19 14 28.38 14 43 C9.38 43 4.76 43 0 43 C0 28.81 0 14.62 0 0 Z " fill="#000000" transform="translate(148,707)"/>
<path d="M0 0 C10.56 0 21.12 0 32 0 C32 2.97 32 5.94 32 9 C31.34 9 30.68 9 30 9 C29.67 7.35 29.34 5.7 29 4 C25.7 3.67 22.4 3.34 19 3 C19.04412307 7.64547409 19.1139203 12.289585 19.20751953 16.93432617 C19.23574193 18.51429392 19.25695025 20.09440318 19.27099609 21.67456055 C19.29240965 23.94653845 19.33904534 26.21681271 19.390625 28.48828125 C19.39185364 29.19463211 19.39308228 29.90098297 19.39434814 30.6287384 C19.41771723 32.86942159 19.41771723 32.86942159 20 36 C21.32 36.99 22.64 37.98 24 39 C18.39 39 12.78 39 7 39 C7.66 38.34 8.32 37.68 9 37 C9.99 37 10.98 37 12 37 C12.33 25.78 12.66 14.56 13 3 C8.545 3.495 8.545 3.495 4 4 C2.00916823 6.4251788 2.00916823 6.4251788 1 9 C0.34 9 -0.32 9 -1 9 C-0.67 6.03 -0.34 3.06 0 0 Z " fill="#000000" transform="translate(955,24)"/>
<path d="M0 0 C2.5625 2.0625 2.5625 2.0625 4 5 C4 8.80284671 3.7968187 11.01930006 1.375 14 C-2.08383253 15.45635054 -4.41298371 14.91305869 -8 14 C-9.9375 12.9375 -9.9375 12.9375 -11 11 C-11.52776637 7.43943533 -11.62903915 4.25807831 -10 1 C-6.71960404 -0.64019798 -3.52085131 -0.74234817 0 0 Z " fill="#000000" transform="translate(575,687)"/>
<path d="M0 0 C2.5625 2.0625 2.5625 2.0625 4 5 C4 8.80284671 3.7968187 11.01930006 1.375 14 C-2.08383253 15.45635054 -4.41298371 14.91305869 -8 14 C-9.9375 12.9375 -9.9375 12.9375 -11 11 C-11.52776637 7.43943533 -11.62903915 4.25807831 -10 1 C-6.71960404 -0.64019798 -3.52085131 -0.74234817 0 0 Z " fill="#000000" transform="translate(211,687)"/>
<path d="M0 0 C2.5625 2.0625 2.5625 2.0625 4 5 C4 8.80284671 3.7968187 11.01930006 1.375 14 C-2.08383253 15.45635054 -4.41298371 14.91305869 -8 14 C-9.9375 12.9375 -9.9375 12.9375 -11 11 C-11.52776637 7.43943533 -11.62903915 4.25807831 -10 1 C-6.71960404 -0.64019798 -3.52085131 -0.74234817 0 0 Z " fill="#000000" transform="translate(159,687)"/>
</svg>
