<?xml version="1.0" encoding="UTF-8"?>
<svg version="1.1" xmlns="http://www.w3.org/2000/svg" width="900" height="192">
<path d="M0 0 C6.57304006 4.88467095 9.55804283 12.42072682 12.86279297 19.66308594 C13.85313617 21.82479763 14.87228489 23.97024552 15.90234375 26.11328125 C19.85283237 34.35769675 23.59950309 42.68294363 27.2265625 51.07421875 C30.40195977 58.40757443 33.70663698 65.65833878 37.1796875 72.85546875 C43.30320174 85.63741417 49.14538212 98.54618964 54.97775269 111.46279907 C56.90162863 115.72338076 58.83296004 119.98046176 60.77113342 124.23455811 C61.99604013 126.9255935 63.21619033 129.6187664 64.43515015 132.3125 C65.0112457 133.58321397 65.58920588 134.85308437 66.1690979 136.12207031 C66.96823255 137.87196536 67.75970564 139.62535322 68.55078125 141.37890625 C68.99993896 142.36810059 69.44909668 143.35729492 69.91186523 144.37646484 C70.8671875 146.85546875 70.8671875 146.85546875 70.8671875 149.85546875 C61.61803343 150.49951043 53.06054965 149.26150979 45.4296875 143.60546875 C38.30880931 135.96355069 33.6322224 121.22221298 29.8671875 112.85546875 C4.1271875 112.52546875 -21.6128125 112.19546875 -48.1328125 111.85546875 C-48.7928125 113.83546875 -49.4528125 115.81546875 -50.1328125 117.85546875 C-58.98030389 141.76884341 -58.98030389 141.76884341 -70.14624023 147.96557617 C-73.59872735 149.51213087 -77.15984195 150.01343629 -80.8828125 150.54296875 C-86.57819825 151.38064042 -86.57819825 151.38064042 -92.1328125 152.85546875 C-92.4628125 150.54546875 -92.7928125 148.23546875 -93.1328125 145.85546875 C-92.1428125 146.18546875 -91.1528125 146.51546875 -90.1328125 146.85546875 C-82.76914595 131.11365079 -75.50045001 115.33656125 -68.44848633 99.45239258 C-64.20621091 89.92090662 -64.20621091 89.92090662 -61.875 85.3125 C-60.53323504 82.65002917 -59.36133401 80.07757309 -58.3203125 77.29296875 C-56.6914541 73.11127716 -54.85686921 69.06189898 -52.94140625 65.00390625 C-50.43778325 59.67552742 -47.97491422 54.33123607 -45.5625 48.9609375 C-45.26940445 48.30896896 -44.9763089 47.65700043 -44.67433167 46.98527527 C-43.48354273 44.33442988 -42.29428198 41.68290586 -41.10693359 39.03051758 C-37.91440339 31.90318956 -34.69858608 24.80754971 -31.11914062 17.86303711 C-29.98009185 15.62407794 -29.98009185 15.62407794 -28.7578125 12.23046875 C-25.66363882 5.80410803 -20.95912976 0.23135124 -14.30078125 -2.640625 C-9.11702283 -3.84549858 -4.59694975 -2.46686131 0 0 Z M-9.1328125 26.85546875 C-13.90460152 36.21675579 -18.41384805 45.6672139 -22.73999023 55.24169922 C-23.69523381 57.35529464 -24.65491186 59.4668331 -25.61523438 61.578125 C-33.02903333 74.90337585 -33.02903333 74.90337585 -37.1328125 88.85546875 C-26.12107176 89.61523077 -15.15492933 90.04195549 -4.11645508 90.04077148 C-1.77603285 90.04301112 0.56395411 90.06142515 2.90429688 90.08007812 C4.40885259 90.08300417 5.91341049 90.08499423 7.41796875 90.0859375 C8.10957596 90.09312302 8.80118317 90.10030853 9.51374817 90.10771179 C13.13799345 90.09043908 15.78374713 89.83603339 18.8671875 87.85546875 C18.2071875 87.85546875 17.5471875 87.85546875 16.8671875 87.85546875 C17.07617676 87.30528076 17.28516602 86.75509277 17.50048828 86.18823242 C17.99767462 83.02537262 17.08571129 81.41669144 15.734375 78.53125 C15.25742187 77.50193359 14.78046875 76.47261719 14.2890625 75.41210938 C13.52335938 73.80625977 13.52335938 73.80625977 12.7421875 72.16796875 C12.01128906 70.59112305 12.01128906 70.59112305 11.265625 68.98242188 C8.67949386 63.45594216 5.96684101 58.06360827 2.88867188 52.79418945 C1.84122498 50.80619333 1.142543 48.87806683 0.4921875 46.73046875 C-1.61760512 39.80886841 -5.00437 33.36091494 -8.1328125 26.85546875 C-8.4628125 26.85546875 -8.7928125 26.85546875 -9.1328125 26.85546875 Z " fill="#EC2621" transform="translate(809.1328125,4.14453125)"/>
<path d="M0 0 C0.33 -0.99 0.66 -1.98 1 -3 C10.3077259 -10.78957255 21.56875499 -14.46930581 33.625 -14.0625 C46.22360135 -12.73083437 56.16506534 -7.3306552 64.77734375 1.90625 C75.5413948 15.27229813 75.15982365 29.8104854 75.1328125 46.21875 C75.13376923 47.52026001 75.13472595 48.82177002 75.13571167 50.16271973 C75.13717022 52.88876562 75.13509154 55.61477833 75.13037109 58.34082031 C75.12462911 61.82517841 75.12799245 65.3094602 75.13394356 68.79381561 C75.13842749 72.14379986 75.13528961 75.49376359 75.1328125 78.84375 C75.13483673 80.08958862 75.13686096 81.33542725 75.13894653 82.61901855 C75.13421829 84.35737976 75.13421829 84.35737976 75.12939453 86.13085938 C75.12859894 87.14643921 75.12780334 88.16201904 75.12698364 89.20837402 C75.0042181 91.90726862 74.60617326 94.37133128 74 97 C66.91157174 96.74223897 62.41826754 94.574001 57 90 C50.61006563 82.29930987 50.71810466 74.26891289 50.7265625 64.71484375 C50.70628282 62.30403174 50.68543222 59.89322447 50.6640625 57.48242188 C50.64142887 53.70137501 50.6249738 49.92051591 50.61914062 46.1394043 C50.60962404 42.47671053 50.57586846 38.81485071 50.5390625 35.15234375 C50.54663071 33.45995827 50.54663071 33.45995827 50.55435181 31.73338318 C50.4753479 25.43085733 50.06730174 21.86754703 46 17 C45.505 15.515 45.505 15.515 45 14 C42.62374655 12.81608777 42.62374655 12.81608777 40 12 C38.515 11.505 38.515 11.505 37 11 C29.54568413 10.32635071 23.17016217 10.43944535 17 15 C11.99881247 19.86957733 10.90224628 25.43650332 10.78881836 32.17480469 C10.79586005 34.17388808 10.81346215 36.17295329 10.83984375 38.171875 C10.84504532 39.24890686 10.85024689 40.32593872 10.85560608 41.43560791 C10.87334336 44.8738787 10.9044176 48.31184533 10.9375 51.75 C10.97449002 56.2447694 11.00480597 60.73950965 11.02734375 65.234375 C11.03572769 66.86445496 11.03572769 66.86445496 11.04428101 68.52746582 C11.06196103 78.04452647 10.648678 87.50708128 10 97 C1.90057342 96.08528037 -3.02345094 94.48642623 -8.60546875 88.3046875 C-13.14907228 80.79565086 -13.40778401 73.16654964 -13.3359375 64.58984375 C-13.34844391 62.19465872 -13.36148076 59.79947641 -13.375 57.40429688 C-13.37893391 53.66290681 -13.37493873 49.92178472 -13.36035156 46.18041992 C-13.3517672 42.5456596 -13.37347858 38.91200654 -13.3984375 35.27734375 C-13.38509369 34.16568344 -13.37174988 33.05402313 -13.35800171 31.90867615 C-13.42253545 25.09592944 -14.31352591 20.15500067 -19 15 C-24.26214627 10.93142163 -29.54386382 10.37344956 -36.09375 10.61328125 C-41.68457989 11.35722232 -45.41991576 13.41991576 -49.375 17.375 C-53.5487286 24.11717698 -53.26609008 30.60633871 -53.23828125 38.30078125 C-53.25370074 40.74675034 -53.27000435 43.19271399 -53.28710938 45.63867188 C-53.30355169 49.4766037 -53.31249698 53.31413549 -53.30541992 57.15209961 C-53.30279262 60.86878216 -53.33097322 64.58426003 -53.36328125 68.30078125 C-53.35307449 69.43856522 -53.34286774 70.57634918 -53.33235168 71.74861145 C-53.43356653 80.04594844 -55.17924006 86.21353772 -61.17578125 92.15625 C-66.21692054 95.32654601 -70.00053856 96.89286676 -76 97 C-77.87995479 95.12004521 -77.15736912 91.89532479 -77.17700195 89.39160156 C-77.18357315 88.70032669 -77.19014435 88.00905182 -77.19691467 87.29682922 C-77.21671714 84.99476008 -77.22833484 82.69275687 -77.23828125 80.390625 C-77.24235678 79.60239098 -77.2464323 78.81415695 -77.25063133 78.00203705 C-77.27153653 73.81792969 -77.28581039 69.6338554 -77.29516602 65.44970703 C-77.30614939 61.15621621 -77.34044092 56.86325539 -77.38033772 52.5699501 C-77.4067001 49.24787542 -77.4148758 45.92592217 -77.41844749 42.60375214 C-77.42327493 41.02354158 -77.43477712 39.44333502 -77.45348549 37.86322784 C-77.60098385 24.56238493 -76.34694213 12.19468805 -67 2 C-66.42507813 1.32324219 -65.85015625 0.64648438 -65.2578125 -0.05078125 C-56.9802937 -9.16979055 -46.84891695 -12.95024482 -34.82421875 -13.875 C-21.3576186 -14.31517488 -10.20656361 -8.46544393 0 0 Z " fill="#ED2621" transform="translate(360,58)"/>
<path d="M0 0 C0 0.66 0 1.32 0 2 C0.56203125 2.2475 1.1240625 2.495 1.703125 2.75 C4.39092569 4.21274867 6.46405482 5.96804873 8.75 8 C9.54921875 8.70125 10.3484375 9.4025 11.171875 10.125 C13 12 13 12 13 14 C13.66 14 14.32 14 15 14 C16.61439319 16.24237733 18.1031638 18.47249014 19.5625 20.8125 C19.97435547 21.45509766 20.38621094 22.09769531 20.81054688 22.75976562 C22.53157341 25.47791719 23.9789447 27.93683409 25 31 C19.375 34 19.375 34 16 34 C15.67 34.66 15.34 35.32 15 36 C15 35.34 15 34.68 15 34 C14.443125 34.04640625 13.88625 34.0928125 13.3125 34.140625 C7.25140586 34.42729837 2.95370561 33.59480971 -2 30 C-3.40279506 28.61085081 -4.77582226 27.19128028 -6.125 25.75 C-17.75889365 13.63718105 -34.75967444 8.06415112 -51.3125 7.6875 C-68.62684614 7.83407648 -83.71957838 13.72254634 -96.5625 25.3125 C-107.35439086 37.21125146 -112.61459553 49.4016895 -112.3125 65.6015625 C-110.97248385 80.17423814 -103.71235119 93.32586545 -92.62744141 102.73632812 C-77.00633211 114.86577032 -57.90683967 117.93208076 -38.6875 115.59765625 C-27.0424372 113.17687553 -15.93903734 106.95740017 -6.87890625 99.41015625 C-2.1751495 95.87989391 3.31609734 95.50141205 9 96 C13.07528295 97.16759493 16.46735476 98.64490317 20 101 C15.91109519 109.57534204 9.46314589 116.20129672 2 122 C1.34 122 0.68 122 0 122 C0 122.66 0 123.32 0 124 C-19.1020895 138.03714153 -43.27196379 141.22692551 -66.30859375 138.5703125 C-87.53551064 135.16222475 -105.31965902 124.46537648 -119.3515625 108.2890625 C-121 106 -121 106 -121 104 C-121.66 104 -122.32 104 -123 104 C-134.30120589 82.87881423 -139.24586957 62.23389737 -132.328125 38.58203125 C-124.35564256 17.07977715 -108.10527618 0.90064326 -87.515625 -8.609375 C-57.17630827 -21.82838829 -27.9515396 -15.64384555 0 0 Z " fill="#EC2621" transform="translate(135,16)"/>
<path d="M0 0 C2.5625 2.3125 2.5625 2.3125 5 5 C5.94166016 5.95326172 5.94166016 5.95326172 6.90234375 6.92578125 C15.86717585 16.32466481 20.90983229 28.67169655 21.4375 41.6875 C21.12360229 52.64538364 18.20964339 63.91450406 12 73 C11.39091797 73.99 11.39091797 73.99 10.76953125 75 C3.52068649 85.88389595 -9.33248124 93.77192222 -21.99707031 96.40625 C-35.52469644 98.91516327 -48.74963779 99.71244867 -61.3125 93.3125 C-68.81248581 86.85902384 -70.02143599 79.58116405 -71 70 C-71.99 70 -72.98 70 -74 70 C-74 67.69 -74 65.38 -74 63 C-70.75 62.6875 -70.75 62.6875 -67 63 C-65.6562616 64.65828908 -64.32399156 66.32590266 -63 68 C-52.29184305 74.65687622 -38.92157461 75.25935796 -26.796875 72.8671875 C-21.40639116 71.19583636 -16.30966959 68.36427171 -12.34765625 64.30859375 C-11 63 -11 63 -9 63 C-3.93471653 53.21168194 -1.36830736 44.76618485 -4.125 33.9375 C-7.17955914 24.77382258 -13.4566313 18.57164688 -21.83203125 14 C-32.36863699 9.3860758 -44.33358277 10.52868078 -55 14 C-62.17484306 17.20495689 -68.50311519 21.64005875 -71.89221191 28.91526794 C-74.53461509 36.68745401 -74.42598899 44.49096375 -74.41069031 52.59788704 C-74.40616365 55.20998668 -74.42034643 57.82142605 -74.43908691 60.43345642 C-74.48183481 66.91558616 -74.49309292 73.39769795 -74.50531006 79.87994385 C-74.51688199 85.37374967 -74.54055833 90.86725098 -74.58000183 96.36092949 C-74.59347602 98.92060939 -74.58942005 101.4798652 -74.58459473 104.03956604 C-74.64955171 123.11582666 -74.64955171 123.11582666 -80.9375 129.9375 C-81.42089844 130.48277344 -81.90429688 131.02804688 -82.40234375 131.58984375 C-85.88029704 134.65962648 -88.66019443 135.24578436 -93.25 135.125 C-94.08885742 135.1029248 -94.92771484 135.08084961 -95.79199219 135.05810547 C-96.52063477 135.03893066 -97.24927734 135.01975586 -98 135 C-99.03766719 125.22521945 -99.14712123 115.51001825 -99.1328125 105.6953125 C-99.13348825 104.04206325 -99.13446052 102.3888141 -99.13571167 100.73556519 C-99.13717673 97.28805587 -99.13507329 93.84057266 -99.13037109 90.39306641 C-99.12468359 86.01389033 -99.12795428 81.6347757 -99.13394356 77.25560188 C-99.13758928 73.84601392 -99.13639219 70.43644008 -99.13381577 67.02685165 C-99.13315707 65.41401029 -99.13393711 63.80116757 -99.13629532 62.18832779 C-99.15985623 41.5479879 -98.85925021 23.69722789 -85 7 C-84.38382812 6.15695313 -83.76765625 5.31390625 -83.1328125 4.4453125 C-62.68717961 -18.99601751 -23.09821901 -17.87476284 0 0 Z M-70 65 C-69 68 -69 68 -69 68 Z " fill="#EC2621" transform="translate(543,57)"/>
<path d="M0 0 C9.6679317 8.09479274 17.48793503 20.36087901 18.6875 33.125 C19.6476419 48.02220162 17.64384271 60.69866064 8.6875 73.125 C6.375 75.75 6.375 75.75 3.6875 78.125 C2.78644531 79.02992188 2.78644531 79.02992188 1.8671875 79.953125 C-11.20164705 92.58793921 -27.28434071 96.60823219 -44.99609375 96.48120117 C-51.7604363 96.3039723 -57.89936204 95.35607661 -64.3125 93.125 C-65.1684375 92.85816406 -66.024375 92.59132813 -66.90625 92.31640625 C-73.8308507 89.91203101 -78.8146488 85.87232217 -84.3125 81.125 C-85.01375 80.60292969 -85.715 80.08085937 -86.4375 79.54296875 C-96.01571629 72.15352454 -100.90760986 60.96086282 -102.91796875 49.30078125 C-103.43439984 45.14376662 -103.70298083 41.29735999 -103.3125 37.125 C-103.24289063 36.22652344 -103.17328125 35.32804687 -103.1015625 34.40234375 C-101.37472881 19.83937962 -93.6569408 8.33734441 -82.75 -1.08984375 C-76.13811327 -6.25057511 -69.29586664 -9.3883776 -61.3125 -11.875 C-60.52746094 -12.12121094 -59.74242187 -12.36742187 -58.93359375 -12.62109375 C-38.24259555 -17.83882373 -16.73660693 -12.68301565 0 0 Z M-66.3125 15.125 C-66.3125 15.785 -66.3125 16.445 -66.3125 17.125 C-66.90933594 17.38796875 -67.50617188 17.6509375 -68.12109375 17.921875 C-70.41919847 19.18357955 -71.69262897 20.3830727 -73.375 22.375 C-74.10396484 23.21804687 -74.10396484 23.21804687 -74.84765625 24.078125 C-78.63586908 29.37152106 -79.86952805 33.91422719 -79.8125 40.375 C-79.80677979 41.12571777 -79.80105957 41.87643555 -79.79516602 42.64990234 C-79.52833958 50.98171498 -76.67517669 56.76917567 -71.125 62.9375 C-61.88402206 71.45527097 -50.450377 73.68607244 -38.26953125 73.50390625 C-28.80874285 72.59798673 -19.03095212 69.06219242 -12.3125 62.125 C-6.17854199 54.4781824 -3.69546782 47.40751202 -3.875 37.578125 C-4.96824756 28.94927821 -9.44369956 21.83165776 -16.2421875 16.51953125 C-31.48771319 6.25037527 -50.2071164 6.59183733 -66.3125 15.125 Z " fill="#EC2621" transform="translate(259.3125,58.875)"/>
<path d="M0 0 C0.66 0 1.32 0 2 0 C2 0.66 2 1.32 2 2 C54.14 1.67 106.28 1.34 160 1 C159.05045252 9.54592734 158.45168051 12.96337523 153 19 C135.47188856 32.89020152 114.07425452 25.54756364 91 26 C91 68.57 91 111.14 91 155 C82.57457032 154.06384115 78.84947758 153.61141745 73 148 C66.955696 139.37967121 66.84773437 130.14281015 66.87060547 119.99145508 C66.86797699 118.53871437 66.86797699 118.53871437 66.86529541 117.05662537 C66.86091894 113.8775754 66.86379934 110.69858172 66.8671875 107.51953125 C66.86651342 105.30091847 66.86554252 103.08230576 66.86428833 100.86369324 C66.8628172 96.22463271 66.86494775 91.58559148 66.86962891 86.9465332 C66.87533584 81.0014407 66.87203738 75.05639324 66.86605644 69.11130238 C66.86244359 64.5345577 66.86359259 59.95782372 66.86618423 55.38107872 C66.86685098 53.18862592 66.8660339 50.99617214 66.86370468 48.80372047 C66.86116522 45.74257455 66.86503665 42.6815018 66.87060547 39.62036133 C66.86858124 38.71583221 66.86655701 37.8113031 66.86447144 36.87936401 C66.87825768 32.78856739 66.96636454 28.98971487 68 25 C67.07491135 25.01665459 67.07491135 25.01665459 66.13113403 25.03364563 C59.67415953 25.14482685 53.21745982 25.21990971 46.75976562 25.2746582 C44.3543797 25.29970084 41.94906911 25.333745 39.54394531 25.37719727 C36.07337794 25.4382988 32.60382228 25.46631363 29.1328125 25.48828125 C27.53688766 25.52699089 27.53688766 25.52699089 25.90872192 25.56648254 C18.46342273 25.56923835 13.32387796 23.89856067 7 20 C6.38206573 19.63163528 5.76413147 19.26327057 5.12747192 18.88374329 C1.8270051 16.58454411 0.52997823 14.33756211 -0.4375 10.5625 C-1.06716593 6.83437896 -0.947191 3.6940449 0 0 Z " fill="#EC2520" transform="translate(525,0)"/>
<path d="M0 0 C7.07318652 0.25720678 11.60495955 2.41209158 17 7 C24.84889222 15.97016253 23.14919775 29.66771918 23.11352539 40.83691406 C23.11367142 42.0578627 23.11381744 43.27881134 23.1139679 44.53675842 C23.1133958 47.84381887 23.10842457 51.15081476 23.10139394 54.45786381 C23.09508872 57.92916227 23.09455098 61.40046183 23.09336853 64.87176514 C23.09027616 71.42686916 23.08209135 77.98195626 23.07201904 84.53705287 C23.06079243 92.0075615 23.05533104 99.478071 23.05032361 106.94858599 C23.0399067 122.29906709 23.02234833 137.64953135 23 153 C21.5558431 152.86483707 20.11235575 152.72250731 18.66918945 152.57714844 C17.86528275 152.49865662 17.06137604 152.42016479 16.23310852 152.33929443 C10.70815489 151.49984306 6.44313841 147.40613486 2.5625 143.625 C-1.55699135 136.70425454 -1.28380636 129.08870359 -1.24291992 121.2824707 C-1.24481827 120.13175583 -1.24671661 118.98104095 -1.24867249 117.79545593 C-1.25236551 114.00549421 -1.24169288 110.21572586 -1.23046875 106.42578125 C-1.22927551 103.77792581 -1.2287734 101.13007835 -1.2290802 98.48222351 C-1.22814562 92.93514633 -1.21949373 87.38812407 -1.20581055 81.84106445 C-1.1901261 75.45981182 -1.18481129 69.07861941 -1.1855461 62.69734889 C-1.18616039 56.5261365 -1.18101614 50.35494337 -1.17275429 44.1837368 C-1.16958845 41.57365218 -1.16760513 38.96356582 -1.16686058 36.35347939 C-1.16467237 32.69045735 -1.15587416 29.02750811 -1.14526367 25.36450195 C-1.14571686 24.30172028 -1.14617004 23.2389386 -1.14663696 22.14395142 C-1.1154967 14.72569438 -0.65523067 7.38844598 0 0 Z " fill="#ED2621" transform="translate(691,2)"/>
<path d="M0 0 C0.95003906 0.16886719 1.90007813 0.33773437 2.87890625 0.51171875 C5.66071457 1.38236105 6.805729 1.91031908 8.4375 4.3125 C9.12838945 8.03178819 9.02212723 11.58072056 8.4375 15.3125 C5.77380828 19.04166841 2.95885672 21.38767703 -1.5625 22.3125 C-5.9122658 21.92984556 -9.46625323 21.07987274 -13.0625 18.5625 C-14.96293722 15.71184417 -15.42291973 13.73221665 -15.5625 10.3125 C-14.33386783 5.621359 -11.81571794 2.77191468 -7.77734375 0.15625 C-4.87293679 -0.95019075 -3.03504718 -0.58223354 0 0 Z M-5.5625 3.3125 C-5.5625 3.6425 -5.5625 3.9725 -5.5625 4.3125 C-3.9125 4.3125 -2.2625 4.3125 -0.5625 4.3125 C-0.5625 3.9825 -0.5625 3.6525 -0.5625 3.3125 C-2.2125 3.3125 -3.8625 3.3125 -5.5625 3.3125 Z M-10.5625 6.3125 C-11.23923447 9.71570934 -11.23923447 9.71570934 -11.5625 13.3125 C-10.9025 13.9725 -10.2425 14.6325 -9.5625 15.3125 C-9.5625 12.3425 -9.5625 9.3725 -9.5625 6.3125 C-9.8925 6.3125 -10.2225 6.3125 -10.5625 6.3125 Z M3.4375 6.3125 C2.7775 8.9525 2.1175 11.5925 1.4375 14.3125 C2.7575 14.3125 4.0775 14.3125 5.4375 14.3125 C5.60431109 11.39597826 5.60431109 11.39597826 5.4375 8.3125 C4.7775 7.6525 4.1175 6.9925 3.4375 6.3125 Z M-5.5625 8.3125 C-5.2325 8.9725 -4.9025 9.6325 -4.5625 10.3125 C-3.2425 9.6525 -1.9225 8.9925 -0.5625 8.3125 C-2.2125 8.3125 -3.8625 8.3125 -5.5625 8.3125 Z M-5.5625 13.3125 C-5.8925 14.9625 -6.2225 16.6125 -6.5625 18.3125 C-3.9225 18.3125 -1.2825 18.3125 1.4375 18.3125 C-0.36107668 15.7515706 -0.36107668 15.7515706 -2.5625 13.3125 C-3.5525 13.3125 -4.5425 13.3125 -5.5625 13.3125 Z " fill="#D31916" transform="translate(891.5625,124.6875)"/>
<path d="M0 0 C0.33 0 0.66 0 1 0 C1.00586624 0.98527679 1.01173248 1.97055359 1.01777649 2.98568726 C1.07490948 12.25639689 1.14762112 21.52686981 1.23571491 30.79733849 C1.28050429 35.56376847 1.31974122 40.33011129 1.34643555 45.09667969 C1.37238345 49.69392209 1.41272457 54.29083055 1.46318626 58.88786697 C1.47991285 60.6445565 1.49139092 62.40130385 1.49761391 64.15806198 C1.50719249 66.61273224 1.53517469 69.06653692 1.56762695 71.52099609 C1.56619186 72.25251389 1.56475677 72.98403168 1.5632782 73.73771667 C1.5703035 75.96962683 1.5703035 75.96962683 2 79 C2.99 79.66 3.98 80.32 5 81 C6.15317663 83.97903963 6.0448029 84.86559131 5 88 C5.33 88.66 5.66 89.32 6 90 C5.01 90.99 5.01 90.99 4 92 C3.34 91.34 2.68 90.68 2 90 C1.77576305 92.97871518 1.57030632 95.95685926 1.375 98.9375 C1.31054688 99.76830078 1.24609375 100.59910156 1.1796875 101.45507812 C0.70604455 109.06296794 1.083224 115.91256304 6 122 C5.67 122.99 5.34 123.98 5 125 C-1.66731842 116.11872471 -2.30820621 106.48283425 -2.25878906 95.66674805 C-2.2622937 94.69942245 -2.26579834 93.73209686 -2.26940918 92.73545837 C-2.27812373 89.57746951 -2.27241632 86.41970939 -2.265625 83.26171875 C-2.26697405 81.049789 -2.26891659 78.83785953 -2.27142334 76.62593079 C-2.27436019 72.00897373 -2.27012134 67.39209445 -2.26074219 62.77514648 C-2.249315 56.86270091 -2.25593692 50.95043629 -2.26788712 45.03799725 C-2.27511606 40.47836443 -2.27281359 35.91877451 -2.26763153 31.3591404 C-2.26629964 29.17867829 -2.2679266 26.99821227 -2.27259064 24.81775475 C-2.2776765 21.77382454 -2.269918 18.73018768 -2.25878906 15.6862793 C-2.26283752 14.79005859 -2.26688599 13.89383789 -2.27105713 12.97045898 C-2.23910275 8.2463176 -1.8247674 4.44143903 0 0 Z " fill="#DB201E" transform="translate(594,24)"/>
<path d="M0 0 C0.99 0.66 1.98 1.32 3 2 C-1.08890481 10.57534204 -7.53685411 17.20129672 -15 23 C-15.66 23 -16.32 23 -17 23 C-17 23.66 -17 24.32 -17 25 C-19.01171875 26.5078125 -19.01171875 26.5078125 -21.6875 28.125 C-22.99267578 28.93324219 -22.99267578 28.93324219 -24.32421875 29.7578125 C-27.15423253 31.07159992 -28.9233227 31.25500388 -32 31 C-28.375 28 -28.375 28 -25 28 C-25 27.34 -25 26.68 -25 26 C-22.11913473 22.36101229 -18.26377076 21.42125692 -14 20 C-14 19.34 -14 18.68 -14 18 C-12.68 17.67 -11.36 17.34 -10 17 C-10 16.01 -10 15.02 -10 14 C-9.01 14 -8.02 14 -7 14 C-6.06213918 8.94990405 -6.06213918 8.94990405 -7 4 C-7.99 3.34 -8.98 2.68 -10 2 C-10 1.34 -10 0.68 -10 0 C-10.99 -0.33 -11.98 -0.66 -13 -1 C-13 -0.34 -13 0.32 -13 1 C-14.65 1 -16.3 1 -18 1 C-18.33 1.66 -18.66 2.32 -19 3 C-19.598125 2.835 -20.19625 2.67 -20.8125 2.5 C-23.11344336 1.8885876 -23.11344336 1.8885876 -26 2 C-18.33942905 -4.74130244 -8.68921463 -4.11793215 0 0 Z " fill="#DE1F1C" transform="translate(152,115)"/>
<path d="M0 0 C1.32 0 2.64 0 4 0 C3.7624387 7.4831808 2.06715833 12.38915515 -3 18 C-8.01694918 21.97569558 -12.56737473 24.12946327 -19.0222168 24.11352539 C-20.04304855 24.11344986 -21.06388031 24.11337433 -22.11564636 24.11329651 C-23.21572525 24.10813522 -24.31580414 24.10297394 -25.44921875 24.09765625 C-26.5769722 24.0962413 -27.70472565 24.09482635 -28.86665344 24.09336853 C-32.47362912 24.0877647 -36.08054304 24.07521153 -39.6875 24.0625 C-42.13085848 24.05748549 -44.57421793 24.0529225 -47.01757812 24.04882812 C-53.01173987 24.03779403 -59.00586552 24.02105215 -65 24 C-65 23.34 -65 22.68 -65 22 C-64.37439178 21.99413376 -63.74878357 21.98826752 -63.10421753 21.98222351 C-56.58252917 21.91820272 -50.0613303 21.83376028 -43.54003906 21.73754883 C-41.1074876 21.70433053 -38.67485963 21.67628901 -36.2421875 21.65356445 C-32.74185642 21.61996242 -29.24222445 21.56764166 -25.7421875 21.51171875 C-24.65759247 21.50532883 -23.57299744 21.4989389 -22.45553589 21.49235535 C-16.80390505 21.38274461 -12.96294943 20.96937462 -8 18 C-7.01 18 -6.02 18 -5 18 C-4.34 16.02 -3.68 14.04 -3 12 C-2.34 12 -1.68 12 -1 12 C-1 9.36 -1 6.72 -1 4 C-3.31 4 -5.62 4 -8 4 C-8 3.67 -8 3.34 -8 3 C-5.03 3 -2.06 3 1 3 C1 3.99 1 4.98 1 6 C1.33 4.68 1.66 3.36 2 2 C1.34 2 0.68 2 0 2 C0 1.34 0 0.68 0 0 Z " fill="#C9211E" transform="translate(681,1)"/>
<path d="M0 0 C0.33 0 0.66 0 1 0 C1 2.64 1 5.28 1 8 C0.34 8 -0.32 8 -1 8 C-1 32.75 -1 57.5 -1 83 C1.31 83 3.62 83 6 83 C2.77786243 85.14809171 1.72224599 85.29386153 -2 85 C-3.88360026 83.11639974 -3.14756752 79.86598039 -3.16113281 77.35986328 C-3.16609772 76.66537582 -3.17106262 75.97088837 -3.17617798 75.25535583 C-3.19085073 72.94366477 -3.1976145 70.63204261 -3.203125 68.3203125 C-3.20887786 66.71141559 -3.21463557 65.1025187 -3.22039795 63.49362183 C-3.23092624 60.10902588 -3.23675507 56.72445378 -3.24023438 53.33984375 C-3.24568447 49.02831781 -3.269629 44.71711325 -3.29820633 40.40568733 C-3.31695996 37.07511525 -3.3220453 33.74461804 -3.32357025 30.41399765 C-3.32657515 28.82657005 -3.33452951 27.23914308 -3.34775543 25.65176773 C-3.4168938 16.7057048 -3.04419147 8.53846283 0 0 Z " fill="#C42825" transform="translate(286,70)"/>
<path d="M0 0 C0.66 0 1.32 0 2 0 C2 0.66 2 1.32 2 2 C52.49 2 102.98 2 155 2 C155 2.33 155 2.66 155 3 C154.22031986 3.00331015 153.44063972 3.00662029 152.63733292 3.01003075 C133.67556781 3.09121241 114.71388436 3.18328896 95.7522316 3.28752708 C86.58255943 3.33767225 77.41289629 3.38411495 68.24316406 3.421875 C60.25184827 3.4547918 52.26060212 3.49462129 44.26936316 3.54279006 C40.03714528 3.56805815 35.80497362 3.58983852 31.5727005 3.60334396 C27.5902018 3.61616151 23.6078616 3.63821255 19.62545013 3.66738319 C18.16294568 3.67646138 16.7004157 3.68214977 15.23788452 3.68421364 C13.24239564 3.68753429 11.24694216 3.70418443 9.25152588 3.7215271 C8.13431278 3.72705786 7.01709969 3.73258862 5.86603165 3.73828697 C3.05203889 3.99524804 1.38908653 4.54126934 -1 6 C-0.67 4.02 -0.34 2.04 0 0 Z " fill="#C21E1B" transform="translate(525,0)"/>
<path d="M0 0 C1.65 0 3.3 0 5 0 C0.42292923 13.31511498 -10.64856527 21.91701113 -23 28 C-29.87807937 30.81622148 -36.56819738 32.74187661 -44 33 C-44.65790527 33.02578125 -45.31581055 33.0515625 -45.99365234 33.078125 C-48.28745591 33.15824038 -50.58018413 33.20872547 -52.875 33.25 C-54.00071411 33.2823877 -54.00071411 33.2823877 -55.14916992 33.31542969 C-57.3046875 33.328125 -57.3046875 33.328125 -61 33 C-61.99 32.01 -62.98 31.02 -64 30 C-50.14 30.495 -50.14 30.495 -36 31 C-36 30.34 -36 29.68 -36 29 C-34.35 28.67 -32.7 28.34 -31 28 C-31 27.67 -31 27.34 -31 27 C-29.02 27 -27.04 27 -25 27 C-25 26.34 -25 25.68 -25 25 C-24.41992188 24.76925781 -23.83984375 24.53851563 -23.2421875 24.30078125 C-18.01750023 22.11951742 -14.23941919 19.72241685 -10 16 C-9.34 16 -8.68 16 -8 16 C-7.71125 15.360625 -7.4225 14.72125 -7.125 14.0625 C-6 12 -6 12 -4 11 C-3.67 10.01 -3.34 9.02 -3 8 C-2.34 8 -1.68 8 -1 8 C-1.495 6.02 -1.495 6.02 -2 4 C-1.01 4.33 -0.02 4.66 1 5 C0.505 2.525 0.505 2.525 0 0 Z " fill="#C5221F" transform="translate(268,122)"/>
<path d="M0 0 C0.66 0.33 1.32 0.66 2 1 C3.86702239 10.56940036 3.13011142 20.85151085 3.09765625 30.578125 C3.09578673 32.24249224 3.09436536 33.90686004 3.09336853 35.57122803 C3.08958535 39.91120983 3.0797919 44.25115714 3.06866455 48.59112549 C3.05835918 53.036006 3.05385153 57.48089219 3.04882812 61.92578125 C3.03816505 70.61720317 3.02114032 79.30859727 3 88 C2.34 87.67 1.68 87.34 1 87 C0.79367759 82.45903548 0.60788556 77.91744314 0.4375 73.375 C0.41154755 72.68405243 0.38559509 71.99310486 0.3588562 71.28121948 C-0.01523963 60.83496564 0.08989721 50.50496099 0.5625 40.0625 C0.97908596 30.84783187 0.90358933 22.26791887 -0.5859375 13.171875 C-1.17379247 8.66868412 -0.79225828 4.45377628 0 0 Z " fill="#DD1B16" transform="translate(711,17)"/>
<path d="M0 0 C0.33 0 0.66 0 1 0 C1.93968516 3.96559762 2.1211915 7.64731097 2.11352539 11.71801758 C2.11367142 12.37223694 2.11381744 13.0264563 2.1139679 13.70050049 C2.11327494 15.84854526 2.10551164 17.99650175 2.09765625 20.14453125 C2.09578988 21.63954114 2.09436701 23.13455165 2.09336853 24.62956238 C2.08956064 28.55371811 2.07974518 32.4778365 2.06866455 36.40197754 C2.05841321 40.41055801 2.05386294 44.41914455 2.04882812 48.42773438 C2.0381213 56.28517334 2.02106572 64.14258202 2 72 C1.67 70.68 1.34 69.36 1 68 C0.34 68 -0.32 68 -1 68 C-1.02325197 60.31514508 -1.04098029 52.63029385 -1.05181217 44.94541168 C-1.05701301 41.37635549 -1.06405936 37.80732351 -1.07543945 34.23828125 C-1.08636839 30.78883122 -1.09229788 27.33940437 -1.09487724 23.88993835 C-1.09760235 21.94472489 -1.10539828 19.99952063 -1.11329651 18.05432129 C-1.11368128 11.93793832 -0.95362726 6.04513892 0 0 Z " fill="#C32220" transform="translate(433,78)"/>
<path d="M0 0 C0.33 0 0.66 0 1 0 C1.96943693 10.81791066 2.12186199 21.52407582 2.0625 32.375 C2.05746856 33.99739443 2.0529086 35.6197904 2.04882812 37.2421875 C2.03796742 41.16149721 2.02079612 45.08073094 2 49 C-5.50480788 48.49030101 -10.22217005 47.00027519 -16 42 C-18.0625 39.125 -18.0625 39.125 -19 37 C-18.01 37 -17.02 37 -16 37 C-15.5875 37.804375 -15.175 38.60875 -14.75 39.4375 C-13.15222392 42.3919001 -13.15222392 42.3919001 -9.375 42.875 C-7.704375 42.936875 -7.704375 42.936875 -6 43 C-5.505 42.505 -5.505 42.505 -5 42 C-3.33382885 41.95936168 -1.66611905 41.957279 0 42 C-0.03552979 41.40276123 -0.07105957 40.80552246 -0.10766602 40.19018555 C-0.88059659 26.69422421 -1.02253732 13.48176134 0 0 Z " fill="#D7221F" transform="translate(712,106)"/>
<path d="M0 0 C3.12829068 2.55951056 3.92466606 5.16098051 5 9 C5.24050903 11.9234314 5.24050903 11.9234314 5.22705078 15.00537109 C5.22689972 16.16612152 5.22674866 17.32687195 5.22659302 18.52279663 C5.21627045 19.76050812 5.20594788 20.9982196 5.1953125 22.2734375 C5.1924826 23.55231842 5.18965271 24.83119934 5.18673706 26.14883423 C5.1774602 29.53220099 5.15952183 32.91529326 5.1373291 36.29858398 C5.11679041 39.75762574 5.10771826 43.21669596 5.09765625 46.67578125 C5.075632 53.45059614 5.04218118 60.22528224 5 67 C4.67 67 4.34 67 4 67 C3.19702886 63.46194748 2.86752029 60.17978227 2.84228516 56.5546875 C2.83202301 55.49008301 2.82176086 54.42547852 2.81118774 53.32861328 C2.80388641 52.1889209 2.79658508 51.04922852 2.7890625 49.875 C2.76100542 47.45311811 2.73234105 45.03124319 2.703125 42.609375 C2.66179882 38.79752717 2.62490222 34.98581122 2.59863281 31.17382812 C2.571061 27.49061386 2.52520325 23.80798816 2.4765625 20.125 C2.4716832 18.41546143 2.4716832 18.41546143 2.46670532 16.67138672 C2.45013885 15.60678223 2.43357239 14.54217773 2.41650391 13.4453125 C2.40841705 12.51219238 2.4003302 11.57907227 2.39199829 10.61767578 C1.92824078 7.52080818 0.59817534 5.65764766 -1 3 C-0.67 2.01 -0.34 1.02 0 0 Z " fill="#C52C29" transform="translate(344,73)"/>
<path d="M0 0 C0 0.66 0 1.32 0 2 C-1.5778125 2.3403125 -1.5778125 2.3403125 -3.1875 2.6875 C-6.28164022 3.54939477 -7.096221 4.096221 -9.5 6.5 C-12.64175154 9.64175154 -14.72611628 10.07818194 -19 11 C-19 12.72082924 -18.4277972 14.34228586 -18 16 C-18.66 16.33 -19.32 16.66 -20 17 C-20 16.34 -20 15.68 -20 15 C-21.423125 15.495 -21.423125 15.495 -22.875 16 C-26 17 -26 17 -28 17 C-29.35803676 18.71659432 -30.49830258 20.53184882 -31.68359375 22.37109375 C-33 24 -33 24 -36 25 C-32.8596852 15.92449024 -24.0906785 9.65553009 -16 5 C-4.93939394 0 -4.93939394 0 0 0 Z " fill="#D8231D" transform="translate(201,47)"/>
<path d="M0 0 C5.46490053 10.20114765 3.20420587 21.63997464 0.19921875 32.29296875 C-1.3226766 36.99745958 -3.19966095 40.9407189 -6 45 C-6.49886719 45.74121094 -6.99773438 46.48242188 -7.51171875 47.24609375 C-10.06539406 50.85468783 -11.85993054 53.22822834 -16 55 C-16 54.01 -16 53.02 -16 52 C-15.34 52 -14.68 52 -14 52 C-14 51.34 -14 50.68 -14 50 C-13.4225 49.46375 -12.845 48.9275 -12.25 48.375 C-9.7416554 45.72730293 -8.45255105 43.18090536 -6.9296875 39.90234375 C-6 38 -6 38 -4 35 C-3.34 35 -2.68 35 -2 35 C-1.67 31.04 -1.34 27.08 -1 23 C-0.34 23 0.32 23 1 23 C0.67 22.01 0.34 21.02 0 20 C0.11021487 18.1208365 0.28292163 16.24483415 0.5 14.375 C0.70643291 12.58747862 0.88302309 10.79559562 1 9 C0.67 8.67 0.34 8.34 0 8 C-0.14115161 5.32941149 -0.04247107 2.67567762 0 0 Z " fill="#CF1E1B" transform="translate(561,85)"/>
<path d="M0 0 C0.98120464 3.05263664 0.98120464 4.94736336 0 8 C0.66 8 1.32 8 2 8 C2.33 6.02 2.66 4.04 3 2 C3.66 2.33 4.32 2.66 5 3 C5.23805357 5.85664285 5.41778546 8.19869493 5 11 C2.37515175 14.10209339 0.48788523 14.87581103 -3.4375 15.875 C-7.15233415 16.00534506 -9.5897509 15.41400572 -13 14 C-11.68 12.35 -10.36 10.7 -9 9 C-9 9.99 -9 10.98 -9 12 C-7.02 11.67 -5.04 11.34 -3 11 C-4.72226496 7.75150023 -4.72226496 7.75150023 -8 7 C-7.67 5.68 -7.34 4.36 -7 3 C-5.68 3.33 -4.36 3.66 -3 4 C-3.99 4.495 -3.99 4.495 -5 5 C-4.01 5.66 -3.02 6.32 -2 7 C-1.34 4.69 -0.68 2.38 0 0 Z " fill="#CD1D1C" transform="translate(894,131)"/>
<path d="M0 0 C3.3 0 6.6 0 10 0 C2.5 5 2.5 5 -2 5 C-2 5.66 -2 6.32 -2 7 C-3.35546875 8.19140625 -3.35546875 8.19140625 -5.1875 9.5625 C-10.66794493 14.2409286 -13.84680906 18.75565274 -14.4453125 26.078125 C-14.78291071 34.06970755 -14.36257097 40.10432331 -10 47 C-10.33 47.66 -10.66 48.32 -11 49 C-12.9375 48.4375 -12.9375 48.4375 -15 47 C-16.16415588 41.37201074 -16.21578165 35.73157401 -16.25 30 C-16.270625 29.13632813 -16.29125 28.27265625 -16.3125 27.3828125 C-16.34623543 21.83333438 -15.76645968 17.86069551 -13 13 C-12.01 12.67 -11.02 12.34 -10 12 C-9.26676204 9.98491642 -9.26676204 9.98491642 -9 8 C-7.68 7.67 -6.36 7.34 -5 7 C-5 6.34 -5 5.68 -5 5 C-3.35 4.34 -1.7 3.68 0 3 C0 2.01 0 1.02 0 0 Z " fill="#CA1F1F" transform="translate(195,69)"/>
<path d="M0 0 C0 3 0 3 -0.98999023 5.98925781 C-2.47343697 10.99616649 -2.22851493 15.9923691 -2.16015625 21.171875 C-2.15495468 22.24890686 -2.14975311 23.32593872 -2.14439392 24.43560791 C-2.12665664 27.8738787 -2.0955824 31.31184533 -2.0625 34.75 C-2.02550998 39.2447694 -1.99519403 43.73950965 -1.97265625 48.234375 C-1.96706696 49.32109497 -1.96147766 50.40781494 -1.95571899 51.52746582 C-1.93803897 61.04452647 -2.351322 70.50708128 -3 80 C-6.96 79.505 -6.96 79.505 -11 79 C-11 78.67 -11 78.34 -11 78 C-8.69 78 -6.38 78 -4 78 C-4.00888245 77.08180481 -4.01776489 76.16360962 -4.0269165 75.21759033 C-4.10705421 66.56579495 -4.16796026 57.91412416 -4.20724869 49.262043 C-4.22812638 44.81385723 -4.25644702 40.36597806 -4.30175781 35.91796875 C-4.34520957 31.62560766 -4.36913574 27.33354152 -4.37950897 23.04097748 C-4.3869016 21.40307725 -4.40133775 19.76519323 -4.42292023 18.12741852 C-4.45194647 15.83361391 -4.45595651 13.54102894 -4.45410156 11.24707031 C-4.46298401 9.94135071 -4.47186646 8.6356311 -4.48101807 7.29034424 C-3.92562978 3.49127974 -2.97145214 2.33159141 0 0 Z " fill="#CD2423" transform="translate(373,75)"/>
<path d="M0 0 C1.79296875 1.58984375 1.79296875 1.58984375 3 3 C2.34 3.33 1.68 3.66 1 4 C0.01 5.485 0.01 5.485 -1 7 C-1 5.35 -1 3.7 -1 2 C-2.258125 2 -3.51625 2 -4.8125 2 C-7.20833333 2 -9.60416667 2 -12 2 C-12.99 2.66 -13.98 3.32 -15 4 C-15 4.66 -15 5.32 -15 6 C-15.99 6.66 -16.98 7.32 -18 8 C-18.33 8.66 -18.66 9.32 -19 10 C-19.99 9.67 -20.98 9.34 -22 9 C-22 9.66 -22 10.32 -22 11 C-22.66 11 -23.32 11 -24 11 C-24.0825 11.66 -24.165 12.32 -24.25 13 C-25.23853893 16.9541557 -26.85258517 20.53172247 -29 24 C-29.66 24.33 -30.32 24.66 -31 25 C-27.83211753 14.70438196 -23.78850258 5.17439348 -14.1875 -0.625 C-9.40858585 -2.74377639 -4.75808407 -1.88464076 0 0 Z " fill="#D81D19" transform="translate(807,3)"/>
<path d="M0 0 C2.64 0.33 5.28 0.66 8 1 C-1.27951691 10.27951691 -19.45875094 9.17729268 -31.57763672 9.19042969 C-36.48318056 9.14808497 -41.16323004 8.82370061 -46 8 C-46 7.67 -46 7.34 -46 7 C-44.69349487 6.97812622 -44.69349487 6.97812622 -43.3605957 6.95581055 C-40.06315882 6.89398224 -36.76645277 6.81970112 -33.46948242 6.73754883 C-32.05487268 6.7047254 -30.6401453 6.67656804 -29.2253418 6.65356445 C-20.04808407 6.50044727 -10.69382784 6.26179955 -2 3 C-1.34 2.01 -0.68 1.02 0 0 Z " fill="#CB221E" transform="translate(112,146)"/>
<path d="M0 0 C14.81061766 0.22256393 26.03410917 3.42366124 37 14 C40.33629063 17.74398399 43.01725775 21.00899441 44 26 C40.40762667 24.80254222 40.212172 24.04439029 38.375 20.875 C35.4839768 16.2975466 32.16952265 13.4896173 27.7578125 10.41015625 C26.88769531 9.71212891 26.88769531 9.71212891 26 9 C26 8.34 26 7.68 26 7 C24.35 7 22.7 7 21 7 C21 6.34 21 5.68 21 5 C19.68 5 18.36 5 17 5 C17 4.34 17 3.68 17 3 C16.27554687 3.02320313 15.55109375 3.04640625 14.8046875 3.0703125 C9.45421756 3.17018794 5.00553918 3.16455748 0 1 C0 0.67 0 0.34 0 0 Z " fill="#CE1D1B" transform="translate(386,44)"/>
<path d="M0 0 C2.0625 0.4375 2.0625 0.4375 4 1 C2.29410091 2.10792378 0.5851565 3.21115921 -1.125 4.3125 C-2.07632813 4.92738281 -3.02765625 5.54226562 -4.0078125 6.17578125 C-9.55071175 9.55506839 -14.52956028 11.61374508 -20.9375 12.6875 C-21.67315186 12.81342529 -22.40880371 12.93935059 -23.16674805 13.0690918 C-41.6428364 15.99303721 -41.6428364 15.99303721 -49 12 C-48.351521 11.9906543 -47.70304199 11.98130859 -47.03491211 11.97167969 C-24.38009692 11.80897938 -24.38009692 11.80897938 -4 3 C-3.34 3 -2.68 3 -2 3 C-1.67 2.34 -1.34 1.68 -1 1 C-0.67 0.67 -0.34 0.34 0 0 Z " fill="#C8211E" transform="translate(540,141)"/>
<path d="M0 0 C0.66 0 1.32 0 2 0 C2.0246501 5.10863896 2.04283607 10.21724359 2.05493164 15.32592773 C2.05997204 17.06519168 2.0668043 18.80445136 2.07543945 20.54370117 C2.08751792 23.03825937 2.09323108 25.53276173 2.09765625 28.02734375 C2.10281754 28.80963852 2.10797882 29.59193329 2.11329651 30.39793396 C2.11349226 32.26567114 2.06199694 34.13329204 2 36 C1.505 36.495 1.505 36.495 1 37 C0.76518307 39.18292774 0.58636677 41.37203174 0.4375 43.5625 C0.35371094 44.76003906 0.26992188 45.95757812 0.18359375 47.19140625 C0.12300781 48.11824219 0.06242188 49.04507813 0 50 C-0.33 50 -0.66 50 -1 50 C-1.02538248 43.68287007 -1.04288057 37.36575332 -1.05493164 31.04858398 C-1.05995629 28.90014148 -1.06677708 26.7517024 -1.07543945 24.60327148 C-1.08758678 21.5128495 -1.09324705 18.42247278 -1.09765625 15.33203125 C-1.10281754 14.37351761 -1.10797882 13.41500397 -1.11329651 12.42744446 C-1.11337204 11.52688828 -1.11344757 10.62633209 -1.11352539 9.69848633 C-1.11685631 8.51601067 -1.11685631 8.51601067 -1.12025452 7.30964661 C-0.98936816 4.79580145 -0.54820896 2.45389823 0 0 Z " fill="#DA1F1D" transform="translate(691,70)"/>
<path d="M0 0 C3.25 -0.3125 3.25 -0.3125 7 0 C9.0625 2.3125 9.0625 2.3125 11 5 C14.11662908 6.80979141 14.11662908 6.80979141 17 8 C14.39417629 8.93065133 13.35801776 9.14917407 10.75 8.0625 C10.1725 7.711875 9.595 7.36125 9 7 C9 6.34 9 5.68 9 5 C8.01 5.495 8.01 5.495 7 6 C6.80181717 12.70518586 6.69155199 18.65176798 9 25 C3.4714159 20.22531374 3.50463998 13.83919971 3 7 C2.01 7 1.02 7 0 7 C0 4.69 0 2.38 0 0 Z M4 2 C5 5 5 5 5 5 Z " fill="#C62020" transform="translate(469,120)"/>
<path d="M0 0 C1.61907515 4.85722544 -1.11369441 8.32033128 -3.2578125 12.76171875 C-6.91786318 19.56481744 -10.97831977 23.74922211 -18 27 C-19.32 27 -20.64 27 -22 27 C-22 26.34 -22 25.68 -22 25 C-20.35 24.67 -18.7 24.34 -17 24 C-17 23.01 -17 22.02 -17 21 C-16.34 21 -15.68 21 -15 21 C-14.67 20.34 -14.34 19.68 -14 19 C-14 19.66 -14 20.32 -14 21 C-13.01 20.67 -12.02 20.34 -11 20 C-10.31060191 17.67328146 -9.64533078 15.33932406 -9 13 C-7.4375 11.25 -7.4375 11.25 -6 10 C-5.67 9.01 -5.34 8.02 -5 7 C-4.34 7 -3.68 7 -3 7 C-2.87625 6.401875 -2.7525 5.80375 -2.625 5.1875 C-2 3 -2 3 0 0 Z " fill="#D4201E" transform="translate(755,126)"/>
<path d="M0 0 C1.65 0 3.3 0 5 0 C5 1.98 5 3.96 5 6 C5.66 6.33 6.32 6.66 7 7 C7.226875 7.845625 7.45375 8.69125 7.6875 9.5625 C11.10391312 18.51024864 19.3111709 23.87411394 27 29 C26.67 29.99 26.34 30.98 26 32 C23.56365024 30.0778798 21.13821377 28.14450411 18.7265625 26.19140625 C17.11915471 24.89949254 15.49501963 23.62718958 13.8359375 22.40234375 C7.30597625 17.31625839 3.49076547 10.39002477 0 3 C0 2.01 0 1.02 0 0 Z " fill="#CB1F1F" transform="translate(159,116)"/>
<path d="M0 0 C1.32 0.33 2.64 0.66 4 1 C4 1.66 4 2.32 4 3 C4.66 3 5.32 3 6 3 C6.82011312 4.55851755 7.63076213 6.12201716 8.4375 7.6875 C8.88996094 8.55761719 9.34242188 9.42773438 9.80859375 10.32421875 C12.81573632 17.07796517 12.78216517 24.7441699 12 32 C10.64829749 34.98697897 9.28912953 36.59641399 7 39 C6 37 6 37 6.55859375 35.15234375 C6.84863281 34.42144531 7.13867188 33.69054687 7.4375 32.9375 C10.3148486 24.63694598 9.42109802 17.04521952 6 9 C4.17110939 5.86342934 2.17101643 2.90874046 0 0 Z " fill="#D51D1B" transform="translate(531,77)"/>
<path d="M0 0 C0.99 0.33 1.98 0.66 3 1 C2.31164062 1.80050781 2.31164062 1.80050781 1.609375 2.6171875 C-2.90470993 8.09857634 -5.85013394 13.23710476 -8 20 C-8.22558594 20.68320312 -8.45117188 21.36640625 -8.68359375 22.0703125 C-10.73617662 29.51623379 -10.16898586 37.34869566 -10 45 C-10.66 44.67 -11.32 44.34 -12 44 C-11.99214478 43.06933716 -11.99214478 43.06933716 -11.98413086 42.11987305 C-11.96334534 39.30909233 -11.95033483 36.49832779 -11.9375 33.6875 C-11.92912109 32.71103516 -11.92074219 31.73457031 -11.91210938 30.72851562 C-11.90888672 29.79072266 -11.90566406 28.85292969 -11.90234375 27.88671875 C-11.89710693 27.02264404 -11.89187012 26.15856934 -11.88647461 25.26831055 C-11.90664477 22.83271286 -11.90664477 22.83271286 -13 20 C-12.34 20 -11.68 20 -11 20 C-10.89300781 19.45214844 -10.78601563 18.90429688 -10.67578125 18.33984375 C-8.76301122 11.71701573 -4.57321563 5.10089436 0 0 Z " fill="#CE1F1C" transform="translate(33,43)"/>
<path d="M0 0 C0.33 0.66 0.66 1.32 1 2 C1.57443848 2.01458252 2.14887695 2.02916504 2.74072266 2.04418945 C5.36945696 2.11913725 7.99698552 2.21563994 10.625 2.3125 C11.98044922 2.34633789 11.98044922 2.34633789 13.36328125 2.38085938 C19.5742631 2.63020536 24.41370044 3.33027142 28.9375 8 C29.288125 8.66 29.63875 9.32 30 10 C29.67 10.99 29.34 11.98 29 13 C27.5 11.625 27.5 11.625 26 10 C26 9.34 26 8.68 26 8 C18.69594142 5.03889517 11.30815874 3.2221881 3.5390625 5.82421875 C0.51625697 7.33562152 -2.18736975 9.12491317 -5 11 C-5 9.35 -5 7.7 -5 6 C-3.68 6 -2.36 6 -1 6 C-1.33 4.68 -1.66 3.36 -2 2 C-1.34 2 -0.68 2 0 2 C0 1.34 0 0.68 0 0 Z " fill="#CC201E" transform="translate(379,64)"/>
<path d="M0 0 C0.66 0.33 1.32 0.66 2 1 C1.34 1.598125 0.68 2.19625 0 2.8125 C-2.3373846 4.87501834 -2.3373846 4.87501834 -2 8 C-2.7734375 8.17015625 -3.546875 8.3403125 -4.34375 8.515625 C-15.05792285 10.92849479 -15.05792285 10.92849479 -24 17 C-24 16.34 -24 15.68 -24 15 C-25.98 15.33 -27.96 15.66 -30 16 C-30.33 15.34 -30.66 14.68 -31 14 C-30.319375 13.87625 -29.63875 13.7525 -28.9375 13.625 C-22.299429 12.21264447 -16.47513498 10.02707314 -10.4375 7 C-9.74720703 6.65582031 -9.05691406 6.31164062 -8.34570312 5.95703125 C-5.15257373 4.30835317 -2.31464971 2.7950487 0 0 Z " fill="#CD231F" transform="translate(124,118)"/>
<path d="M0 0 C0.99 0.495 0.99 0.495 2 1 C2.33333333 2.33333333 2.66666667 3.66666667 3 5 C3.66 5.33 4.32 5.66 5 6 C5.33 4.35 5.66 2.7 6 1 C7 4 7 4 6 7 C5.34 7 4.68 7 4 7 C4.44876616 8.64846769 4.90930488 10.29373455 5.375 11.9375 C5.63023437 12.85402344 5.88546875 13.77054688 6.1484375 14.71484375 C6.76660104 17.16745087 6.76660104 17.16745087 9 18 C9.67561748 19.6630584 10.33933281 21.33094605 11 23 C12.32701758 25.35688093 13.68837063 27.68895923 15.07421875 30.01171875 C15.37972656 30.66785156 15.68523438 31.32398437 16 32 C15.67 32.66 15.34 33.32 15 34 C14.34 32.35 13.68 30.7 13 29 C12.34 29 11.68 29 11 29 C0 7.94061758 0 7.94061758 0 0 Z " fill="#D4231E" transform="translate(1,91)"/>
<path d="M0 0 C0.66 0.33 1.32 0.66 2 1 C1.52949219 1.46148437 1.05898438 1.92296875 0.57421875 2.3984375 C-0.04839844 3.05070312 -0.67101562 3.70296875 -1.3125 4.375 C-1.92738281 5.00148438 -2.54226563 5.62796875 -3.17578125 6.2734375 C-8.67180388 14.48804948 -8.51508669 24.05852439 -8.6875 33.625 C-8.72166016 34.91535156 -8.75582031 36.20570312 -8.79101562 37.53515625 C-8.87280832 40.69001717 -8.94218232 43.8446241 -9 47 C-9.33 47 -9.66 47 -10 47 C-10.07445407 42.26777545 -10.1287447 37.53589589 -10.16479492 32.80322266 C-10.17983176 31.19508928 -10.20026672 29.58699656 -10.22631836 27.97900391 C-10.26292822 25.66037936 -10.27977722 23.34229951 -10.29296875 21.0234375 C-10.30845261 20.31069672 -10.32393646 19.59795593 -10.33988953 18.86361694 C-10.34146268 14.14086827 -9.38188543 11.05215782 -7 7 C-6.608125 6.21625 -6.21625 5.4325 -5.8125 4.625 C-5.544375 4.08875 -5.27625 3.5525 -5 3 C-4.34 3 -3.68 3 -3 3 C-3 2.34 -3 1.68 -3 1 C-2.01 0.67 -1.02 0.34 0 0 Z " fill="#CD231F" transform="translate(477,75)"/>
<path d="M0 0 C4.62675657 1.3922459 8.64686231 3.29520984 12.875 5.625 C14.02742187 6.25664062 15.17984375 6.88828125 16.3671875 7.5390625 C17.67042969 8.26222656 17.67042969 8.26222656 19 9 C19 9.66 19 10.32 19 11 C19.556875 11.226875 20.11375 11.45375 20.6875 11.6875 C23.63246684 13.35896766 25.68156544 15.55276352 28 18 C24.37 17.01 20.74 16.02 17 15 C17 14.01 17 13.02 17 12 C12.06451949 7.61290622 6.20676437 5.0313047 0 3 C0 2.01 0 1.02 0 0 Z " fill="#CE1E1C" transform="translate(116,7)"/>
<path d="M0 0 C0.66 0 1.32 0 2 0 C2 0.99 2 1.98 2 3 C2.66 3.33 3.32 3.66 4 4 C3.34 4 2.68 4 2 4 C2.08378906 4.97582031 2.16757812 5.95164062 2.25390625 6.95703125 C2.35574219 8.22933594 2.45757813 9.50164063 2.5625 10.8125 C2.66691406 12.07707031 2.77132812 13.34164062 2.87890625 14.64453125 C3 18 3 18 2 21 C1.96079185 22.99961564 1.95556653 25.00049364 2 27 C1.34 27 0.68 27 0 27 C-2.66666667 8 -2.66666667 8 0 0 Z " fill="#DC201E" transform="translate(691,42)"/>
<path d="M0 0 C0.33 0 0.66 0 1 0 C1.90684316 7.49764971 2.08461525 14.88386469 1.96289062 22.42358398 C1.94090649 24.28230048 1.96613143 26.14146208 2 28 C2.33 28.33 2.66 28.66 3 29 C3.07271741 31.35313555 3.08370868 33.70833668 3.0625 36.0625 C3.05347656 37.35285156 3.04445313 38.64320313 3.03515625 39.97265625 C3.02355469 40.97167969 3.01195312 41.97070312 3 43 C2.67 41.68 2.34 40.36 2 39 C1.34 39 0.68 39 0 39 C0 26.13 0 13.26 0 0 Z " fill="#D71310" transform="translate(432,107)"/>
<path d="M0 0 C-2.6298915 1.01149673 -3.80172301 1.06939695 -6.5 0.125 C-14.80422665 -2.54421571 -23.45249148 -2.22917711 -32 -1 C-32 -0.67 -32 -0.34 -32 0 C-34.31 0 -36.62 0 -39 0 C-27.64874867 -7.56750089 -11.67656062 -5.70854075 0 0 Z " fill="#C7211E" transform="translate(347,49)"/>
<path d="M0 0 C0.33 0 0.66 0 1 0 C2.36045184 15.76666502 2.01139605 31.23305806 1 47 C-0.82094347 43.87909144 -1.24758202 41.62414974 -1.23046875 38.02734375 C-1.22917969 37.05345703 -1.22789062 36.07957031 -1.2265625 35.07617188 C-1.21367188 34.04041016 -1.20078125 33.00464844 -1.1875 31.9375 C-1.18105469 30.87724609 -1.17460938 29.81699219 -1.16796875 28.72460938 C-1.0760075 19.13190161 -0.63203562 9.57082509 0 0 Z " fill="#E01814" transform="translate(712,106)"/>
<path d="M0 0 C0.33 0 0.66 0 1 0 C1 1.98 1 3.96 1 6 C0.34 6 -0.32 6 -1 6 C-1.02934711 9.49998201 -1.04691445 12.99993179 -1.0625 16.5 C-1.07087891 17.48226562 -1.07925781 18.46453125 -1.08789062 19.4765625 C-1.10659124 25.08674757 -0.838879 30.45150899 0 36 C-0.99 36.495 -0.99 36.495 -2 37 C-4.63224863 24.42631236 -5.24423263 12.0749558 0 0 Z " fill="#CB201B" transform="translate(160,79)"/>
<path d="M0 0 C7.78815107 3.0828098 14.26241217 6.79720234 20 13 C20.928125 13.886875 21.85625 14.77375 22.8125 15.6875 C25 18 25 18 25 20 C22.23977642 18.91562645 21.0146221 18.01916 19.1875 15.625 C16.43146923 12.31776308 13.7724455 11.05769754 10 9 C9.505 8.484375 9.01 7.96875 8.5 7.4375 C6.07413437 5.11271211 3.10541862 4.23044889 0 3 C0 2.01 0 1.02 0 0 Z " fill="#D4201C" transform="translate(528,49)"/>
<path d="M0 0 C1.010625 0.28875 2.02125 0.5775 3.0625 0.875 C3.0625 1.865 3.0625 2.855 3.0625 3.875 C1.86625 3.730625 0.67 3.58625 -0.5625 3.4375 C-3.35731698 3.4128108 -4.5213145 3.51625187 -6.6640625 5.36328125 C-7.65646335 6.59233154 -8.61008915 7.85405391 -9.515625 9.1484375 C-11.13992823 11.1208057 -12.67356755 11.75937143 -14.9375 12.875 C-15.62503301 14.53316784 -16.29311283 16.19959336 -16.9375 17.875 C-17.9275 18.205 -18.9175 18.535 -19.9375 18.875 C-18.41059134 13.44599143 -14.74678567 9.84654734 -10.9375 5.875 C-10.35355469 5.25367188 -9.76960938 4.63234375 -9.16796875 3.9921875 C-5.86625188 0.78736074 -4.79210102 -0.15213019 0 0 Z " fill="#D5231C" transform="translate(306.9375,51.125)"/>
<path d="M0 0 C0.66 0.33 1.32 0.66 2 1 C0.1875 3 0.1875 3 -2 5 C-2.99 5 -3.98 5 -5 5 C-5 5.66 -5 6.32 -5 7 C-11.11628115 8.83768998 -16.16145766 9.14116794 -22.5 8.625 C-23.32242187 8.56828125 -24.14484375 8.5115625 -24.9921875 8.453125 C-26.99560966 8.31335136 -28.99795503 8.15828133 -31 8 C-31.33 7.34 -31.66 6.68 -32 6 C-31.20078125 6.02320313 -30.4015625 6.04640625 -29.578125 6.0703125 C-18.72969877 6.24857302 -9.30959864 5.86909479 0 0 Z " fill="#CC2521" transform="translate(526,125)"/>
<path d="M0 0 C0 0.66 0 1.32 0 2 C-0.93972656 2.30744141 -0.93972656 2.30744141 -1.8984375 2.62109375 C-2.71570313 2.89050781 -3.53296875 3.15992188 -4.375 3.4375 C-5.18710938 3.70433594 -5.99921875 3.97117188 -6.8359375 4.24609375 C-9.01031799 4.95179729 -9.01031799 4.95179729 -11 6 C-13.49457129 6.27379441 -15.98892067 6.44549145 -18.4921875 6.62109375 C-21.06013564 7.00908591 -22.71506674 7.81960917 -25 9 C-28.25 9.125 -28.25 9.125 -31 9 C-24.84348981 2.84348981 -8.63984799 0 0 0 Z " fill="#D51E17" transform="translate(77,0)"/>
<path d="M0 0 C0.66 0.33 1.32 0.66 2 1 C1.97679687 1.97839844 1.95359375 2.95679687 1.9296875 3.96484375 C1.45407571 17.29226992 1.45407571 17.29226992 7 29 C6.67 29.99 6.34 30.98 6 32 C-0.47615972 23.37335976 -1.85236272 13.62480037 -1 3 C-0.67 2.01 -0.34 1.02 0 0 Z " fill="#CF1E1B" transform="translate(593,117)"/>
<path d="M0 0 C1.65 0 3.3 0 5 0 C1.6955833 9.61284857 -3.89077696 15.07947988 -12 21 C-12.66 20.67 -13.32 20.34 -14 20 C-12.71034824 18.62437146 -11.37310707 17.29233607 -10 16 C-9.34 16 -8.68 16 -8 16 C-7.71125 15.360625 -7.4225 14.72125 -7.125 14.0625 C-6 12 -6 12 -4 11 C-3.67 10.01 -3.34 9.02 -3 8 C-2.34 8 -1.68 8 -1 8 C-1.33 6.68 -1.66 5.36 -2 4 C-1.01 4.33 -0.02 4.66 1 5 C0.67 3.35 0.34 1.7 0 0 Z " fill="#D61E1C" transform="translate(268,122)"/>
<path d="M0 0 C0.66 0 1.32 0 2 0 C2.5775 1.11375 3.155 2.2275 3.75 3.375 C4.99889338 5.52901472 5.84972812 6.88081885 7.8125 8.4375 C12.04461264 9.52575754 15.87732889 9.3742237 20 8 C20 9.65 20 11.3 20 13 C11.6547092 13.9067318 11.6547092 13.9067318 7.8828125 11.83984375 C4.51680122 9.01557248 1.89203603 6.00666453 0 2 C0 1.34 0 0.68 0 0 Z " fill="#DD201C" transform="translate(349,140)"/>
<path d="M0 0 C0.66 0 1.32 0 2 0 C1.68406136 0.80696571 1.68406136 0.80696571 1.36174011 1.63023376 C-0.75428298 7.41391607 -1.46442939 12.49750039 -1.51171875 18.62890625 C-1.53864555 19.94156715 -1.53864555 19.94156715 -1.56611633 21.28074646 C-1.61975302 24.04128377 -1.65396354 26.80165295 -1.6875 29.5625 C-1.72071438 31.44859088 -1.75520778 33.3346597 -1.79101562 35.22070312 C-1.87545188 39.81367976 -1.94248333 44.4066106 -2 49 C-2.33 49 -2.66 49 -3 49 C-3.19330021 43.85920774 -3.3718502 38.71818624 -3.53710938 33.57641602 C-3.5952903 31.82953365 -3.65740806 30.08277756 -3.72363281 28.33618164 C-3.81845972 25.81680314 -3.8988348 23.29730091 -3.9765625 20.77734375 C-4.00875885 20.00414291 -4.0409552 19.23094208 -4.0741272 18.43431091 C-4.25651343 11.74133716 -2.61167416 6.15608908 0 0 Z " fill="#D3231E" transform="translate(308,75)"/>
<path d="M0 0 C0.33 0.66 0.66 1.32 1 2 C0.43079834 2.10022461 -0.13840332 2.20044922 -0.72485352 2.30371094 C-3.34004855 2.77219921 -5.95107919 3.26092888 -8.5625 3.75 C-9.90538086 3.98589844 -9.90538086 3.98589844 -11.27539062 4.2265625 C-16.97911016 5.31298527 -21.08528912 6.92588386 -26 10 C-26.66 10 -27.32 10 -28 10 C-28 9.34 -28 8.68 -28 8 C-24.32547562 5.1605948 -22.73113419 4 -18 4 C-18 3.34 -18 2.68 -18 2 C-16.12612523 1.6603981 -14.25083303 1.32861309 -12.375 1 C-11.33085937 0.814375 -10.28671875 0.62875 -9.2109375 0.4375 C-6.09425135 0.01284203 -3.14069188 -0.07545206 0 0 Z " fill="#CF1F1D" transform="translate(507,65)"/>
<path d="M0 0 C-0.33 0.99 -0.66 1.98 -1 3 C-1.66 3 -2.32 3 -3 3 C-3.33 3.66 -3.66 4.32 -4 5 C-5.99145391 6.01691264 -7.99187074 7.01642648 -10 8 C-10.66 8.66 -11.32 9.32 -12 10 C-12.99 10 -13.98 10 -15 10 C-15 10.66 -15 11.32 -15 12 C-16.64453125 13.5078125 -16.64453125 13.5078125 -18.8125 15.125 C-19.52019531 15.66382813 -20.22789063 16.20265625 -20.95703125 16.7578125 C-23 18 -23 18 -26 18 C-8.46685879 0 -8.46685879 0 0 0 Z " fill="#CF1E1B" transform="translate(46,9)"/>
<path d="M0 0 C0.33 0 0.66 0 1 0 C0.68800935 4.44586673 0.38646425 7.75799178 -2 11.5625 C-4.12829175 15.22050145 -4.44348846 17.86591428 -5 22 C-6.5625 23.9375 -6.5625 23.9375 -8 25 C-8.99 24.67 -9.98 24.34 -11 24 C-7.37 16.08 -3.74 8.16 0 0 Z " fill="#D0211E" transform="translate(732,123)"/>
<path d="M0 0 C0.67546875 0.20496094 1.3509375 0.40992187 2.046875 0.62109375 C2.93890625 0.89050781 3.8309375 1.15992188 4.75 1.4375 C5.63171875 1.70433594 6.5134375 1.97117188 7.421875 2.24609375 C8.27265625 2.49488281 9.1234375 2.74367187 10 3 C10.62003906 3.19335938 11.24007812 3.38671875 11.87890625 3.5859375 C20.37993263 5.24543804 29.74072616 4.31839266 38 2 C35.8634391 4.55715872 34.6801014 5.87549202 31.34619141 6.48583984 C30.35796387 6.47762207 29.36973633 6.4694043 28.3515625 6.4609375 C27.26359375 6.45707031 26.175625 6.45320312 25.0546875 6.44921875 C23.35699219 6.41248047 23.35699219 6.41248047 21.625 6.375 C20.5009375 6.37371094 19.376875 6.37242187 18.21875 6.37109375 C12.80259226 6.31347505 8.04042108 6.2263344 3 4 C3 3.34 3 2.68 3 2 C2.01 2 1.02 2 0 2 C0 1.34 0 0.68 0 0 Z " fill="#C82521" transform="translate(196,127)"/>
<path d="M0 0 C0.66 0 1.32 0 2 0 C4.4680385 3.76546586 4.26312594 7.53645902 4.1875 11.875 C4.18685547 12.56980469 4.18621094 13.26460937 4.18554688 13.98046875 C4.15077526 18.08351936 3.78859955 21.97498789 3 26 C2.01 26.33 1.02 26.66 0 27 C0.165 25.783125 0.33 24.56625 0.5 23.3125 C1.35514203 15.60400545 1.77149539 7.59212308 0 0 Z " fill="#C7221E" transform="translate(253,88)"/>
<path d="M0 0 C0.89486468 2.46647079 1.11463103 3.66625654 0.25 6.18359375 C-2.79184996 11.66842946 -5.5631936 14.81998116 -11 18 C-11.66 18 -12.32 18 -13 18 C-13 17.34 -13 16.68 -13 16 C-12.34 15.67 -11.68 15.34 -11 15 C-11 14.34 -11 13.68 -11 13 C-9.68 12.34 -8.36 11.68 -7 11 C-7.33 9.35 -7.66 7.7 -8 6 C-6.02 6 -4.04 6 -2 6 C-2 4.68 -2 3.36 -2 2 C-1.34 2 -0.68 2 0 2 C0 1.34 0 0.68 0 0 Z " fill="#D12421" transform="translate(305,135)"/>
<path d="M0 0 C0.66 0 1.32 0 2 0 C2.6875 1.8125 2.6875 1.8125 3 4 C2.55269531 4.41636719 2.10539063 4.83273438 1.64453125 5.26171875 C-0.58092888 7.61404597 -1.09094632 9.9092175 -2 13 C-3.98113208 19.73584906 -3.98113208 19.73584906 -7 22 C-7.66 22 -8.32 22 -9 22 C-7.44140281 16.92626872 -5.79103786 12.53543652 -3 8 C-1.91271443 5.35874008 -0.95830523 2.69238137 0 0 Z " fill="#CB201B" transform="translate(752,78)"/>
<path d="M0 0 C0.66 0 1.32 0 2 0 C0.1668733 5.99932374 -2.07321751 11.44920563 -5 17 C-5.99 16.34 -6.98 15.68 -8 15 C-8.99 14.67 -9.98 14.34 -11 14 C-10.34 13.67 -9.68 13.34 -9 13 C-7.86649466 10.98330173 -7.86649466 10.98330173 -7 9 C-5.68 9 -4.36 9 -3 9 C-3 7.35 -3 5.7 -3 4 C-2.34 4 -1.68 4 -1 4 C-0.67 2.68 -0.34 1.36 0 0 Z " fill="#E8211D" transform="translate(781,67)"/>
<path d="M0 0 C10 2 10 2 12.3125 2.5625 C15.98050773 3.15961754 19.60882639 3.10552749 23.3125 3.0625 C24.42334961 3.05573242 24.42334961 3.05573242 25.55664062 3.04882812 C27.37112899 3.03712175 29.18557534 3.01918898 31 3 C30.67 3.99 30.34 4.98 30 6 C7.07101454 6.71819328 7.07101454 6.71819328 1.2421875 1.39453125 C0.83226562 0.93433594 0.42234375 0.47414062 0 0 Z " fill="#C32321" transform="translate(59,129)"/>
<path d="M0 0 C0.66 0 1.32 0 2 0 C2 0.99 2 1.98 2 3 C2.66 3 3.32 3 4 3 C7.06802099 8.62470514 8.89061647 13.69403048 10 20 C10.66 20 11.32 20 12 20 C12.33 22.31 12.66 24.62 13 27 C9.71892175 25.35946087 8.99156058 21.80684719 7.625 18.5625 C7.31554443 17.84126953 7.00608887 17.12003906 6.68725586 16.37695312 C4.37098543 10.953136 2.12873699 5.50033905 0 0 Z " fill="#D1201E" transform="translate(839,116)"/>
<path d="M0 0 C1.15242188 0.00902344 2.30484375 0.01804688 3.4921875 0.02734375 C4.36101562 0.03894531 5.22984375 0.05054688 6.125 0.0625 C6.125 0.7225 6.125 1.3825 6.125 2.0625 C0.92326905 2.93059439 -4.04478816 3.18765348 -9.3125 3.125 C-10.04404297 3.12048828 -10.77558594 3.11597656 -11.52929688 3.11132812 C-13.31123419 3.09968148 -15.09312863 3.08175191 -16.875 3.0625 C-11.53365566 -0.01904481 -6.04022796 -0.06163498 0 0 Z " fill="#D31D17" transform="translate(503.875,43.9375)"/>
<path d="M0 0 C0.70125 0.45890625 1.4025 0.9178125 2.125 1.390625 C7.62549521 4.94801049 13.07504446 8.20520965 19 11 C15.37972938 12.20675687 14.1783904 11.38408938 10.83984375 9.82421875 C8.80394487 8.86711684 8.80394487 8.86711684 5.75 8 C2.99405511 6.99783822 1.84238056 6.21085667 0 4 C-0.66 3.34 -1.32 2.68 -2 2 C-1.34 2 -0.68 2 0 2 C0 1.34 0 0.68 0 0 Z " fill="#CD2523" transform="translate(40,117)"/>
<path d="M0 0 C5.19591612 0.44033187 8.66335081 0.88303339 13 4 C9.5647952 6.29013653 8.014669 6.17842973 4 6 C4 5.34 4 4.68 4 4 C2.68 4 1.36 4 0 4 C0 2.68 0 1.36 0 0 Z " fill="#D5211D" transform="translate(691,2)"/>
<path d="M0 0 C0.33 1.32 0.66 2.64 1 4 C1.66 4 2.32 4 3 4 C3 5.65 3 7.3 3 9 C3.66 9 4.32 9 5 9 C5 9.66 5 10.32 5 11 C5.99 11 6.98 11 8 11 C8 11.66 8 12.32 8 13 C5.36 13 2.72 13 0 13 C-0.19397476 11.02145742 -0.38001321 9.0421352 -0.5625 7.0625 C-0.66691406 5.96035156 -0.77132813 4.85820312 -0.87890625 3.72265625 C-0.91886719 2.82417969 -0.95882813 1.92570313 -1 1 C-0.67 0.67 -0.34 0.34 0 0 Z " fill="#D92A24" transform="translate(445,179)"/>
<path d="M0 0 C0.66 0.99 1.32 1.98 2 3 C1.67 3.66 1.34 4.32 1 5 C4.96 5 8.92 5 13 5 C13 5.33 13 5.66 13 6 C12.09636719 6.13277344 11.19273437 6.26554688 10.26171875 6.40234375 C8.49248047 6.66724609 8.49248047 6.66724609 6.6875 6.9375 C4.92986328 7.19853516 4.92986328 7.19853516 3.13671875 7.46484375 C-0.01641403 7.92093031 -0.01641403 7.92093031 -3 9 C-3.33 6.69 -3.66 4.38 -4 2 C-3.01 2.33 -2.02 2.66 -1 3 C-0.67 2.01 -0.34 1.02 0 0 Z " fill="#C91D1B" transform="translate(720,148)"/>
<path d="M0 0 C0.66 0 1.32 0 2 0 C3.0625 1.75 3.0625 1.75 4 4 C3.67 5.32 3.34 6.64 3 8 C-3.93 7.505 -3.93 7.505 -11 7 C-10.67 6.34 -10.34 5.68 -10 5 C-8.88625 5.020625 -7.7725 5.04125 -6.625 5.0625 C-3.16784079 5.26380718 -3.16784079 5.26380718 -1 4 C-0.34786708 1.97536745 -0.34786708 1.97536745 0 0 Z " fill="#D01F1D" transform="translate(827,88)"/>
<path d="M0 0 C0.33 0 0.66 0 1 0 C1.46909786 10.88046418 1.00272711 19.72514247 -3 30 C-3.33 30 -3.66 30 -4 30 C-4.27676886 26.30974852 -4.02769666 24.06502695 -2.5625 20.625 C0.11174398 14.19167723 -0.24167267 6.86683729 0 0 Z " fill="#C8211D" transform="translate(277,92)"/>
<path d="M0 0 C0.33 0 0.66 0 1 0 C0.60146484 4.88205566 -0.30328076 7.98297136 -2.953125 12.2265625 C-4.03720275 14.06302257 -4.83368392 15.89670979 -5.625 17.875 C-7 21 -7 21 -9 22 C-6.66062389 14.33204498 -3.45231194 7.22862726 0 0 Z " fill="#CA201D" transform="translate(742,101)"/>
<path d="M0 0 C2 0 2 0 4 1.9375 C4.99 2.9584375 4.99 2.9584375 6 4 C6.66 4.33 7.32 4.66 8 5 C8 5.66 8 6.32 8 7 C11.3 7.66 14.6 8.32 18 9 C18.33 8.01 18.66 7.02 19 6 C19 7.65 19 9.3 19 11 C12.0447187 10.74708068 7.24458263 8.64613441 2 4 C0.7421875 1.80078125 0.7421875 1.80078125 0 0 Z " fill="#CD2021" transform="translate(415,144)"/>
<path d="M0 0 C0.33 0.99 0.66 1.98 1 3 C-0.98 3.99 -0.98 3.99 -3 5 C-3 5.66 -3 6.32 -3 7 C-2.34 7.33 -1.68 7.66 -1 8 C-2.32 8 -3.64 8 -5 8 C-4.67 8.99 -4.34 9.98 -4 11 C-4.9590625 11.61875 -4.9590625 11.61875 -5.9375 12.25 C-8.20990931 14.17810487 -8.60196439 15.11424181 -9 18 C-9.66 18 -10.32 18 -11 18 C-9.22615033 11.08198629 -5.1902041 4.88034116 0 0 Z " fill="#D41D1C" transform="translate(460,62)"/>
<path d="M0 0 C0.66 0 1.32 0 2 0 C2 1.32 2 2.64 2 4 C2.99 4 3.98 4 5 4 C8.42857143 12.42857143 8.42857143 12.42857143 8 17 C5.15676575 14.53197261 3.84119176 11.91545546 2.3125 8.5 C1.87550781 7.5409375 1.43851563 6.581875 0.98828125 5.59375 C0 3 0 3 0 0 Z " fill="#D1231D" transform="translate(801,31)"/>
<path d="M0 0 C2.0625 0.4375 2.0625 0.4375 4 1 C3.835 2.11375 3.67 3.2275 3.5 4.375 C2.9544542 7.72032033 2.9544542 7.72032033 3 10 C2.34 10 1.68 10 1 10 C0.67 10.66 0.34 11.32 0 12 C-1.95143115 9.13024831 -1.98930952 7.87385237 -1.6875 4.3125 C-1 1 -1 1 0 0 Z " fill="#C9221F" transform="translate(878,130)"/>
<path d="M0 0 C0 0.66 0 1.32 0 2 C-8.39615385 5.27307692 -8.39615385 5.27307692 -13 6 C-14.093125 6.185625 -15.18625 6.37125 -16.3125 6.5625 C-17.199375 6.706875 -18.08625 6.85125 -19 7 C-14.35120609 1.83146516 -6.79010883 0 0 0 Z " fill="#CD211E" transform="translate(386,45)"/>
<path d="M0 0 C3.55523589 0.60946901 6.74718795 1.41755089 10 3 C10.99 4.485 10.99 4.485 12 6 C12.66 6 13.32 6 14 6 C14 7.32 14 8.64 14 10 C8.03868848 8.65870491 4.19807984 5.25135496 0 1 C0 0.67 0 0.34 0 0 Z " fill="#E4211B" transform="translate(122,35)"/>
<path d="M0 0 C0.66 0 1.32 0 2 0 C3.35439668 2.70879335 3.06501451 5.00933268 3 8 C2.34 8 1.68 8 1 8 C0.34 9.32 -0.32 10.64 -1 12 C-1.99 11.67 -2.98 11.34 -4 11 C-4 10.01 -4 9.02 -4 8 C-2.68 8 -1.36 8 0 8 C0 5.36 0 2.72 0 0 Z " fill="#E51110" transform="translate(883,132)"/>
<path d="M0 0 C0.66 0 1.32 0 2 0 C3.23076923 6.4 3.23076923 6.4 2.0625 9.4375 C1.711875 9.953125 1.36125 10.46875 1 11 C-0.32 10.34 -1.64 9.68 -3 9 C-2.01 8.67 -1.02 8.34 0 8 C-1.32 6.35 -2.64 4.7 -4 3 C-2.68 3 -1.36 3 0 3 C0 2.01 0 1.02 0 0 Z " fill="#E21510" transform="translate(891,127)"/>
<path d="M0 0 C1.65 0 3.3 0 5 0 C5 1.98 5 3.96 5 6 C5.66 6.33 6.32 6.66 7 7 C7.625 10.0625 7.625 10.0625 8 13 C4.35812142 11.78604047 4.08254007 10.90993923 2.3125 7.625 C1.87550781 6.83351563 1.43851563 6.04203125 0.98828125 5.2265625 C0 3 0 3 0 0 Z " fill="#D92121" transform="translate(159,116)"/>
<path d="M0 0 C0.33 0.66 0.66 1.32 1 2 C0.37915039 3.78759766 0.37915039 3.78759766 -0.65234375 5.9140625 C-1.01650391 6.67460938 -1.38066406 7.43515625 -1.75585938 8.21875 C-2.14580078 9.0128125 -2.53574219 9.806875 -2.9375 10.625 C-3.32357422 11.42679688 -3.70964844 12.22859375 -4.10742188 13.0546875 C-5.06461573 15.03997846 -6.02903475 17.02141737 -7 19 C-7.33 19 -7.66 19 -8 19 C-8.125 16.125 -8.125 16.125 -8 13 C-7.34 12.34 -6.68 11.68 -6 11 C-5.3574765 8.93125966 -5.3574765 8.93125966 -5 7 C-4.34 7 -3.68 7 -3 7 C-2.814375 5.5459375 -2.814375 5.5459375 -2.625 4.0625 C-2.41875 3.051875 -2.2125 2.04125 -2 1 C-1.34 0.67 -0.68 0.34 0 0 Z " fill="#D11E1B" transform="translate(795,39)"/>
<path d="M0 0 C3.56695102 3.14822199 5.31721434 6.30063614 7.25 10.625 C7.77078125 11.77226562 8.2915625 12.91953125 8.828125 14.1015625 C10 17 10 17 10 19 C9.34 19 8.68 19 8 19 C7.54625 17.9275 7.0925 16.855 6.625 15.75 C5.03067617 12.03239443 3.2413162 8.46406962 1.375 4.875 C0 2 0 2 0 0 Z " fill="#CA2324" transform="translate(813,9)"/>
<path d="M0 0 C0 0.33 0 0.66 0 1 C-1.65 1 -3.3 1 -5 1 C-5 1.99 -5 2.98 -5 4 C-6.65 4 -8.3 4 -10 4 C-10.33 4.66 -10.66 5.32 -11 6 C-11.598125 5.835 -12.19625 5.67 -12.8125 5.5 C-15.11344336 4.8885876 -15.11344336 4.8885876 -18 5 C-12.72807643 0.36070726 -6.81560969 -0.27818815 0 0 Z " fill="#CD2522" transform="translate(144,112)"/>
<path d="M0 0 C3.59634744 3.49359465 6.83451967 7.11098131 10 11 C8.35 11 6.7 11 5 11 C5 10.01 5 9.02 5 8 C4.21625 7.731875 3.4325 7.46375 2.625 7.1875 C0 6 0 6 -2 3 C-1.34 2.67 -0.68 2.34 0 2 C0 1.34 0 0.68 0 0 Z " fill="#D32221" transform="translate(30,106)"/>
<path d="M0 0 C0.33 0 0.66 0 1 0 C1.06058594 1.05960937 1.12117187 2.11921875 1.18359375 3.2109375 C1.26800127 4.59897221 1.35264917 5.98699232 1.4375 7.375 C1.47681641 8.07367188 1.51613281 8.77234375 1.55664062 9.4921875 C1.74280134 13.37360492 1.74280134 13.37360492 3 17 C2.34 17 1.68 17 1 17 C0.67 17.66 0.34 18.32 0 19 C-1.19825457 15.40523628 -1.14608744 12.11450601 -1.125 8.375 C-1.12886719 7.68148437 -1.13273438 6.98796875 -1.13671875 6.2734375 C-1.12666646 1.12666646 -1.12666646 1.12666646 0 0 Z " fill="#EA1E1A" transform="translate(692,106)"/>
<path d="M0 0 C4.0081803 3.67416528 6.52591615 7.14346504 9 12 C9 12.66 9 13.32 9 14 C6.5625 13.25 6.5625 13.25 4 12 C3.375 10.125 3.375 10.125 3 8 C2.484375 7.34 1.96875 6.68 1.4375 6 C0 4 0 4 0 0 Z " fill="#D42521" transform="translate(264,64)"/>
<path d="M0 0 C0.99 0 1.98 0 3 0 C3 5.61 3 11.22 3 17 C2.34 17 1.68 17 1 17 C0.67 11.39 0.34 5.78 0 0 Z " fill="#CA2725" transform="translate(444,150)"/>
<path d="M0 0 C2.61666628 2.61666628 3.71634007 5.64348017 5.125 9 C5.54072266 9.96292969 5.54072266 9.96292969 5.96484375 10.9453125 C8 15.73745382 8 15.73745382 8 18 C7.34 18 6.68 18 6 18 C5.54625 17.071875 5.0925 16.14375 4.625 15.1875 C3.0578367 11.96078611 3.0578367 11.96078611 1 9 C0.5859375 6.73828125 0.5859375 6.73828125 0.375 4.3125 C0.30023437 3.50425781 0.22546875 2.69601563 0.1484375 1.86328125 C0.09945312 1.24839844 0.05046875 0.63351563 0 0 Z " fill="#CF1F21" transform="translate(857,102)"/>
<path d="M0 0 C0.66 0 1.32 0 2 0 C2 1.98 2 3.96 2 6 C2.66 6 3.32 6 4 6 C4 6.66 4 7.32 4 8 C4.66 8 5.32 8 6 8 C7.49524178 10.2727675 8.78399715 12.5679943 10 15 C5.68679932 13.24277009 2.0968916 10.1937832 0 6 C-0.039992 4.00039988 -0.04346799 1.99952758 0 0 Z " fill="#CC2321" transform="translate(525,6)"/>
<path d="M0 0 C1.93956814 0.255602 3.87665989 0.53004646 5.8125 0.8125 C7.43091797 1.03873047 7.43091797 1.03873047 9.08203125 1.26953125 C12.06440991 2.01612403 13.14223479 2.62075684 15 5 C14.01 5.33 13.02 5.66 12 6 C12 5.34 12 4.68 12 4 C8.7 4 5.4 4 2 4 C1.34 2.68 0.68 1.36 0 0 Z " fill="#DF201C" transform="translate(480,128)"/>
<path d="M0 0 C0.66 0.33 1.32 0.66 2 1 C2.625 4.0625 2.625 4.0625 3 7 C-3.40629424 7.20852314 -8.92972642 7.1583195 -15 5 C-15 4.67 -15 4.34 -15 4 C-10.05 4.33 -5.1 4.66 0 5 C-0.33 4.34 -0.66 3.68 -1 3 C-0.67 2.01 -0.34 1.02 0 0 Z " fill="#C22523" transform="translate(877,147)"/>
<path d="M0 0 C0.33 0 0.66 0 1 0 C1.22181406 2.43695715 1.42791119 4.873526 1.625 7.3125 C1.68945312 8.00279297 1.75390625 8.69308594 1.8203125 9.40429688 C2.11802847 13.2559972 2.20763723 14.68854416 0 18 C-0.98357297 12.34445544 -1.37394574 6.74116691 -1 1 C-0.67 0.67 -0.34 0.34 0 0 Z " fill="#C91F1B" transform="translate(593,89)"/>
<path d="M0 0 C1.72880982 -0.05449838 3.45812712 -0.09301688 5.1875 -0.125 C6.15042969 -0.14820312 7.11335937 -0.17140625 8.10546875 -0.1953125 C11.12812778 0.0086456 13.26769985 0.73125368 16 2 C16 2.66 16 3.32 16 4 C17.32 4.33 18.64 4.66 20 5 C16.35159941 6.21613353 15.65577512 5.6586565 12.25 4.125 C8.07107062 2.34803589 4.50973562 1.39215092 0 1 C0 0.67 0 0.34 0 0 Z " fill="#D41C18" transform="translate(508,67)"/>
<path d="M0 0 C0.33 0 0.66 0 1 0 C2.9333722 12.72962881 2.9333722 12.72962881 -0.4375 17.3125 C-1.7059375 18.6428125 -1.7059375 18.6428125 -3 20 C-4 18 -4 18 -3.4765625 16.15234375 C-3.19554687 15.42144531 -2.91453125 14.69054687 -2.625 13.9375 C-0.96188407 9.25951183 -0.39209548 4.94040304 0 0 Z " fill="#CC2320" transform="translate(541,96)"/>
<path d="M0 0 C2.06547922 3.09821883 3.56243611 6.18449352 5.125 9.5625 C5.66382813 10.71878906 6.20265625 11.87507813 6.7578125 13.06640625 C8 16 8 16 8 18 C7.34 18 6.68 18 6 18 C5.67 16.35 5.34 14.7 5 13 C4.34 13 3.68 13 3 13 C-0.42857143 4.57142857 -0.42857143 4.57142857 0 0 Z " fill="#CC201D" transform="translate(839,62)"/>
<path d="M0 0 C1.65 0.99 3.3 1.98 5 3 C5.33 2.01 5.66 1.02 6 0 C6.99 0 7.98 0 9 0 C8.34 2.31 7.68 4.62 7 7 C4.08482708 5.92598892 2.22189824 5.22189824 0 3 C0 2.01 0 1.02 0 0 Z " fill="#D9201D" transform="translate(355,55)"/>
<path d="M0 0 C-0.75925781 0.48210938 -1.51851562 0.96421875 -2.30078125 1.4609375 C-3.29464844 2.09257813 -4.28851563 2.72421875 -5.3125 3.375 C-6.29863281 4.00148438 -7.28476562 4.62796875 -8.30078125 5.2734375 C-10.21287929 6.49651613 -12.1114034 7.7409356 -14 9 C-13.67 7.35 -13.34 5.7 -13 4 C-11.02 3.67 -9.04 3.34 -7 3 C-7 2.34 -7 1.68 -7 1 C-3.375 -1.125 -3.375 -1.125 0 0 Z " fill="#CA211F" transform="translate(54,30)"/>
<path d="M0 0 C6.39456368 1.52724531 10.79415459 2.81279066 15 8 C11.61345444 8 10.43977599 7.30381533 7.5625 5.625 C4.7432275 3.99354282 1.92855089 2.42758517 -1 1 C-0.67 0.67 -0.34 0.34 0 0 Z " fill="#C72420" transform="translate(230,68)"/>
<path d="M0 0 C0 0.99 0 1.98 0 3 C-1.609375 4.3515625 -1.609375 4.3515625 -3.75 5.625 C-4.44609375 6.05039062 -5.1421875 6.47578125 -5.859375 6.9140625 C-7.91546532 7.95711562 -9.74861096 8.54363736 -12 9 C-12 9.66 -12 10.32 -12 11 C-12.66 10.67 -13.32 10.34 -14 10 C-11.16667533 6.95483798 -8.34499689 4.83131399 -4.75 2.75 C-3.85796875 2.22921875 -2.9659375 1.7084375 -2.046875 1.171875 C-1.03367187 0.59179688 -1.03367187 0.59179688 0 0 Z " fill="#CF1E1A" transform="translate(475,51)"/>
<path d="M0 0 C4.74996912 0.70369913 7.70531276 3.70531276 11 7 C7.625 7.125 7.625 7.125 4 7 C3.34 6.34 2.68 5.68 2 5 C2.33 4.01 2.66 3.02 3 2 C2.01 2.33 1.02 2.66 0 3 C0 2.01 0 1.02 0 0 Z " fill="#D91F1D" transform="translate(185,120)"/>
<path d="M0 0 C0 0.66 0 1.32 0 2 C-1.02480469 1.98839844 -2.04960937 1.97679688 -3.10546875 1.96484375 C-4.466144 1.95545978 -5.82682124 1.94636023 -7.1875 1.9375 C-7.86103516 1.92912109 -8.53457031 1.92074219 -9.22851562 1.91210938 C-12.95434131 1.89393462 -16.3788042 2.10700608 -20 3 C-20 2.34 -20 1.68 -20 1 C-17.1009483 -0.44952585 -14.34824524 -0.39046033 -11.125 -0.625 C-9.89007813 -0.72039062 -8.65515625 -0.81578125 -7.3828125 -0.9140625 C-4.58381341 -0.98516871 -2.61840266 -0.88157276 0 0 Z " fill="#C82323" transform="translate(336,67)"/>
<path d="M0 0 C0.33 0.66 0.66 1.32 1 2 C1.66 2 2.32 2 3 2 C3 2.66 3 3.32 3 4 C2.34 4 1.68 4 1 4 C0.938125 4.598125 0.87625 5.19625 0.8125 5.8125 C-0.3236757 8.87143458 -2.17330142 9.55041099 -5 11 C-5 9.35 -5 7.7 -5 6 C-3.68 6 -2.36 6 -1 6 C-1.33 4.68 -1.66 3.36 -2 2 C-1.34 2 -0.68 2 0 2 C0 1.34 0 0.68 0 0 Z " fill="#D8231B" transform="translate(379,64)"/>
<path d="M0 0 C0.33 1.32 0.66 2.64 1 4 C0.01 4.33 -0.98 4.66 -2 5 C-3.10836423 6.88316159 -3.10836423 6.88316159 -4 9 C-4.99 10.485 -4.99 10.485 -6 12 C-6.66 12 -7.32 12 -8 12 C-6.49087042 7.01987239 -3.44338151 3.75740058 0 0 Z " fill="#CE2120" transform="translate(19,28)"/>
<path d="M0 0 C-0.99 0.66 -1.98 1.32 -3 2 C-4.33790641 2.99387334 -5.67218122 3.9926892 -7 5 C-7 4.34 -7 3.68 -7 3 C-8.98 3.33 -10.96 3.66 -13 4 C-13.33 3.34 -13.66 2.68 -14 2 C-4.58997722 -0.29612756 -4.58997722 -0.29612756 0 0 Z " fill="#D71E16" transform="translate(107,130)"/>
<path d="M0 0 C2.31 0.66 4.62 1.32 7 2 C7 2.66 7 3.32 7 4 C8.29233607 5.37310707 9.62437146 6.71034824 11 8 C10.67 8.66 10.34 9.32 10 10 C8.33037631 8.52417192 6.6643694 7.04425109 5 5.5625 C4.071875 4.73878906 3.14375 3.91507813 2.1875 3.06640625 C1.465625 2.38449219 0.74375 1.70257813 0 1 C0 0.67 0 0.34 0 0 Z " fill="#CE2421" transform="translate(21,129)"/>
<path d="M0 0 C1 2 1 2 0.1875 4.5 C-1 7 -1 7 -3 9 C-5.625 9.125 -5.625 9.125 -8 9 C-7.04270084 7.87411986 -6.08412105 6.7493285 -5.125 5.625 C-4.59132812 4.99851562 -4.05765625 4.37203125 -3.5078125 3.7265625 C-2.38567993 2.44163349 -1.20628025 1.20628025 0 0 Z " fill="#D72020" transform="translate(250,116)"/>
<path d="M0 0 C0 3.74435194 -1.02961182 4.72294339 -3.3125 7.625 C-3.92738281 8.42164062 -4.54226562 9.21828125 -5.17578125 10.0390625 C-7 12 -7 12 -10 13 C-8.65515286 8.95838045 -6.9494838 6.61321846 -3.875 3.6875 C-3.15054688 2.99011719 -2.42609375 2.29273438 -1.6796875 1.57421875 C-1.12539062 1.05472656 -0.57109375 0.53523438 0 0 Z " fill="#C22522" transform="translate(175,59)"/>
<path d="M0 0 C1 2 1 2 0.109375 4.75 C-0.33921875 5.8225 -0.7878125 6.895 -1.25 8 C-1.90742187 9.60875 -1.90742187 9.60875 -2.578125 11.25 C-4 14 -4 14 -7 16 C-3 3 -3 3 0 0 Z " fill="#C51E18" transform="translate(783,12)"/>
<path d="M0 0 C3.40312738 1.05875074 6.01353231 2.00902154 9 4 C8.67 4.99 8.34 5.98 8 7 C7.67 6.01 7.34 5.02 7 4 C6.01 4 5.02 4 4 4 C3.34 4.66 2.68 5.32 2 6 C2 5.34 2 4.68 2 4 C1.34 4 0.68 4 0 4 C0 2.68 0 1.36 0 0 Z " fill="#CF231A" transform="translate(146,113)"/>
<path d="M0 0 C0.66 0 1.32 0 2 0 C-0.89066059 9.59453303 -0.89066059 9.59453303 -4 13 C-3.67 10.03 -3.34 7.06 -3 4 C-2.34 4 -1.68 4 -1 4 C-0.67 2.68 -0.34 1.36 0 0 Z " fill="#D91C19" transform="translate(781,67)"/>
<path d="M0 0 C0.66 1.32 1.32 2.64 2 4 C1.21654285 5.17219543 0.42297164 6.33763668 -0.375 7.5 C-0.81585937 8.1496875 -1.25671875 8.799375 -1.7109375 9.46875 C-2.13632813 9.9740625 -2.56171875 10.479375 -3 11 C-3.66 11 -4.32 11 -5 11 C-3.77472971 6.94718288 -2.30119506 3.55639236 0 0 Z " fill="#CB241E" transform="translate(10,40)"/>
<path d="M0 0 C0.33 0.66 0.66 1.32 1 2 C1.66 2 2.32 2 3 2 C4.2890625 3.4609375 4.2890625 3.4609375 5.625 5.375 C6.29402344 6.31472656 6.29402344 6.31472656 6.9765625 7.2734375 C8 9 8 9 8 11 C7.01 10.67 6.02 10.34 5 10 C5 9.34 5 8.68 5 8 C4.34 8 3.68 8 3 8 C3 7.01 3 6.02 3 5 C1.68 4.34 0.36 3.68 -1 3 C-0.67 2.01 -0.34 1.02 0 0 Z " fill="#D61B18" transform="translate(147,28)"/>
<path d="M0 0 C4.12189025 2.06094512 4.75718923 2.67501076 6.8125 6.5 C7.25207031 7.2940625 7.69164062 8.088125 8.14453125 8.90625 C8.56798828 9.94265625 8.56798828 9.94265625 9 11 C8.67 11.66 8.34 12.32 8 13 C7.34 11.35 6.68 9.7 6 8 C5.34 8 4.68 8 4 8 C2.68 5.36 1.36 2.72 0 0 Z " fill="#C82625" transform="translate(8,112)"/>
<path d="M0 0 C0.66 0 1.32 0 2 0 C1.67 1.32 1.34 2.64 1 4 C0.34 4 -0.32 4 -1 4 C-0.01 5.485 -0.01 5.485 1 7 C0.67 7.99 0.34 8.98 0 10 C-1.65 7.69 -3.3 5.38 -5 3 C-4.360625 2.690625 -3.72125 2.38125 -3.0625 2.0625 C-1.06389179 1.1654837 -1.06389179 1.1654837 0 0 Z " fill="#D62828" transform="translate(250,74)"/>
<path d="M0 0 C0.99 1.32 1.98 2.64 3 4 C1.88820837 7.33537489 0.52588702 8.63707344 -2 11 C-2.66 10.67 -3.32 10.34 -4 10 C-2.68 6.7 -1.36 3.4 0 0 Z " fill="#CD221E" transform="translate(763,54)"/>
<path d="M0 0 C4.83256305 0.41421969 6.82679218 2.46413986 10 6 C6.37 5.01 2.74 4.02 -1 3 C-0.67 2.01 -0.34 1.02 0 0 Z " fill="#E01F1B" transform="translate(134,19)"/>
<path d="M0 0 C0.66 0.33 1.32 0.66 2 1 C2 2.98 2 4.96 2 7 C-0.31 7 -2.62 7 -5 7 C-4.67 6.01 -4.34 5.02 -4 4 C-3.01 3.67 -2.02 3.34 -1 3 C-0.67 2.01 -0.34 1.02 0 0 Z " fill="#BE1415" transform="translate(688,8)"/>
<path d="M0 0 C0.66 0 1.32 0 2 0 C1.67 2.97 1.34 5.94 1 9 C0.01 9.33 -0.98 9.66 -2 10 C-1.85950482 8.52031676 -1.71245174 7.04125484 -1.5625 5.5625 C-1.48128906 4.73878906 -1.40007812 3.91507812 -1.31640625 3.06640625 C-1 1 -1 1 0 0 Z " fill="#DB1F1D" transform="translate(255,105)"/>
<path d="M0 0 C2.02907167 3.3146667 2.12742133 5.4315979 1.625 9.25 C1.51414062 10.14203125 1.40328125 11.0340625 1.2890625 11.953125 C1.19367187 12.62859375 1.09828125 13.3040625 1 14 C0.34 13.67 -0.32 13.34 -1 13 C-1.02708567 11.39592672 -1.04643483 9.7917215 -1.0625 8.1875 C-1.07410156 7.29417969 -1.08570313 6.40085937 -1.09765625 5.48046875 C-1 3 -1 3 0 0 Z " fill="#E61513" transform="translate(594,104)"/>
<path d="M0 0 C3.10011632 2.53645881 4.0575938 5.15184135 5 9 C4.546875 11.19140625 4.546875 11.19140625 4 13 C3.13372601 11.40233897 2.28233535 9.79660056 1.4375 8.1875 C0.96183594 7.29417969 0.48617188 6.40085937 -0.00390625 5.48046875 C-1 3 -1 3 0 0 Z " fill="#D11C19" transform="translate(344,73)"/>
<path d="M0 0 C5.77807024 -0.2358396 10.51324804 0.13216954 16 2 C16 2.33 16 2.66 16 3 C10.22192976 3.2358396 5.48675196 2.86783046 0 1 C0 0.67 0 0.34 0 0 Z " fill="#E91A14" transform="translate(863,150)"/>
<path d="M0 0 C3.42931954 3.7559214 4.56429083 8.23466745 6 13 C5.34 13 4.68 13 4 13 C2.23537317 9.91190305 2 8.76687864 2 5 C1.34 5 0.68 5 0 5 C0 3.35 0 1.7 0 0 Z " fill="#C72323" transform="translate(869,129)"/>
<path d="M0 0 C3.63 0 7.26 0 11 0 C11.33 0.66 11.66 1.32 12 2 C3.42857143 3.28571429 3.42857143 3.28571429 0 2 C0 1.34 0 0.68 0 0 Z " fill="#E31814" transform="translate(213,45)"/>
<path d="M0 0 C-4.61012242 2.95047835 -7.36529617 4.5497272 -13 4 C-10.96180154 1.96180154 -9.70582202 1.32158941 -7.0625 0.3125 C-6.37285156 0.04050781 -5.68320312 -0.23148437 -4.97265625 -0.51171875 C-3 -1 -3 -1 0 0 Z " fill="#C42424" transform="translate(59,5)"/>
<path d="M0 0 C0.99 0.33 1.98 0.66 3 1 C0.36 3.64 -2.28 6.28 -5 9 C-5.33 8.01 -5.66 7.02 -6 6 C-5.34 6 -4.68 6 -4 6 C-4 5.01 -4 4.02 -4 3 C-3.01 3 -2.02 3 -1 3 C-0.67 2.01 -0.34 1.02 0 0 Z " fill="#CB2321" transform="translate(146,126)"/>
<path d="M0 0 C0.66 0.99 1.32 1.98 2 3 C-3.625 6 -3.625 6 -7 6 C-7.33 6.66 -7.66 7.32 -8 8 C-8.33 7.01 -8.66 6.02 -9 5 C-5.62902617 3.50178941 -3.79557881 3 0 3 C0 2.01 0 1.02 0 0 Z " fill="#BA2524" transform="translate(158,44)"/>
<path d="M0 0 C0.66 0 1.32 0 2 0 C2.69710731 1.28650706 3.38242876 2.57940665 4.0625 3.875 C4.63677734 4.95394531 4.63677734 4.95394531 5.22265625 6.0546875 C5.47917969 6.69664063 5.73570312 7.33859375 6 8 C5.67 8.66 5.34 9.32 5 10 C4.34 9.67 3.68 9.34 3 9 C3 8.34 3 7.68 3 7 C2.34 6.67 1.68 6.34 1 6 C0.375 2.9375 0.375 2.9375 0 0 Z " fill="#CF1F1D" transform="translate(833,52)"/>
<path d="M0 0 C4.571279 0.54855348 8.67435795 1.41744803 13 3 C13 3.33 13 3.66 13 4 C10.36 4.33 7.72 4.66 5 5 C5 4.34 5 3.68 5 3 C2.525 2.01 2.525 2.01 0 1 C0 0.67 0 0.34 0 0 Z " fill="#C32622" transform="translate(103,3)"/>
<path d="M0 0 C1.32 0.33 2.64 0.66 4 1 C3.67 1.33 3.34 1.66 3 2 C4.65 2.99 6.3 3.98 8 5 C6.68 5.33 5.36 5.66 4 6 C4 5.34 4 4.68 4 4 C2.68 4 1.36 4 0 4 C0 2.68 0 1.36 0 0 Z " fill="#DB2828" transform="translate(691,2)"/>
<path d="M0 0 C5.53846154 0.61538462 5.53846154 0.61538462 7.875 2.5625 C8.431875 3.2740625 8.431875 3.2740625 9 4 C7.3125 4.8125 7.3125 4.8125 5 5 C2.25 2.5625 2.25 2.5625 0 0 Z " fill="#D5211B" transform="translate(852,144)"/>
<path d="M0 0 C0.33 0 0.66 0 1 0 C0.38461538 7.50769231 0.38461538 7.50769231 -1.5625 10 C-2.036875 10.33 -2.51125 10.66 -3 11 C-2.53199289 6.94393835 -2.12046792 3.53411321 0 0 Z " fill="#DA1A19" transform="translate(732,123)"/>
<path d="M0 0 C3 1 3 1 4 3 C4.13415472 5.6723621 4.04318541 8.32250488 4 11 C3.34 11 2.68 11 2 11 C2 9.02 2 7.04 2 5 C1.34 4.67 0.68 4.34 0 4 C0 2.68 0 1.36 0 0 Z " fill="#E71511" transform="translate(896,129)"/>
<path d="M0 0 C0.66 0 1.32 0 2 0 C2.33 0.99 2.66 1.98 3 3 C2.38125 3.0825 1.7625 3.165 1.125 3.25 C-1.18437567 3.81258459 -1.18437567 3.81258459 -2.25 6.0625 C-2.4975 6.701875 -2.745 7.34125 -3 8 C-3.66 7.67 -4.32 7.34 -5 7 C-4.21654285 5.82780457 -3.42297164 4.66236332 -2.625 3.5 C-2.18414063 2.8503125 -1.74328125 2.200625 -1.2890625 1.53125 C-0.65097656 0.77328125 -0.65097656 0.77328125 0 0 Z " fill="#DF1B18" transform="translate(536,116)"/>
<path d="M0 0 C0.66 0 1.32 0 2 0 C1.79503906 0.59167969 1.59007812 1.18335937 1.37890625 1.79296875 C0.0002429 5.83660816 -1.31750847 9.76855249 -2 14 C-2.33 14 -2.66 14 -3 14 C-3.29341888 8.32723489 -3.00559652 5.00932754 0 0 Z " fill="#C32223" transform="translate(308,75)"/>
<path d="M0 0 C0.99 0.33 1.98 0.66 3 1 C3.33 3.31 3.66 5.62 4 8 C3.01 7.67 2.02 7.34 1 7 C0.67 4.69 0.34 2.38 0 0 Z " fill="#E31E1A" transform="translate(409,74)"/>
<path d="M0 0 C3.48331435 3.01887244 4.79157144 5.56909529 6 10 C5.34 10 4.68 10 4 10 C3.71125 9.195625 3.4225 8.39125 3.125 7.5625 C2.26737432 4.8673532 2.26737432 4.8673532 0 4 C0 2.68 0 1.36 0 0 Z " fill="#CA221F" transform="translate(553,69)"/>
<path d="M0 0 C0.66 0 1.32 0 2 0 C2 1.32 2 2.64 2 4 C2.99 4.33 3.98 4.66 5 5 C5.33 6.98 5.66 8.96 6 11 C2.68102865 8.31321367 1.5184102 4.90448337 0 1 C0 0.67 0 0.34 0 0 Z " fill="#CC221F" transform="translate(809,50)"/>
<path d="M0 0 C1.32 0 2.64 0 4 0 C3.01 2.97 2.02 5.94 1 9 C0.67 9 0.34 9 0 9 C0 6.03 0 3.06 0 0 Z " fill="#EA1E16" transform="translate(691,6)"/>
<path d="M0 0 C1.32 0 2.64 0 4 0 C4 0.66 4 1.32 4 2 C5.65 2.33 7.3 2.66 9 3 C9.33 3.99 9.66 4.98 10 6 C6.00499382 4.6302836 3.19990508 2.74277578 0 0 Z " fill="#C72929" transform="translate(32,139)"/>
<path d="M0 0 C3.6 5.4 3.6 5.4 5 8 C4.67 8.66 4.34 9.32 4 10 C2.68 9.34 1.36 8.68 0 8 C0 5.36 0 2.72 0 0 Z " fill="#C4292A" transform="translate(180,108)"/>
<path d="M0 0 C0.33 0 0.66 0 1 0 C1.66 2.97 2.32 5.94 3 9 C2.01 9.66 1.02 10.32 0 11 C-1.37432457 7.18243176 -0.67975039 3.92744671 0 0 Z " fill="#EB1E1A" transform="translate(178,104)"/>
<path d="M0 0 C-0.66 1.32 -1.32 2.64 -2 4 C-4.31 4 -6.62 4 -9 4 C-3.7826087 0 -3.7826087 0 0 0 Z " fill="#D01E1A" transform="translate(486,47)"/>
<path d="M0 0 C0.99 0.33 1.98 0.66 3 1 C1.02 3.31 -0.96 5.62 -3 8 C-3.33 7.01 -3.66 6.02 -4 5 C-2.0625 2.3125 -2.0625 2.3125 0 0 Z " fill="#C6201F" transform="translate(33,43)"/>
<path d="M0 0 C2.22825644 2.22825644 2.69239369 3.65761628 3.625 6.625 C4.01558594 7.85089844 4.01558594 7.85089844 4.4140625 9.1015625 C4.60742188 9.72804688 4.80078125 10.35453125 5 11 C1.87729874 8.48169253 1.05476902 7.2738451 0.25 3.25 C0.1675 2.1775 0.085 1.105 0 0 Z " fill="#C52B27" transform="translate(825,32)"/>
<path d="M0 0 C0.66 0 1.32 0 2 0 C2 2.64 2 5.28 2 8 C1.34 8 0.68 8 0 8 C-1.125 2.25 -1.125 2.25 0 0 Z " fill="#ED1D19" transform="translate(852,136)"/>
<path d="M0 0 C0.33 0.66 0.66 1.32 1 2 C-0.25 4.5625 -0.25 4.5625 -2 7 C-2.99 7.33 -3.98 7.66 -5 8 C-4.45773019 4.20411134 -2.79872437 2.52788007 0 0 Z " fill="#DE1E1D" transform="translate(748,92)"/>
<path d="M0 0 C0.66 0 1.32 0 2 0 C1.1875 3.4375 1.1875 3.4375 0 7 C-0.99 7.33 -1.98 7.66 -3 8 C-1.125 2.25 -1.125 2.25 0 0 Z " fill="#D11E17" transform="translate(758,66)"/>
<path d="M0 0 C0.66 0 1.32 0 2 0 C2 1.32 2 2.64 2 4 C0 5.75 0 5.75 -2 7 C-2.66 6.67 -3.32 6.34 -4 6 C-3.34 4.68 -2.68 3.36 -2 2 C-1.34 2 -0.68 2 0 2 C0 1.34 0 0.68 0 0 Z " fill="#E41C1A" transform="translate(38,36)"/>
<path d="M0 0 C3.67420866 0.30618405 4.78135513 0.75771784 7.3125 3.5625 C8.1478125 4.7690625 8.1478125 4.7690625 9 6 C8.67 6.66 8.34 7.32 8 8 C6.66372225 6.85760183 5.33104612 5.71098945 4 4.5625 C3.2575 3.92441406 2.515 3.28632812 1.75 2.62890625 C1.1725 2.09136719 0.595 1.55382813 0 1 C0 0.67 0 0.34 0 0 Z " fill="#C81E1B" transform="translate(122,35)"/>
<path d="M0 0 C1.32 0 2.64 0 4 0 C3.67 2.97 3.34 5.94 3 9 C2.67 9 2.34 9 2 9 C2 6.69 2 4.38 2 2 C1.34 2 0.68 2 0 2 C0 1.34 0 0.68 0 0 Z " fill="#BD2927" transform="translate(681,1)"/>
<path d="M0 0 C0.66 0.33 1.32 0.66 2 1 C-0.52788007 3.79872437 -2.20411134 5.45773019 -6 6 C-6.33 5.34 -6.66 4.68 -7 4 C-1.7265625 0.77734375 -1.7265625 0.77734375 0 0 Z " fill="#C32120" transform="translate(526,125)"/>
<path d="M0 0 C1.5625 1.75 1.5625 1.75 3 4 C2.6875 6.25 2.6875 6.25 2 8 C1.34 8 0.68 8 0 8 C0 5.36 0 2.72 0 0 Z " fill="#D1251E" transform="translate(849,85)"/>
<path d="M0 0 C0.66 0 1.32 0 2 0 C2.33 1.32 2.66 2.64 3 4 C1.68 4.99 0.36 5.98 -1 7 C-0.67 4.69 -0.34 2.38 0 0 Z " fill="#DB1816" transform="translate(752,78)"/>
<path d="M0 0 C1.98 0 3.96 0 6 0 C4.35 1.65 2.7 3.3 1 5 C0.34 4.34 -0.32 3.68 -1 3 C-0.67 2.01 -0.34 1.02 0 0 Z " fill="#D02218" transform="translate(310,70)"/>
<path d="M0 0 C0.66 0.66 1.32 1.32 2 2 C1.34 2 0.68 2 0 2 C0 1.34 0 0.68 0 0 Z " fill="#E20000" transform="translate(879,144)"/>
<path d="" fill="#3F2020" transform="translate(0,0)"/>
<path d="" fill="#7F0000" transform="translate(0,0)"/>
<path d="" fill="#000000" transform="translate(0,0)"/>
<path d="" fill="#000000" transform="translate(0,0)"/>
</svg>
