<?xml version="1.0" encoding="UTF-8"?>
<svg version="1.1" xmlns="http://www.w3.org/2000/svg" width="4257" height="693">
<path d="M0 0 C244.53480475 0 244.53480475 0 283 32 C284.39992188 33.15435547 284.39992188 33.15435547 285.828125 34.33203125 C305.49569686 51.33514156 316.86819319 74.82848758 322 100 C322.226875 101.10859375 322.45375 102.2171875 322.6875 103.359375 C328.33678707 137.41202209 323.00949627 174.81222294 303.6875 203.8125 C298.93535861 210.35281831 293.66734979 216.25168807 288 222 C287.22140625 222.79148437 286.4428125 223.58296875 285.640625 224.3984375 C273.45260558 236.05476479 258.21156808 243.15479436 243 250 C245.82612103 255.26629601 248.74480276 260.25276251 252.3125 265.0625 C257.07456368 271.57783518 261.54640603 278.27103667 266 285 C270.24241457 291.40354298 274.48902503 297.78216964 279 304 C284.26069456 311.25122763 289.16960286 318.72829361 294.1171875 326.1953125 C297.66064746 331.53055976 301.2389993 336.81591795 305 342 C310.24862368 349.23458939 315.14853213 356.69303967 320.08203125 364.14477539 C324.35013875 370.57498945 328.69640707 376.92840344 333.2578125 383.15429688 C336 386.90802557 336 386.90802557 336 388 C240.55326649 395.68526276 240.55326649 395.68526276 224.08047485 382.14776611 C216.47021148 374.06751817 212.2925703 363.78990859 208.64053345 353.43682861 C204.6827492 342.23782911 198.27909008 333.19479097 191.38845825 323.60903931 C188.33907405 319.33568478 185.421547 314.97585284 182.49609375 310.6171875 C181.40350541 309.00204328 180.31057364 307.38713132 179.21728516 305.77246094 C175.46374161 300.21457842 171.75124286 294.62958201 168.0377655 289.04489136 C164.21336457 283.30094399 160.30929995 277.61807883 156.32421875 271.984375 C153 267.21610787 153 267.21610787 153 265 C130.89 265 108.78 265 86 265 C86 305.59 86 346.18 86 388 C57.62 388 29.24 388 0 388 C0 259.96 0 131.92 0 0 Z M86 78 C86 114.3 86 150.6 86 188 C109.9765625 188.12375 109.9765625 188.12375 134.4375 188.25 C139.45122803 188.28641602 144.46495605 188.32283203 149.63061523 188.36035156 C154.19549779 188.37374398 154.19549779 188.37374398 158.76039124 188.3817749 C160.76551382 188.38784548 162.77062347 188.40176131 164.77565002 188.42230225 C186.77769713 188.63608662 207.4415468 186.12799081 224 170 C234.21571893 158.03917745 238.01436296 143.53917732 237 128 C235.71165575 114.35443837 231.01306728 101.98769848 220.52734375 92.84375 C205.44087064 81.20871462 187.18944778 77.80554929 168.53295898 77.88647461 C167.61995309 77.88635407 166.70694719 77.88623354 165.76627445 77.88610935 C162.84285515 77.88684923 159.91950149 77.89443486 156.99609375 77.90234375 C155.17842642 77.90381604 153.36075866 77.90483498 151.54309082 77.90539551 C144.8412207 77.91061514 138.13935969 77.9245764 131.4375 77.9375 C108.9459375 77.9684375 108.9459375 77.9684375 86 78 Z " fill="#143158" transform="translate(3324,148)"/>
<path d="M0 0 C4.25220125 1.80111519 8.08526651 4.12475387 12 6.5625 C13.72263516 7.59608109 15.4452912 8.62962929 17.16918945 9.66110229 C18.94753186 10.72867859 20.72014767 11.80530177 22.4921875 12.88330078 C27.93885287 16.18502211 33.47395273 19.3336857 39 22.5 C41.16707357 23.74929444 43.33373933 24.99929653 45.5 26.25 C47.10875 27.178125 47.10875 27.178125 48.75 28.125 C144.625 83.4375 144.625 83.4375 240.5 138.75 C242.11092529 139.6793335 242.11092529 139.6793335 243.75439453 140.62744141 C245.9065213 141.86911527 248.05854073 143.11097522 250.21044922 144.35302734 C255.25030977 147.26166823 260.29117492 150.16851898 265.33599854 153.06854248 C267.11749578 154.09275665 268.89864322 155.11757651 270.6796875 156.14257812 C272.91076625 157.42633375 275.14249573 158.70895939 277.375 159.99023438 C279.36432042 161.13548564 281.34933114 162.28826909 283.32910156 163.44995117 C285.01646646 164.42920892 286.72016117 165.38129988 288.44433594 166.29418945 C292.12788082 168.33172782 293.70927649 169.413661 295.625 173.27734375 C296.08370648 177.75451015 296.29904176 181.02883923 294 185 C288.14903207 190.40323413 280.53061331 193.68923726 273.47265625 197.22314453 C267.89629436 200.07640394 262.52580344 203.26819578 257.125 206.4375 C254.94124899 207.69859907 252.75634542 208.95770437 250.5703125 210.21484375 C244.04513757 213.97355381 237.5223655 217.7364175 231 221.5 C228.83334417 222.75001879 226.6666775 224.00001878 224.5 225.25 C223.4275 225.86875 222.355 226.4875 221.25 227.125 C211.5 232.75 211.5 232.75 208.24780273 234.6262207 C206.08840605 235.8720577 203.92906331 237.11798818 201.76977539 238.36401367 C196.24232403 241.55348953 190.71384879 244.74116885 185.18359375 247.92578125 C182.93487417 249.22131657 180.68617595 250.51688896 178.4375 251.8125 C177.35919922 252.43326416 176.28089844 253.05402832 175.16992188 253.69360352 C170.31758267 256.4911637 165.47430694 259.30120151 160.66015625 262.1640625 C159.86359619 262.63739014 159.06703613 263.11071777 158.24633789 263.59838867 C156.7938606 264.4642552 155.34365882 265.33395536 153.89624023 266.20825195 C149.21802943 269 149.21802943 269 147 269 C147 316.19 147 363.38 147 412 C155.58 407.05 164.16 402.1 173 397 C205.5 378.25 205.5 378.25 208.75048828 376.37475586 C210.91557071 375.12564482 213.08060982 373.87645871 215.24560547 372.62719727 C220.68615706 369.48797691 226.12747216 366.35009437 231.5703125 363.21484375 C243.40125948 356.39778476 255.21852494 349.55886664 266.99853516 342.65405273 C268.81128037 341.59330933 270.62689818 340.53745473 272.44580078 339.48730469 C274.14401586 338.49843771 275.83021237 337.48862675 277.50341797 336.45800781 C278.28475098 335.98975586 279.06608398 335.52150391 279.87109375 335.0390625 C280.54970459 334.62092285 281.22831543 334.2027832 281.92749023 333.77197266 C284.82201064 332.6938158 286.06046473 332.99232385 289 334 C289.65459041 334.19511516 290.30918081 334.39023031 290.98360729 334.59125805 C293.67249126 335.74287703 295.12245197 336.73054822 297 339 C298.25471261 344.60580351 298.0523347 350.1843495 297.97167969 355.90405273 C297.97597237 357.65859102 297.9837292 359.41312375 297.99468994 361.16763306 C298.01407759 365.93054491 297.98347232 370.69195731 297.94287777 375.45468783 C297.90773347 380.43934331 297.91478602 385.42395255 297.9163208 390.40870667 C297.91257457 398.78094559 297.87784781 407.15260464 297.82324219 415.5246582 C297.76036031 425.20130596 297.73924906 434.87731843 297.7421844 444.55415577 C297.74488774 454.8579191 297.71711154 465.16143775 297.68039799 475.46512723 C297.67187703 478.43288622 297.66903385 481.40060567 297.66744232 484.36837578 C297.6634197 489.03480722 297.63896244 493.70070668 297.59877777 498.36696243 C297.5871087 500.07856169 297.58217007 501.7902222 297.58448792 503.50185966 C297.5864563 505.84066462 297.56378121 508.1779882 297.53485107 510.5165863 C297.5281477 511.82456901 297.52144432 513.13255171 297.51453781 514.48017025 C296.91039931 518.61293681 295.59815349 520.7668997 293 524 C290.35644531 525.92773438 290.35644531 525.92773438 287.328125 527.59375 C286.20132324 528.22418213 285.07452148 528.85461426 283.91357422 529.50415039 C282.69241207 530.16948729 281.4712199 530.8347691 280.25 531.5 C278.98232667 532.20466602 277.71557346 532.91098966 276.44970703 533.61889648 C273.87107557 535.06037928 271.28950944 536.4963816 268.70605469 537.92919922 C263.38175035 540.89250681 258.1281897 543.97537817 252.875 547.0625 C241.3727638 553.79460683 229.83074553 560.45656936 218.28222656 567.10888672 C212.85340058 570.23680148 207.42680719 573.36858448 202 576.5 C199.83334417 577.75001879 197.6666775 579.00001878 195.5 580.25 C193.89125 581.178125 193.89125 581.178125 192.25 582.125 C130.50000001 617.75 130.50000001 617.75 127.24951172 619.62524414 C125.08442929 620.87435518 122.91939018 622.12354129 120.75439453 623.37280273 C115.31384294 626.51202309 109.87252784 629.64990563 104.4296875 632.78515625 C93.93767906 638.83055159 83.45518324 644.89110219 73 651 C61.47764225 657.73244117 49.92081288 664.40413316 38.35693359 671.06494141 C34.86807297 673.07604754 31.38105172 675.09030995 27.89453125 677.10546875 C26.71794788 677.78525786 25.54135295 678.46502695 24.36474609 679.14477539 C22.14731622 680.42598166 19.93017441 681.70768667 17.71337891 682.98999023 C15.72120308 684.14052024 13.72559309 685.285131 11.72607422 686.42285156 C9.98912609 687.42774901 8.26934446 688.46337124 6.57470703 689.53808594 C1.36368327 692.74920329 -2.8838657 694.43086128 -9 693 C-13.2163643 691.22242588 -17.07795156 688.97209758 -21 686.625 C-22.10867432 685.98232178 -23.21734863 685.33964355 -24.35961914 684.67749023 C-27.5841697 682.80315439 -30.79336299 680.90477266 -34 679 C-35.49787565 678.12229314 -36.99645985 677.2457931 -38.49609375 676.37109375 C-41.16175365 674.81251766 -43.8209016 673.24351582 -46.4765625 671.66796875 C-61.84549172 662.57299814 -77.38924296 653.77039818 -92.9022522 644.92401123 C-101.94307341 639.76675557 -110.94443912 634.5450389 -119.92675781 629.28662109 C-128.13915175 624.48588404 -136.39261375 619.75859742 -144.65625 615.046875 C-154.19053205 609.61066155 -163.70382204 604.13904894 -173.20605469 598.64697266 C-180.57221837 594.3926282 -187.95412189 590.16650945 -195.34375 585.953125 C-205.57185335 580.12131169 -215.76590016 574.2349777 -225.92675781 568.28662109 C-234.719042 563.14689633 -243.55956797 558.09316265 -252.40673828 553.04882812 C-261.67219422 547.76510453 -270.92318167 542.45694045 -280.14648438 537.09985352 C-284.59891644 534.51681874 -289.04792869 531.94698269 -293.59375 529.53125 C-294.24875488 529.17804687 -294.90375977 528.82484375 -295.57861328 528.4609375 C-297.1982191 527.59456505 -298.82896302 526.74909252 -300.4609375 525.90625 C-303.79637094 523.4021092 -305.61064744 520.88379857 -307 517 C-307.58513446 512.41737054 -307.53523928 507.86751921 -307.50120544 503.25291443 C-307.50510074 501.84458656 -307.51074302 500.43626264 -307.51797634 499.02794796 C-307.5327162 495.16726988 -307.52255874 491.30700029 -307.50823963 487.44633543 C-307.49712539 483.27927698 -307.50907388 479.11227562 -307.51808167 474.94522095 C-307.5320127 466.78592889 -307.52445914 458.62679162 -307.50940608 450.46750694 C-307.49254475 440.96642213 -307.49575637 431.46537587 -307.49950016 421.96428073 C-307.50537841 405.0130211 -307.49120812 388.06183576 -307.46655273 371.1105957 C-307.44262828 354.66004655 -307.43555 338.20959663 -307.44604492 321.7590332 C-307.45745235 303.84603209 -307.45938664 285.93307688 -307.44494683 268.02007633 C-307.44342098 266.11030361 -307.44190062 264.20053087 -307.44038582 262.29075813 C-307.439628 261.35110572 -307.43887019 260.4114533 -307.43808941 259.44332657 C-307.43334553 252.81962185 -307.43519873 246.19593761 -307.43945122 239.5722332 C-307.44437613 231.50162271 -307.43840121 223.43110607 -307.41855692 215.36051708 C-307.4086806 211.24231314 -307.40358347 207.12425216 -307.41144943 203.00604057 C-307.418502 199.23658558 -307.41171174 195.46741915 -307.3938458 191.69800223 C-307.38788044 189.68763476 -307.39663071 187.6772403 -307.40589231 185.66688532 C-307.39745237 184.47141803 -307.38901243 183.27595074 -307.38031673 182.04425716 C-307.3792876 181.01445293 -307.37825848 179.9846487 -307.37719816 178.92363828 C-306.92494937 175.41828747 -305.80173085 173.02617737 -304 170 C-301.50170898 168.08813477 -301.50170898 168.08813477 -298.49609375 166.44140625 C-297.3762207 165.8160498 -296.25634766 165.19069336 -295.10253906 164.54638672 C-293.88091003 163.88499757 -292.65922898 163.22370451 -291.4375 162.5625 C-290.17184962 161.86134331 -288.90721444 161.15835126 -287.64355469 160.45361328 C-285.04105428 159.00357301 -282.43478727 157.56068042 -279.82568359 156.12255859 C-274.08900285 152.95114387 -268.42096458 149.66223417 -262.75 146.375 C-261.68193115 145.75826416 -260.6138623 145.14152832 -259.51342773 144.50610352 C-251.33873063 139.78494448 -243.18445206 135.0291708 -235.03369141 130.2668457 C-224.47352916 124.1005487 -213.87857454 117.99494961 -203.28222656 111.89111328 C-197.85340058 108.76319852 -192.42680719 105.63141552 -187 102.5 C-184.83334417 101.24998121 -182.6666775 99.99998122 -180.5 98.75 C-179.4275 98.13125 -178.355 97.5125 -177.25 96.875 C-167.5 91.25 -167.5 91.25 -164.24951172 89.37475586 C-162.08442929 88.12564482 -159.91939018 86.87645871 -157.75439453 85.62719727 C-152.31384294 82.48797691 -146.87252784 79.35009437 -141.4296875 76.21484375 C-130.93767906 70.16944841 -120.45518324 64.10889781 -110 58 C-98.45270484 51.25298806 -86.87097973 44.56660682 -75.28222656 37.89111328 C-68.78152037 34.14561565 -62.28374968 30.39502735 -55.78564453 26.64501953 C-50.76346298 23.74705111 -45.74072934 20.85005713 -40.71557617 17.95724487 C-38.94954478 16.94052802 -37.18372569 15.92344342 -35.41796875 14.90625 C-33.21265845 13.63599127 -31.00695784 12.36640982 -28.80078125 11.09765625 C-27.79402344 10.51757812 -26.78726562 9.9375 -25.75 9.33984375 C-24.77804687 8.78538574 -23.80609375 8.23092773 -22.8046875 7.65966797 C-20.96500217 6.57103802 -19.15506261 5.43014017 -17.3828125 4.23486328 C-11.5811294 0.37498183 -6.98201429 -1.63738656 0 0 Z M-20.96875 27.75390625 C-22.51755859 28.65302734 -22.51755859 28.65302734 -24.09765625 29.5703125 C-25.78181641 30.55644531 -25.78181641 30.55644531 -27.5 31.5625 C-28.67551594 32.24654988 -29.85130147 32.93013667 -31.02734375 33.61328125 C-33.47370926 35.03482132 -35.91889463 36.45836082 -38.36328125 37.88330078 C-43.89804993 41.10757154 -49.44981332 44.3023703 -55 47.5 C-57.1667481 48.74985884 -59.33341448 49.99985936 -61.5 51.25 C-74.5 58.75 -74.5 58.75 -77.75048828 60.62524414 C-79.91557071 61.87435518 -82.08060982 63.12354129 -84.24560547 64.37280273 C-89.68615706 67.51202309 -95.12747216 70.64990563 -100.5703125 73.78515625 C-111.06232094 79.83055159 -121.54481676 85.89110219 -132 92 C-143.54729516 98.74701194 -155.12902027 105.43339318 -166.71777344 112.10888672 C-172.14659942 115.23680148 -177.57319281 118.36858448 -183 121.5 C-185.16665583 122.75001879 -187.3333225 124.00001878 -189.5 125.25 C-190.5725 125.86875 -191.645 126.4875 -192.75 127.125 C-202.5 132.75 -202.5 132.75 -205.75048828 134.62524414 C-207.91557071 135.87435518 -210.08060982 137.12354129 -212.24560547 138.37280273 C-217.68615706 141.51202309 -223.12747216 144.64990563 -228.5703125 147.78515625 C-240.45791858 154.63472792 -252.33041168 161.50891959 -264.17431641 168.43383789 C-269.10220235 171.31451178 -274.03764725 174.17907748 -279 177 C-276.05163811 180.21504129 -273.12712581 182.2436199 -269.30078125 184.3203125 C-268.18324463 184.93253662 -267.06570801 185.54476074 -265.91430664 186.17553711 C-265.32682648 186.49344208 -264.73934631 186.81134705 -264.13406372 187.1388855 C-261.04497864 188.81118033 -257.9685908 190.50657283 -254.890625 192.19921875 C-254.28380386 192.5321846 -253.67698273 192.86515045 -253.05177307 193.20820618 C-248.50692709 195.70647415 -244.0158179 198.28022717 -239.5625 200.9375 C-232.2389616 205.2990822 -224.84397654 209.53137504 -217.4375 213.75 C-208.59728557 218.7868166 -199.77988193 223.85839477 -191 229 C-181.94511722 234.30026922 -172.8579981 239.54173132 -163.75 244.75 C-163.13737305 245.10078613 -162.52474609 245.45157227 -161.89355469 245.81298828 C-160.15370827 246.80886471 -158.41281253 247.80290723 -156.671875 248.796875 C-155.6725293 249.36760742 -154.67318359 249.93833984 -153.64355469 250.52636719 C-152.33499512 251.25581543 -152.33499512 251.25581543 -151 252 C-150.29488281 252.42700195 -149.58976563 252.85400391 -148.86328125 253.29394531 C-146.7137994 254.35534936 -146.7137994 254.35534936 -143.515625 252.5 C-142.08415339 251.68326136 -140.66298525 250.84831931 -139.25 250 C-138.46560547 249.5464917 -137.68121094 249.0929834 -136.87304688 248.62573242 C-134.23978088 247.09861206 -131.62033334 245.54918991 -129 244 C-127.13114481 242.9111515 -125.2613308 241.82394723 -123.390625 240.73828125 C-119.36784173 238.40093687 -115.35022257 236.05503342 -111.3359375 233.703125 C-104.94717965 229.96365385 -98.53880768 226.25880504 -92.125 222.5625 C-91.04686035 221.94101074 -89.9687207 221.31952148 -88.85791016 220.67919922 C-84.47536799 218.1535448 -80.09216077 215.62904571 -75.70898438 213.10449219 C-63.89719355 206.30025499 -52.09121475 199.48637812 -40.3125 192.625 C-39.39388184 192.09060303 -38.47526367 191.55620605 -37.52880859 191.00561523 C-35.73752957 189.96056888 -33.96516162 188.88227138 -32.21557617 187.76882935 C-29 186 -29 186 -25.20376587 184.89768982 C-20.41312752 183.30722264 -16.78044902 181.32916744 -14 177 C-11.25617418 166.91545794 -12.20988594 155.75990014 -12.47909093 145.39423251 C-12.57321033 141.15852492 -12.58169801 136.9226423 -12.59947205 132.68605042 C-12.64599687 124.67377589 -12.76893854 116.66459115 -12.91971439 108.65367419 C-13.0876943 99.52953067 -13.1699259 90.40523521 -13.24514592 81.27992904 C-13.40171073 62.51820429 -13.66534225 43.75935097 -14 25 C-16.87659558 25 -18.48758548 26.30604957 -20.96875 27.75390625 Z M4 25 C4 75.16 4 125.32 4 177 C22.1519488 187.47328692 22.1519488 187.47328692 40.30810547 197.93920898 C49.51359003 203.24405097 58.70426495 208.57281026 67.875 213.9375 C77.13821513 219.35524483 86.44361178 224.69625977 95.76831055 230.00714111 C105.34086862 235.45996906 114.87014509 240.98186322 124.36328125 246.57226562 C126.14980883 247.62087964 127.94417557 248.65631537 129.74804688 249.67480469 C132 251 132 251 134.9921875 253.25390625 C138.72666036 254.18024952 139.57963551 253.52546796 142.921875 251.7578125 C144.87894857 250.57023162 146.82077648 249.35730755 148.75 248.125 C150.91329951 246.80213688 153.07738902 245.48056496 155.2421875 244.16015625 C156.35819336 243.46937988 157.47419922 242.77860352 158.62402344 242.06689453 C163.97810261 238.78893429 169.42640463 235.6798761 174.875 232.5625 C177.06026673 231.30402924 179.24516064 230.04491089 181.4296875 228.78515625 C182.51475586 228.16012207 183.59982422 227.53508789 184.71777344 226.89111328 C190.14659942 223.76319852 195.57319281 220.63141552 201 217.5 C203.16665583 216.24998121 205.3333225 214.99998122 207.5 213.75 C208.5725 213.13125 209.645 212.5125 210.75 211.875 C220.5 206.25 220.5 206.25 223.75561523 204.37207031 C225.90392287 203.13245688 228.05187718 201.8922309 230.19946289 200.65136719 C235.28144145 197.71602317 240.36684663 194.78714728 245.4649353 191.87988281 C247.87653083 190.50413209 250.28611876 189.12488653 252.69555664 187.74536133 C254.3999055 186.77148182 256.10714938 185.80267435 257.81445312 184.83398438 C258.84376953 184.24423828 259.87308594 183.65449219 260.93359375 183.046875 C261.84165771 182.52963867 262.74972168 182.01240234 263.68530273 181.47949219 C265.77350796 180.14476761 267.34578204 178.83066332 269 177 C253.45766641 167.91068056 237.88391147 158.87818423 222.28222656 149.89111328 C216.85340058 146.76319852 211.42680719 143.63141552 206 140.5 C203.83334417 139.24998121 201.6666775 137.99998122 199.5 136.75 C195.16666667 134.25 190.83333333 131.75 186.5 129.25 C185.42733887 128.63116943 184.35467773 128.01233887 183.24951172 127.37475586 C181.08442929 126.12564482 178.91939018 124.87645871 176.75439453 123.62719727 C171.31384294 120.48797691 165.87252784 117.35009437 160.4296875 114.21484375 C149.97793801 108.19252671 139.53700452 102.15330663 129.125 96.0625 C120.44737759 90.98724877 111.73394432 85.97741233 103 81 C93.27884383 75.4599827 83.59105342 69.86625191 73.93310547 64.21655273 C63.43691336 58.07856591 52.90186662 52.0085231 42.36572266 45.93945312 C38.8510675 43.91417962 35.33744531 41.88712521 31.82421875 39.859375 C30.93899536 39.34847572 30.93899536 39.34847572 30.03588867 38.82725525 C27.20307244 37.19230093 24.37031 35.55725345 21.53759766 33.92211914 C19.55530409 32.77827071 17.5722884 31.63567234 15.58837891 30.49462891 C13.98204251 29.56706888 12.37939541 28.63304926 10.78271484 27.68896484 C7.60716696 25.66213274 7.60716696 25.66213274 4 25 Z M-289 194 C-289.02375389 221.51173336 -289.04118125 249.02346511 -289.05181217 276.53520679 C-289.05688765 289.32010563 -289.06378206 302.10499791 -289.07543945 314.88989258 C-289.08868491 329.70393831 -289.0968687 344.51797934 -289.09765625 359.33203125 C-289.09772061 360.54264048 -289.09778497 361.75324971 -289.09785128 363.00054407 C-289.09642852 408.33932994 -288.71837554 453.66708544 -288 499 C-284.37861799 497.58207839 -281.03436012 495.99845838 -277.640625 494.09375 C-276.61654541 493.52019775 -275.59246582 492.94664551 -274.53735352 492.35571289 C-273.45252686 491.74332764 -272.3677002 491.13094238 -271.25 490.5 C-269.55991821 489.54951782 -269.55991821 489.54951782 -267.83569336 488.57983398 C-261.04626123 484.75080572 -254.29252686 480.86903332 -247.58911133 476.89160156 C-241.23613353 473.12384767 -234.83880115 469.4349457 -228.4375 465.75 C-218.96407924 460.29456664 -209.50959245 454.80821477 -200.07373047 449.28808594 C-194.73964436 446.17072852 -189.39514628 443.07259988 -184.03515625 440 C-183.45164398 439.66508545 -182.86813171 439.3301709 -182.26693726 438.98510742 C-179.45153298 437.36918008 -176.63460162 435.75607477 -173.81445312 434.1484375 C-172.28401367 433.27058594 -172.28401367 433.27058594 -170.72265625 432.375 C-169.83328369 431.86710938 -168.94391113 431.35921875 -168.02758789 430.8359375 C-167.02848389 430.23007812 -166.02937988 429.62421875 -165 429 C-164.26864775 428.67616113 -163.53729549 428.35232225 -162.78378105 428.01867008 C-160.01859724 426.59870453 -158.11153186 425.29605194 -156 423 C-154.57338637 418.21827625 -154.63358781 413.43166037 -154.62915039 408.48022461 C-154.59564468 406.99297894 -154.55852701 405.50581092 -154.51808167 404.01873779 C-154.42165081 399.98718114 -154.38395526 395.95717953 -154.3629601 391.92459559 C-154.34764553 389.40057727 -154.32053455 386.87696067 -154.28945732 384.35309029 C-154.1822663 375.53281052 -154.12594997 366.71372346 -154.11254883 357.89282227 C-154.0986282 349.69413402 -153.96872332 341.5027822 -153.78518683 333.30629915 C-153.63280357 326.25099627 -153.56616597 319.19810647 -153.5640201 312.14117056 C-153.56111418 307.93311199 -153.52404444 303.73242487 -153.39885139 299.52607536 C-152.27473771 282.51530401 -152.27473771 282.51530401 -158.15965652 267.34352112 C-163.35432862 262.99253695 -169.05909451 260.32899901 -175.38245392 258.00533009 C-178.98320432 256.62237727 -182.07533342 254.77291397 -185.359375 252.7578125 C-187.48870702 251.54533474 -189.61890903 250.3343835 -191.75 249.125 C-194.13858055 247.7653046 -196.52633614 246.40416347 -198.9140625 245.04296875 C-199.8024733 244.5367675 -199.8024733 244.5367675 -200.70883179 244.02033997 C-206.85975407 240.51387884 -212.99376071 236.97825125 -219.125 233.4375 C-220.19089355 232.82205322 -221.25678711 232.20660645 -222.35498047 231.57250977 C-226.64008063 229.09759016 -230.92451948 226.62152694 -235.20898438 224.14550781 C-242.80262256 219.75781596 -250.39955184 215.37588506 -258 211 C-258.61965637 210.6430304 -259.23931274 210.28606079 -259.87774658 209.91827393 C-263.76721854 207.67782741 -267.65847033 205.44052296 -271.55206299 203.20724487 C-272.80044393 202.49067155 -274.04829551 201.77317513 -275.29559326 201.05471802 C-277.02761391 200.05734247 -278.76180601 199.06374067 -280.49609375 198.0703125 C-281.48794678 197.50070801 -282.4797998 196.93110352 -283.50170898 196.34423828 C-286.01556084 194.89979259 -286.01556084 194.89979259 -289 194 Z M-18.99609375 200.31640625 C-19.85106445 200.8254248 -20.70603516 201.33444336 -21.58691406 201.85888672 C-22.52760742 202.4210791 -23.46830078 202.98327148 -24.4375 203.5625 C-32.84235896 208.55763225 -41.2770255 213.49629039 -49.75 218.375 C-50.83450439 218.99955078 -51.91900879 219.62410156 -53.03637695 220.26757812 C-55.24964025 221.54152068 -57.46310115 222.81512 -59.67675781 224.08837891 C-75.47175555 233.17409976 -91.24873508 242.28949991 -106.98046875 251.484375 C-111.25038607 253.98004735 -115.52440348 256.46853919 -119.80078125 258.953125 C-120.91114746 259.59886475 -122.02151367 260.24460449 -123.16552734 260.90991211 C-125.30969496 262.1567035 -127.45452812 263.40235119 -129.60009766 264.64672852 C-131.03361572 265.48095337 -131.03361572 265.48095337 -132.49609375 266.33203125 C-133.34357178 266.82421143 -134.1910498 267.3163916 -135.06420898 267.82348633 C-136.93445415 268.85545122 -136.93445415 268.85545122 -138 270 C-138.09646028 271.83494486 -138.12187344 273.67364587 -138.12025452 275.51112366 C-138.12162918 276.7073082 -138.12300385 277.90349274 -138.12442017 279.13592529 C-138.12088057 280.47351099 -138.11724575 281.81109644 -138.11352539 283.14868164 C-138.11324352 284.54782611 -138.11340125 285.94697073 -138.1139679 287.34611511 C-138.11425588 291.15586459 -138.10835898 294.96558286 -138.10139394 298.77532506 C-138.09516059 302.75251309 -138.09455662 306.72970176 -138.09336853 310.70689392 C-138.09025516 318.24338539 -138.08204169 325.77986243 -138.07201904 333.31634754 C-138.06085808 341.89419828 -138.0553475 350.4720497 -138.05032361 359.0499059 C-138.03985908 376.69994546 -138.02225953 394.34997157 -138 412 C-134.06804528 410.7282356 -130.63344163 409.38267032 -127.078125 407.26953125 C-126.14887207 406.72176025 -125.21961914 406.17398926 -124.26220703 405.60961914 C-123.26817871 405.01656982 -122.27415039 404.42352051 -121.25 403.8125 C-119.08632451 402.53580222 -116.92224834 401.25978329 -114.7578125 399.984375 C-113.08380371 398.9953418 -113.08380371 398.9953418 -111.37597656 397.98632812 C-105.9787367 394.81074644 -100.55236 391.6862344 -95.125 388.5625 C-92.94008624 387.30341652 -90.75519051 386.04430177 -88.5703125 384.78515625 C-87.48524414 384.16012207 -86.40017578 383.53508789 -85.28222656 382.89111328 C-78.77782059 379.14348395 -72.27624205 375.39095039 -65.7746582 371.63842773 C-60.22313708 368.43467538 -54.66979203 365.23415423 -49.11328125 362.0390625 C-34.97719945 353.91444951 -34.97719945 353.91444951 -20.9375 345.625 C-20.33010986 345.26164551 -19.72271973 344.89829102 -19.09692383 344.52392578 C-16.39619551 342.96578538 -16.39619551 342.96578538 -14 341 C-13.90351752 339.15238732 -13.87812682 337.3010419 -13.87974548 335.45091248 C-13.87837082 334.24631378 -13.87699615 333.04171509 -13.87557983 331.8006134 C-13.87911944 330.45358252 -13.88275425 329.10655188 -13.88647461 327.75952148 C-13.88675648 326.35052492 -13.88659875 324.94152821 -13.8860321 323.53253174 C-13.88574411 319.6959237 -13.89164106 315.85934666 -13.89860606 312.02274585 C-13.90483937 308.01753059 -13.90544338 304.0123147 -13.90663147 300.00709534 C-13.90974485 292.41747996 -13.91795833 284.82787892 -13.92798096 277.23826987 C-13.93914188 268.59996076 -13.94465249 259.96165099 -13.94967639 251.32333648 C-13.96014094 233.54888285 -13.97774052 215.77444258 -14 198 C-15.86323472 198 -17.44124191 199.38643103 -18.99609375 200.31640625 Z M4 198 C3.69604852 216.50622815 3.46694668 235.01194861 3.32644176 253.52015686 C3.25946178 262.11438528 3.1681873 270.70706125 3.01928711 279.30029297 C2.88953468 286.79206574 2.80580411 294.2827143 2.77684957 301.77557945 C2.75992651 305.74218334 2.72030264 309.70557192 2.62550926 313.67114258 C2.53689871 317.40852874 2.5101104 321.1413953 2.52960014 324.87973213 C2.52434669 326.89696771 2.45455208 328.91371567 2.38253784 330.92967224 C2.43804945 334.70141167 2.62715714 337.48153528 4 341 C7.97190902 344.60764734 12.14607733 346.69920038 17 349 C19.20777205 350.22495255 21.37546555 351.50636126 23.55078125 352.7890625 C25.80362654 354.06957672 28.05756679 355.34816611 30.3125 356.625 C32.78609637 358.0309032 35.25845319 359.43897565 37.73046875 360.84765625 C38.34607666 361.19833664 38.96168457 361.54901703 39.59594727 361.9103241 C45.46164301 365.25562191 51.29699476 368.65199438 57.125 372.0625 C69.71848252 379.42988079 82.35737369 386.7173643 95 394 C99.1963131 396.41783662 103.39220284 398.83640662 107.58770752 401.25564575 C109.27098222 402.22606473 110.95457887 403.19592519 112.63818359 404.16577148 C113.66121582 404.75559814 114.68424805 405.3454248 115.73828125 405.953125 C116.63587158 406.47036133 117.53346191 406.98759766 118.45825195 407.52050781 C120.2239205 408.54826225 121.97154305 409.60740082 123.70385742 410.69042969 C125.84899406 412.16514087 125.84899406 412.16514087 128 412 C128 364.81 128 317.62 128 269 C119.75 264.38 111.5 259.76 103 255 C94.5625 250.0625 94.5625 250.0625 90.53125 247.671875 C84.90132145 244.33998092 79.2308083 241.07852327 73.5625 237.8125 C72.45527588 237.17449463 71.34805176 236.53648926 70.20727539 235.87915039 C67.93662932 234.57110523 65.66587642 233.26324552 63.39501953 231.95556641 C59.00372573 229.4261357 54.6141765 226.89368857 50.22485352 224.36083984 C48.08355522 223.12524475 45.94211752 221.88989121 43.80053711 220.65478516 C38.71900872 217.72403961 33.63841866 214.79169891 28.56085205 211.85409546 C26.16069899 210.46561973 23.76005639 209.07799167 21.359375 207.69042969 C19.66358382 206.7098117 17.96850224 205.72796691 16.2734375 204.74609375 C15.24734375 204.153125 14.22125 203.56015625 13.1640625 202.94921875 C12.26123535 202.42674561 11.3584082 201.90427246 10.42822266 201.3659668 C8.31164109 200.17530987 6.17570627 199.07668056 4 198 Z M-12.1640625 360.75390625 C-13.70320313 361.65302734 -13.70320313 361.65302734 -15.2734375 362.5703125 C-16.37945312 363.22773438 -17.48546875 363.88515625 -18.625 364.5625 C-19.7911293 365.24701002 -20.9578057 365.93058879 -22.125 366.61328125 C-24.55064254 368.03301526 -26.97387561 369.45673795 -29.39550781 370.88330078 C-34.90854781 374.12653702 -40.4559009 377.31026172 -46 380.5 C-48.16682951 381.7497177 -50.33349565 382.99971869 -52.5 384.25 C-65.5 391.75 -65.5 391.75 -68.75219727 393.6262207 C-70.91159395 394.8720577 -73.07093669 396.11798818 -75.23022461 397.36401367 C-80.75767597 400.55348953 -86.28615121 403.74116885 -91.81640625 406.92578125 C-103.91186046 413.89322882 -115.98785531 420.88974723 -128 428 C-124.5850243 431.89025583 -120.74967304 433.98223036 -116.25 436.375 C-108.96569803 440.33454163 -101.77440108 444.42686696 -94.625 448.625 C-85.82275443 453.7842786 -76.98883438 458.8849263 -68.125 463.9375 C-60.05391531 468.53837799 -51.98903536 473.14875576 -43.94921875 477.80419922 C-41.79280151 479.04930421 -39.6326883 480.2880322 -37.46875 481.52001953 C-32.11894217 484.57154335 -26.86099074 487.70217828 -21.68359375 491.0390625 C-20.66370361 491.67368408 -19.64381348 492.30830566 -18.59301758 492.9621582 C-16.67354254 494.15881045 -14.7764204 495.39243265 -12.90893555 496.66870117 C-10.19636581 498.32617203 -8.1276657 499.40911755 -5 500 C-0.50051617 498.78146769 3.09907992 496.50272369 7 494 C8.83282687 492.9541651 10.66871138 491.91366808 12.5078125 490.87890625 C14.38231326 489.77701051 16.25463557 488.67140225 18.125 487.5625 C20.23402286 486.32231764 22.34341061 485.08275562 24.453125 483.84375 C25.53142578 483.20953125 26.60972656 482.5753125 27.72070312 481.921875 C33.08994733 478.77515892 38.48208191 475.66841381 43.875 472.5625 C44.95410645 471.94060791 46.03321289 471.31871582 47.14501953 470.67797852 C49.33582951 469.41550269 51.5267476 468.15321444 53.71777344 466.89111328 C56.98174327 465.01051894 60.24494189 463.12859454 63.5078125 461.24609375 C64.5805542 460.62718262 65.6532959 460.00827148 66.75854492 459.37060547 C68.90993435 458.12906402 71.06114048 456.88720488 73.2121582 455.64501953 C78.24070909 452.74183646 83.27124054 449.84230156 88.31021118 446.95724487 C90.08432545 445.94122816 91.85769919 444.92393072 93.63085938 443.90625 C95.84815314 442.63417708 98.06681075 441.36447715 100.28710938 440.09765625 C106.35146171 436.61462045 112.24280382 432.97151264 118 429 C115.4916488 426.18215963 112.70077062 424.54276277 109.42578125 422.69921875 C108.29591797 422.05919922 107.16605469 421.41917969 106.00195312 420.75976562 C105.40133057 420.42243408 104.80070801 420.08510254 104.18188477 419.73754883 C100.98682938 417.94285989 97.80079863 416.13225025 94.61328125 414.32421875 C93.96634308 413.95787323 93.31940491 413.59152771 92.65286255 413.21408081 C86.73796765 409.86141046 80.86457489 406.43988012 75 403 C65.77710808 397.59842849 56.50949243 392.27875727 47.2230835 386.98754883 C38.83011582 382.20413305 30.46481026 377.37568305 22.125 372.5 C21.13918945 371.92491699 20.15337891 371.34983398 19.13769531 370.75732422 C14.93008543 368.30204829 10.72684866 365.8405117 6.5390625 363.3515625 C5.27613578 362.60921486 4.01312351 361.86701274 2.75 361.125 C1.71359375 360.50882812 0.6771875 359.89265625 -0.390625 359.2578125 C-5.17369526 356.95220079 -7.89528724 358.23401081 -12.1640625 360.75390625 Z M273.27734375 360.5703125 C272.27646729 361.12968506 271.27559082 361.68905762 270.24438477 362.26538086 C269.15311279 362.87905518 268.06184082 363.49272949 266.9375 364.125 C265.24741821 365.07354858 265.24741821 365.07354858 263.52319336 366.04125977 C253.98590714 371.40524645 244.52993253 376.90460814 235.08984375 382.4375 C228.78429581 386.1321331 222.45705564 389.78852681 216.125 393.4375 C215.04484619 394.06003662 213.96469238 394.68257324 212.85180664 395.32397461 C210.66203666 396.58576826 208.47217645 397.84740534 206.28222656 399.10888672 C200.85340058 402.23680148 195.42680719 405.36858448 190 408.5 C187.83334417 409.75001879 185.6666775 411.00001878 183.5 412.25 C182.4275 412.86875 181.355 413.4875 180.25 414.125 C118.5 449.75 118.5 449.75 115.24951172 451.62524414 C113.08442929 452.87435518 110.91939018 454.12354129 108.75439453 455.37280273 C103.31384294 458.51202309 97.87252784 461.64990563 92.4296875 464.78515625 C80.95063001 471.39927985 69.48797925 478.03995784 58.04956055 484.72412109 C48.61994533 490.23061298 39.16145119 495.68652224 29.69921875 501.13671875 C21.12658137 506.08035628 12.56420814 511.04177424 4 516 C4.33 566.16 4.66 616.32 5 668 C8.88461437 666.44615425 12.17185557 664.86235312 15.76953125 662.796875 C16.89311035 662.15355225 18.01668945 661.51022949 19.17431641 660.84741211 C20.38711721 660.14840128 21.59984319 659.44926061 22.8125 658.75 C24.07459978 658.0252852 25.33680831 657.30075976 26.59912109 656.57641602 C35.44276363 651.49625437 44.25867967 646.36874397 53.06225586 641.21948242 C63.58744748 635.06376359 74.15221981 628.97721107 84.71777344 622.89111328 C90.14659942 619.76319852 95.57319281 616.63141552 101 613.5 C103.16665583 612.24998121 105.3333225 610.99998122 107.5 609.75 C109.10875 608.821875 109.10875 608.821875 110.75 607.875 C172.5 572.25 172.5 572.25 175.75048828 570.37475586 C177.91557071 569.12564482 180.08060982 567.87645871 182.24560547 566.62719727 C187.68615706 563.48797691 193.12747216 560.35009437 198.5703125 557.21484375 C210.04283217 550.60448718 221.49972312 543.96888061 232.93066406 537.28686523 C238.25533401 534.17669787 243.58692524 531.07898645 248.9296875 528 C249.51083313 527.66508545 250.09197876 527.3301709 250.69073486 526.98510742 C253.49211183 525.37126114 256.29440788 523.75903111 259.09765625 522.1484375 C269.62000789 516.84575048 269.62000789 516.84575048 279 510 C279.09666937 508.03838396 279.12187097 506.07323355 279.12025452 504.10923767 C279.12162918 502.82891159 279.12300385 501.54858551 279.12442017 500.22946167 C279.12088055 498.79742409 279.11724573 497.36538674 279.11352539 495.93334961 C279.11324353 494.43568422 279.11340124 492.9380187 279.1139679 491.44035339 C279.11425591 487.36201828 279.10835864 483.28371233 279.10139394 479.20538402 C279.09516095 474.94792372 279.09455665 470.69046282 279.09336853 466.43299866 C279.09025505 458.36526813 279.08204144 450.29755109 279.07201904 442.22982651 C279.06085842 433.04739221 279.05534758 423.86495728 279.05032361 414.68251789 C279.03985884 395.7883376 279.02225907 376.89416988 279 358 C276.97210197 358 274.98262699 359.61656499 273.27734375 360.5703125 Z M-154.234375 442.7890625 C-155.27078125 443.39363281 -156.3071875 443.99820312 -157.375 444.62109375 C-158.48875 445.28238281 -159.6025 445.94367188 -160.75 446.625 C-161.92138916 447.31202696 -163.09327184 447.99821308 -164.265625 448.68359375 C-166.67652079 450.09475958 -169.08456512 451.51060703 -171.49023438 452.93066406 C-175.67873501 455.40245807 -179.88032778 457.85161827 -184.08251953 460.30004883 C-186.04244739 461.44205533 -188.0017485 462.5851381 -189.96044922 463.72924805 C-202.70531882 471.17331101 -215.50120849 478.52903433 -228.29101562 485.89550781 C-240.35361531 492.84422463 -252.40889393 499.80505937 -264.4375 506.8125 C-265.45666504 507.40554932 -266.47583008 507.99859863 -267.52587891 508.60961914 C-268.4647998 509.15739014 -269.4037207 509.70516113 -270.37109375 510.26953125 C-271.19536865 510.75010986 -272.01964355 511.23068848 -272.86889648 511.72583008 C-274.61029285 512.76699718 -276.31184188 513.87456125 -278 515 C-278 515.66 -278 516.32 -278 517 C-277.05253906 517.5261792 -277.05253906 517.5261792 -276.0859375 518.06298828 C-263.39427938 525.11975136 -250.76263087 532.25887841 -238.23632812 539.60595703 C-230.52205096 544.12600215 -222.76878934 548.57467143 -215 553 C-206.30581837 557.95349446 -197.63502325 562.9437863 -189 568 C-180.4048271 573.0318979 -171.77687778 578.00389124 -163.125 582.9375 C-148.65049631 591.19165636 -134.21778154 599.51717372 -119.79101562 607.85449219 C-116.56931725 609.71602672 -113.34728921 611.57698839 -110.125 613.4375 C-109.05894531 614.05302734 -107.99289063 614.66855469 -106.89453125 615.30273438 C-98.31004403 620.25453042 -89.70419707 625.16824868 -81.09527588 630.07736206 C-73.03736493 634.67394391 -65.00597978 639.31350753 -57 644 C-48.5487602 648.94405778 -40.0791019 653.85485562 -31.5847168 658.72436523 C-30.32864228 659.44477755 -29.07310013 660.16611894 -27.81811523 660.88842773 C-26.07170482 661.89317009 -24.32301032 662.89393915 -22.57421875 663.89453125 C-21.56963623 664.47050049 -20.56505371 665.04646973 -19.5300293 665.63989258 C-16.9899548 667.09816613 -16.9899548 667.09816613 -14 668 C-13.6960951 648.32028814 -13.46696861 628.64105334 -13.32644176 608.95948029 C-13.2594525 599.8204955 -13.16815824 590.68296988 -13.01928711 581.54492188 C-12.88956557 573.57851035 -12.80581092 565.61315548 -12.77684957 557.64571714 C-12.75992199 553.42768733 -12.72026299 549.21267977 -12.62550926 544.99562073 C-12.53695083 541.02192151 -12.51010192 537.05247316 -12.52960014 533.07788086 C-12.52603653 531.62325373 -12.50033675 530.16847807 -12.45032883 528.71470642 C-12.30232404 524.18833015 -12.41199115 520.26366602 -14 516 C-17.96190451 512.33068224 -22.09862671 510.28146761 -27 508 C-29.17040399 506.76655829 -31.33211078 505.51754565 -33.48046875 504.24609375 C-35.7149872 502.97452427 -37.9507047 501.70506002 -40.1875 500.4375 C-42.6607844 499.03105071 -45.13310845 497.6229167 -47.60546875 496.21484375 C-48.22598114 495.86171112 -48.84649353 495.50857849 -49.48580933 495.14474487 C-55.6720915 491.62224941 -61.83723683 488.0634607 -68 484.5 C-76.43488268 479.62459795 -84.88472018 474.77627196 -93.34814453 469.95065308 C-104.7908367 463.42609383 -116.19416912 456.83700968 -127.5625 450.18359375 C-128.44164062 449.6716748 -129.32078125 449.15975586 -130.2265625 448.63232422 C-132.23114487 447.45251456 -134.22463301 446.25378582 -136.2109375 445.04345703 C-137.27570313 444.40134277 -138.34046875 443.75922852 -139.4375 443.09765625 C-140.40558594 442.50605713 -141.37367188 441.91445801 -142.37109375 441.30493164 C-147.18171296 438.91704534 -149.92203153 440.24886299 -154.234375 442.7890625 Z " fill="#346EAE" transform="translate(307,0)"/>
<path d="M0 0 C28.38 0 56.76 0 86 0 C86.33 55.11 86.66 110.22 87 167 C92.00605388 161.99394612 96.71415339 157.28559089 101.27978516 151.97412109 C104.3138538 148.49221944 107.50908711 145.16217197 110.6875 141.8125 C115.52742402 136.69148337 120.35475497 131.56103758 125.125 126.375 C129.41656218 121.70936907 133.73242418 117.06741336 138.0625 112.4375 C142.23125505 107.97882338 146.38169825 103.50533745 150.5 99 C155.21127288 93.84596432 159.96899392 88.7370629 164.73828125 83.63671875 C168.50701921 79.60466286 172.26087919 75.55952748 176 71.5 C180.90655631 66.17356122 185.84394166 60.87656896 190.7890625 55.5859375 C194.54029543 51.57030049 198.27686457 47.54169247 202 43.5 C206.31486968 38.81594361 210.65136321 34.15272065 215 29.5 C219.46812817 24.71737064 223.93086039 19.92993961 228.375 15.125 C229.7503981 13.63861877 231.12732127 12.15297828 232.54293823 10.70484924 C234.09975234 9.00584963 234.09975234 9.00584963 235.20730591 6.75010681 C237.1893568 3.59425567 238.81251192 1.98811045 242 0 C249.62474976 -1.7383859 257.77140057 -1.04353638 265.53125 -0.87890625 C267.85149666 -0.8621083 270.17177536 -0.84930274 272.49206543 -0.84031677 C278.58220441 -0.80604676 284.67039391 -0.71771998 290.75976562 -0.61798096 C296.9802005 -0.52570982 303.20095219 -0.48476531 309.421875 -0.43945312 C321.6154372 -0.34309564 333.80755613 -0.18960525 346 0 C344.47396585 3.21630141 342.90199229 5.28769299 340.3125 7.75 C337.6298459 10.30900472 335.14735314 12.95838943 332.73046875 15.765625 C328.39114271 20.7690091 323.68625447 25.36520634 318.9609375 30 C315.69334698 33.22974198 312.52847667 36.48511625 309.53125 39.96875 C305.07439395 45.14314977 300.1855361 49.86250569 295.31640625 54.64453125 C291.92081439 58.00328124 288.61582231 61.37852424 285.5 65 C281.05564748 70.16560744 276.17492912 74.87292293 271.31640625 79.64453125 C267.2817751 83.63538702 263.46028262 87.71652009 259.75976562 92.01757812 C256.03608091 96.21240607 251.96344461 100.07416927 247.9609375 104 C244.69334698 107.22974198 241.52847667 110.48511625 238.53125 113.96875 C234.07439395 119.14314977 229.1855361 123.86250569 224.31640625 128.64453125 C220.92378282 132.00034502 217.62252661 135.37190071 214.51171875 138.9921875 C209.99844146 144.23982418 205.0137915 149.00075484 200.05273438 153.8203125 C196.15619495 157.65776078 192.81003721 161.29930451 190 166 C190.43231934 166.56283691 190.86463867 167.12567383 191.31005859 167.70556641 C205.86697037 186.67788144 205.86697037 186.67788144 212.28198242 195.76367188 C221.06723496 208.19539353 230.24529305 220.34859862 239.39111328 232.51586914 C245.4019511 240.51916822 251.33987121 248.57507154 257.26611328 256.64111328 C260.17371628 260.59679621 263.08716394 264.54816989 266 268.5 C267.16669442 270.08331288 268.3333611 271.66664621 269.5 273.25 C270.36625 274.425625 270.36625 274.425625 271.25 275.625 C276.5 282.75 276.5 282.75 278.25048828 285.12573242 C279.41543849 286.70668983 280.58047734 288.28758192 281.74560547 289.8684082 C284.6892698 293.86255828 287.63131346 297.8578843 290.5703125 301.85546875 C296.01636895 309.26019463 301.47457766 316.65424366 307 324 C314.33891216 333.75669501 321.56020011 343.59961793 328.79101562 353.43652344 C330.5684023 355.85396357 332.3466382 358.27077714 334.125 360.6875 C334.69734375 361.46641602 335.2696875 362.24533203 335.859375 363.04785156 C338.72864927 366.94582587 341.61771339 370.82646441 344.546875 374.6796875 C345.10745605 375.41872314 345.66803711 376.15775879 346.24560547 376.91918945 C347.30809584 378.31679253 348.37464404 379.71132282 349.44580078 381.10229492 C353 385.77916201 353 385.77916201 353 388 C339.6135253 388.32494867 326.22799415 388.57341453 312.83837318 388.72537041 C306.62015745 388.79831988 300.40464687 388.89718102 294.18798828 389.05615234 C288.18362433 389.20872693 282.18185442 389.29206725 276.17570114 389.3282814 C273.88927743 389.35407214 271.60298973 389.40444341 269.31767654 389.48022079 C251.86754848 390.03561442 251.86754848 390.03561442 247.07540894 386.6337719 C243.42699322 382.91231235 241.25286999 378.65404836 239 374 C237.9265222 372.42928235 236.82617081 370.87560056 235.671875 369.36328125 C235.18976562 368.69425781 234.70765625 368.02523438 234.2109375 367.3359375 C233.48777344 366.33433594 233.48777344 366.33433594 232.75 365.3125 C232.21117188 364.56613281 231.67234375 363.81976563 231.1171875 363.05078125 C226.52886419 356.70747714 221.88529595 350.40581736 217.23364258 344.10888672 C210.54759825 335.04893979 203.97263981 325.90963888 197.39550781 316.77050781 C190.72765706 307.50847805 184.01322961 298.28415107 177.23071289 289.10571289 C172.74183637 283.02455095 168.31009187 276.90404491 163.89453125 270.76953125 C159.39465433 264.5263606 154.83267204 258.33045498 150.25683594 252.14282227 C145.47754991 245.67148671 140.76398599 239.15425035 136.0859375 232.609375 C135.57804687 231.90167969 135.07015625 231.19398438 134.546875 230.46484375 C134.10182617 229.842146 133.65677734 229.21944824 133.19824219 228.57788086 C131.94840064 226.85807373 131.94840064 226.85807373 130 225 C129.11441406 225.95777344 128.22882812 226.91554688 127.31640625 227.90234375 C119.67537004 236.12794011 111.91042632 244.19404918 103.90063477 252.06225586 C99.96482471 255.94873191 96.22659855 259.92797646 92.640625 264.140625 C91 266 91 266 88.93157959 267.41082764 C85.77997983 271.63536751 86.43040047 276.15516729 86.45410156 281.28613281 C86.43859505 283.01339096 86.43859505 283.01339096 86.42277527 284.77554321 C86.3932577 288.58487838 86.39184614 292.39368427 86.390625 296.203125 C86.37564949 298.8430076 86.35892369 301.48288081 86.34051514 304.1227417 C86.29995532 310.36289959 86.27961458 316.60295298 86.26654124 322.84322238 C86.24911399 330.64558145 86.2046922 338.44775663 86.16015625 346.25 C86.08083784 360.16666173 86.0423522 374.08306766 86 388 C57.62 388 29.24 388 0 388 C0 259.96 0 131.92 0 0 Z " fill="#143158" transform="translate(3732,148)"/>
<path d="M0 0 C1.11669571 0.00539291 1.11669571 0.00539291 2.25595093 0.01089478 C3.0363826 0.01074875 3.81681427 0.01060272 4.62089539 0.01045227 C7.21273534 0.01115158 9.80450432 0.01894481 12.39633179 0.02676392 C14.18852194 0.02862803 15.9807126 0.03005196 17.77290344 0.03105164 C22.49938351 0.03487733 27.22583305 0.04470805 31.95230103 0.05575562 C36.77153104 0.06596863 41.59076596 0.07054902 46.41000366 0.07559204 C55.87290773 0.08633027 65.3357891 0.10340731 74.79867554 0.12442017 C86.66880239 27.78578904 98.48995343 55.46749184 110.26644897 83.16885376 C114.02560417 92.01084859 117.78827124 100.85134895 121.5506897 109.69195557 C123.63349703 114.58604857 125.7160746 119.48023934 127.79867554 124.37442017 C128.63200777 126.33275397 129.4653411 128.2910873 130.29867554 130.24942017 C195.29867553 282.99942014 195.29867553 282.99942014 196.54847717 285.9364624 C197.38246366 287.89632505 198.21645822 289.85618425 199.05046082 291.81604004 C201.12386686 296.68844691 203.19713614 301.56091189 205.27011108 306.4335022 C209.13812111 315.52497835 213.00745712 324.61588316 216.88146973 333.70480347 C218.6904092 337.94902835 220.49859729 342.19357317 222.30673218 346.43814087 C223.16020006 348.44106689 224.01402682 350.44384003 224.86825562 352.44644165 C228.90123796 361.9013387 232.92407113 371.36056577 236.87289429 380.85098267 C237.17153885 381.56209198 237.47018341 382.27320129 237.77787781 383.00585938 C239.79867554 387.89218935 239.79867554 387.89218935 239.79867554 390.12442017 C210.09867554 390.12442017 180.39867554 390.12442017 149.79867554 390.12442017 C144.05752732 377.4938941 144.05752732 377.4938941 141.55648804 371.25723267 C141.2661972 370.53929535 140.97590637 369.82135803 140.67681885 369.08166504 C139.75687424 366.80514266 138.84013879 364.52734593 137.92367554 362.24942017 C137.35098477 360.83005816 136.77806827 359.41078722 136.20492554 357.99160767 C134.06933574 352.70261507 131.93402266 347.41351074 129.79867554 342.12442017 C124.84867554 329.91442017 119.89867554 317.70442017 114.79867554 305.12442017 C61.00867554 305.12442017 7.21867554 305.12442017 -48.20132446 305.12442017 C-59.38570122 332.74632293 -59.38570122 332.74632293 -70.54507446 360.37832642 C-72.68960571 365.69668579 -72.68960571 365.69668579 -73.69204712 368.18228149 C-74.39434782 369.92512207 -75.09578069 371.66831249 -75.79653931 373.41177368 C-76.85622714 376.04740153 -77.91906513 378.68173873 -78.98257446 381.31582642 C-79.2959375 382.09760757 -79.60930054 382.87938873 -79.93215942 383.68486023 C-82.08745757 389.01055327 -82.08745757 389.01055327 -83.20132446 390.12442017 C-85.94020866 390.21958228 -88.65380387 390.24996611 -91.39297485 390.23794556 C-92.25143509 390.23809158 -93.10989532 390.23823761 -93.99436951 390.23838806 C-96.84593184 390.23768863 -99.69742972 390.22989487 -102.54898071 390.22207642 C-104.52053288 390.22021234 -106.49208551 390.21878839 -108.46363831 390.2177887 C-113.66358713 390.21396268 -118.86350821 390.20413169 -124.06344604 390.19308472 C-129.36526107 390.18287239 -134.66708057 390.17829146 -139.96890259 390.17324829 C-150.3797221 390.16250949 -160.79052098 390.14543207 -171.20132446 390.12442017 C-169.63766117 385.3150632 -168.06762976 380.5541313 -166.04751587 375.91299438 C-165.44931786 374.53061836 -165.44931786 374.53061836 -164.83903503 373.12031555 C-164.41460617 372.14971695 -163.99017731 371.17911835 -163.55288696 370.17910767 C-162.88017006 368.6275573 -162.88017006 368.6275573 -162.19386292 367.04466248 C-161.23698234 364.83834273 -160.27850057 362.63271685 -159.31854248 360.42773438 C-156.79319555 354.62584574 -154.28075924 348.81837132 -151.76773071 343.01113892 C-151.27435715 341.87165298 -150.78098358 340.73216705 -150.2726593 339.55815125 C-146.71418362 331.3318778 -143.20819725 323.08659879 -139.76382446 314.81192017 C-134.02185686 301.03177366 -128.18051312 287.29474426 -122.32632446 273.56192017 C-121.83431549 272.40767548 -121.34230652 271.25343079 -120.83538818 270.06420898 C-118.30324601 264.1242673 -115.77049235 258.1845866 -113.23745728 252.24502563 C-108.86417024 241.98959588 -104.49615975 231.73191919 -100.12792969 221.47433472 C-97.73985235 215.8667182 -95.35143832 210.2592451 -92.96304321 204.65176392 C-92.48923721 203.53934326 -92.01543121 202.42692261 -91.52726746 201.28079224 C-88.62229422 194.46041761 -85.71714482 187.64011804 -82.81187439 180.81987 C-73.2091278 158.27699835 -63.60776407 135.73354158 -54.01382446 113.18692017 C-53.60703461 112.23097961 -53.20024475 111.27503906 -52.78112793 110.29013062 C-48.65733492 100.5993451 -44.5342882 90.90824366 -40.41387939 81.21601868 C-35.01498302 68.51656438 -29.61112016 55.81923541 -24.20132446 43.12442017 C-23.773255 42.11965637 -23.34518555 41.11489258 -22.90414429 40.0796814 C-20.34606061 34.07608844 -17.78513939 28.07371969 -15.22018433 22.07305908 C-14.42065016 20.20164753 -13.62193414 18.3298862 -12.82406616 16.45776367 C-11.72945866 13.88993145 -10.63183058 11.32341238 -9.53335571 8.75723267 C-9.20834579 7.99305527 -8.88333588 7.22887787 -8.54847717 6.44154358 C-5.78904343 0.01179823 -5.78904343 0.01179823 0 0 Z M32.79867554 104.12442017 C32.58808502 104.64058899 32.37749451 105.15675781 32.16052246 105.68856812 C22.54627213 129.2531153 12.93045397 152.81703092 3.29867554 176.37442017 C2.92891602 177.27894928 2.55915649 178.18347839 2.17819214 179.11541748 C-1.52668957 188.1766773 -5.23930044 197.23451882 -8.99038696 206.27676392 C-9.27980164 206.97457977 -9.56921631 207.67239563 -9.86740112 208.39135742 C-11.19244243 211.58459534 -12.52025149 214.77662496 -13.85171509 217.9671936 C-14.29966431 219.04388306 -14.74761353 220.12057251 -15.20913696 221.22988892 C-15.59730591 222.15954468 -15.98547485 223.08920044 -16.38540649 224.04702759 C-17.26225355 225.90757075 -17.26225355 225.90757075 -17.20132446 227.12442017 C16.12867554 227.12442017 49.45867554 227.12442017 83.79867554 227.12442017 C75.27129479 205.79763517 75.27129479 205.79763517 66.67367554 184.49942017 C66.36629456 183.74136078 66.05891357 182.98330139 65.74221802 182.20227051 C59.0356856 165.66580474 52.26194736 149.15702929 45.47955322 132.65156555 C42.74628025 125.99926213 40.02049449 119.34391926 37.29867554 112.68692017 C36.74687622 111.33739258 36.74687622 111.33739258 36.18392944 109.96060181 C35.38866624 108.01528092 34.5936359 106.06986483 33.79867554 104.12442017 C33.46867554 104.12442017 33.13867554 104.12442017 32.79867554 104.12442017 Z " fill="#143158" transform="translate(3023.2013244628906,145.87557983398438)"/>
<path d="M0 0 C227.96884735 0 227.96884735 0 267 34 C284.10031889 52.06992461 292.53947527 75.34496524 292.1484375 100.09765625 C290.92096233 124.09802599 284.37107377 144.97982539 268 163 C267.46117187 163.62003906 266.92234375 164.24007812 266.3671875 164.87890625 C257.50043563 174.48084106 245.56536023 181.19810832 234 187 C236.66227448 188.77484965 238.99159789 189.76453006 241.98706055 190.79980469 C268.79672317 200.12547023 292.75229849 216.19605654 305.56640625 242.17578125 C315.72386092 265.55308736 316.37850611 293.70993516 307.75 317.6875 C296.05590876 345.89294991 275.32562356 364.10039522 247.69042969 375.91308594 C174.59324073 405.44381962 52.22002626 388 0 388 C0 259.96 0 131.92 0 0 Z M44 41 C44 84.56 44 128.12 44 173 C74.31875 173.0928125 74.31875 173.0928125 105.25 173.1875 C114.76569824 173.22846802 114.76569824 173.22846802 124.47363281 173.27026367 C130.24130007 173.28030699 130.24130007 173.28030699 136.00897217 173.28633118 C138.5456094 173.29088895 141.08224081 173.30133631 143.61883545 173.31672668 C175.49345334 173.50017861 205.86850797 171.03539989 230.1875 148.1875 C243.52843216 134.37010598 246.52353717 117.00311931 246.27734375 98.578125 C245.90302498 87.53106552 242.47706069 77.97670304 236 69 C235.51015625 68.31550781 235.0203125 67.63101563 234.515625 66.92578125 C221.63491058 50.6973564 200.00760243 43.94206668 180.22472954 41.20347786 C175.13494851 40.73795712 170.01083627 40.87152261 164.90454102 40.88647461 C162.94254005 40.88625557 162.94254005 40.88625557 160.94090271 40.8860321 C157.37116924 40.88574629 153.80146967 40.89160809 150.23174405 40.89860606 C146.49482475 40.90487557 142.75790459 40.90544624 139.02098083 40.90663147 C131.95217942 40.9097342 124.88339356 40.91793329 117.81459898 40.92798096 C108.25716737 40.94126987 98.69973149 40.94665055 89.14229298 40.95248318 C74.09485035 40.96187392 59.04744052 40.9817999 44 41 Z M44 213 C44 257.55 44 302.1 44 348 C69.1054547 348.08754253 69.1054547 348.08754253 94.2109375 348.14648438 C104.46326246 348.16421795 114.71551293 348.18495358 124.96777344 348.22631836 C132.43767779 348.25644252 139.90752114 348.27562694 147.37748456 348.28226548 C151.32412864 348.28613925 155.27059839 348.29508865 159.21718597 348.31719017 C190.95879441 348.48784606 225.5065496 347.17562097 250 324 C262.19413996 311.92804581 267.98348689 296.69904869 268.3125 279.625 C268.32925757 263.63455012 263.43536534 249.56448116 252.375 237.75 C231.16909201 217.79149837 200.24688159 212.61562151 172.17016602 212.77294922 C170.75910449 212.77351537 169.34804239 212.77319282 167.9369812 212.77206421 C164.15901079 212.77149763 160.38117112 212.78313739 156.60323071 212.79721212 C152.63547278 212.80983724 148.66771083 212.81089916 144.69993591 212.81326294 C137.20992992 212.81944348 129.71998331 212.83580718 122.2300033 212.85596192 C112.09216432 212.88264121 101.95430875 212.89332129 91.81644344 212.90496635 C75.8775846 212.92369083 59.938851 212.96355909 44 213 Z " fill="#143158" transform="translate(1699,148)"/>
<path d="M0 0 C237.29637097 0 237.29637097 0 278 39 C300.73934385 62.71667954 307.61341114 91.69303727 307.27734375 123.78125 C306.54664655 151.49684919 295.27066827 177.27031305 275.40039062 196.55224609 C255.11373541 215.41191673 230.19788438 223.94294873 204 231 C204.61705811 231.80497925 204.61705811 231.80497925 205.24658203 232.6262207 C212.57494378 242.19453777 219.87867304 251.77621194 227 261.5 C231.92560912 268.22499878 236.93348476 274.88052989 242 281.5 C247.65353395 288.88641792 253.21470194 296.33194466 258.7109375 303.8359375 C263.73308941 310.67606295 268.87611662 317.41990994 274.03466797 324.1574707 C278.46423158 329.95380684 282.81826247 335.79946282 287.125 341.6875 C291.66769738 347.8972895 296.31059916 354.01139525 301.0625 360.0625 C305.96138872 366.30588305 310.72385763 372.6321691 315.375 379.0625 C315.940979 379.84310791 316.50695801 380.62371582 317.09008789 381.42797852 C321 386.87171797 321 386.87171797 321 388 C313.3328271 388.27992155 305.66697917 388.47194572 297.99584961 388.60424805 C295.38922902 388.6594189 292.78294662 388.73437863 290.17749023 388.82983398 C267.31345582 389.64625072 267.31345582 389.64625072 262.39819336 385.7265625 C260.0777526 382.91187623 258.52231512 380.30297463 257 377 C256.19418799 375.84650641 255.3642638 374.70888413 254.49609375 373.6015625 C253.81675781 372.61929687 253.13742188 371.63703125 252.4375 370.625 C248.19183503 364.57020046 243.74815024 358.68158125 239.25 352.8125 C233.49293935 345.29686255 227.81806565 337.72943113 222.21972656 330.0949707 C218.01727971 324.36809519 213.7699095 318.67672653 209.5 313 C204.64790452 306.54927333 199.83588485 300.07166116 195.0625 293.5625 C189.46097468 285.92867524 183.74322353 278.38939558 177.98754883 270.87133789 C172.74858969 264.01567619 167.60682074 257.0929473 162.515625 250.12695312 C161.979375 249.39412109 161.443125 248.66128906 160.890625 247.90625 C160.42688477 247.27009766 159.96314453 246.63394531 159.48535156 245.97851562 C158.99518555 245.32560547 158.50501953 244.67269531 158 244 C157.52510132 243.14779373 157.05020264 242.29558746 156.56091309 241.41755676 C152.61245247 237.69012543 148.78582348 238.29564974 143.54003906 238.34057617 C142.45912868 238.33006131 141.37821831 238.31954645 140.26455307 238.30871296 C136.76460763 238.28030887 133.26566027 238.28600654 129.765625 238.29296875 C127.60529179 238.2804464 125.44497032 238.26569054 123.28466797 238.24865723 C115.27322671 238.20118265 107.26157632 238.19697508 99.25 238.1875 C81.3475 238.125625 63.445 238.06375 45 238 C45 287.5 45 337 45 388 C30.15 388 15.3 388 0 388 C0 259.96 0 131.92 0 0 Z M45 42 C45 93.48 45 144.96 45 198 C75.9065625 198.061875 75.9065625 198.061875 107.4375 198.125 C113.9130249 198.14320801 120.3885498 198.16141602 127.06030273 198.18017578 C132.92914476 198.18686985 132.92914476 198.18686985 138.79798889 198.19088745 C141.38648986 198.1939333 143.97478669 198.20014218 146.56324768 198.21115112 C172.80779224 198.41211514 172.80779224 198.41211514 198.5625 193.8125 C199.34713623 193.59746826 200.13177246 193.38243652 200.94018555 193.16088867 C223.42368657 186.72827939 242.22836198 174.49099154 254.01757812 153.85986328 C262.99606069 136.86232844 264.39442371 116.29765517 260.171875 97.734375 C254.07663632 78.31088109 241.53858641 63.32840707 223.5546875 53.78125 C205.72354778 44.84608548 186.47536469 41.82890185 166.69921875 41.88647461 C165.34658308 41.88678141 163.99394725 41.88664667 162.64131165 41.88610935 C159.03879435 41.8858848 155.43631067 41.89165521 151.83380127 41.89871979 C148.44584046 41.90444025 145.05788759 41.90468429 141.66992188 41.90539551 C131.77994351 41.91063025 121.88997132 41.92459149 112 41.9375 C78.835 41.9684375 78.835 41.9684375 45 42 Z " fill="#143158" transform="translate(2473,148)"/>
<path d="M0 0 C92.73 0 185.46 0 281 0 C281 13.53 281 27.06 281 41 C203.12 41 125.24 41 45 41 C45 84.23 45 127.46 45 172 C114.63 172 184.26 172 256 172 C256 185.53 256 199.06 256 213 C186.37 213 116.74 213 45 213 C45 257.55 45 302.1 45 348 C123.87 348 202.74 348 284 348 C284 361.2 284 374.4 284 388 C190.28 388 96.56 388 0 388 C0 259.96 0 131.92 0 0 Z " fill="#143158" transform="translate(2105,148)"/>
<path d="M0 0 C1.00627441 0.19867676 2.01254883 0.39735352 3.04931641 0.60205078 C41.26079988 8.41285011 73.36357813 26.88011169 101.90625 53.15234375 C104.06333263 55.13945339 104.06333263 55.13945339 107 57 C106.41237486 60.45295192 105.24261111 62.15253295 102.82421875 64.65234375 C101.83711914 65.68500366 101.83711914 65.68500366 100.83007812 66.73852539 C100.12302734 67.46418701 99.41597656 68.18984863 98.6875 68.9375 C97.23250922 70.45518896 95.7780884 71.97342452 94.32421875 73.4921875 C93.5976709 74.24725586 92.87112305 75.00232422 92.12255859 75.78027344 C89.04053893 79.00338394 86.0161524 82.2778529 83 85.5625 C82.23562622 86.39285767 82.23562622 86.39285767 81.45581055 87.23999023 C80.3030325 88.49255316 79.15136899 89.74614173 78 91 C75.13489444 89.68916739 72.99654239 88.25887366 70.6875 86.125 C59.52396988 76.19956934 47.9198079 67.50671485 35 60 C34.38688965 59.63922363 33.7737793 59.27844727 33.14208984 58.90673828 C-2.04809778 38.40512212 -44.52261581 33.99462392 -83.7722168 43.796875 C-120.02570904 53.59052078 -151.08679842 77.30990893 -170.1328125 109.6328125 C-193.56641536 151.89173649 -199.6974651 199.96682737 -186.6081543 246.80664062 C-175.89519335 282.71543336 -153.53438557 313.61336333 -122 334 C-121.07960938 334.60585938 -120.15921875 335.21171875 -119.2109375 335.8359375 C-86.85445919 355.97898456 -45.69743476 360.42007507 -8.92553711 352.37695312 C25.98403647 344.19666433 52.92104733 324.8419319 79 301 C81.8561314 302.30587099 84.00176248 303.72119175 86.28515625 305.87109375 C86.89359375 306.44037598 87.50203125 307.0096582 88.12890625 307.59619141 C88.76699219 308.20382324 89.40507813 308.81145508 90.0625 309.4375 C90.71992187 310.06060059 91.37734375 310.68370117 92.0546875 311.32568359 C93.39451974 312.59949983 94.73193171 313.87586667 96.06689453 315.15478516 C97.85384505 316.86049013 99.65703824 318.54694 101.46484375 320.23046875 C102.4776001 321.19422331 103.48938359 322.15900168 104.5 323.125 C105.3971875 323.97320312 106.294375 324.82140625 107.21875 325.6953125 C109 328 109 328 109.0859375 329.98046875 C104.35547973 338.77775892 93.66718021 345.95452591 86 352 C84.9531128 352.85907796 83.90758653 353.71981652 82.86328125 354.58203125 C55.97358318 376.56537166 24.35785338 390.72743793 -10 396 C-10.72300293 396.11569336 -11.44600586 396.23138672 -12.19091797 396.35058594 C-62.83735184 404.10693596 -116.97252992 393.37150273 -158.95849609 363.61181641 C-167.48799797 357.33244222 -175.334939 350.29471398 -183 343 C-183.70511719 342.34773438 -184.41023437 341.69546875 -185.13671875 341.0234375 C-219.10134341 308.64336937 -239.00293966 258.0781077 -240.28851318 211.71194458 C-240.36971589 207.34931096 -240.38475225 202.98829461 -240.375 198.625 C-240.37445618 197.70513306 -240.37391235 196.78526611 -240.37335205 195.83752441 C-240.33199965 180.56889461 -239.37623217 165.94338468 -236 151 C-235.79101074 150.05898438 -235.58202148 149.11796875 -235.36669922 148.1484375 C-227.01321852 111.8061035 -208.6053112 79.85527462 -183 53 C-182.27296875 52.22011719 -181.5459375 51.44023437 -180.796875 50.63671875 C-152.48088174 21.11467392 -112.09865925 3.50457785 -72 -2 C-70.97749146 -2.14356934 -70.97749146 -2.14356934 -69.93432617 -2.29003906 C-47.31781037 -5.00899109 -22.29800672 -4.44681625 0 0 Z " fill="#143158" transform="translate(1111,145)"/>
<path d="M0 0 C7.43073835 -0.53687893 14.856442 -0.90179019 22.30224609 -1.15356445 C24.82758192 -1.2585583 27.35165912 -1.40144278 29.87255859 -1.58422852 C50.05836803 -3.01009594 50.05836803 -3.01009594 56.35791016 1.80065918 C60.72362914 6.65406066 63.6075445 12.27808139 66.49090576 18.09451294 C68.87788864 22.69021525 71.83325929 26.84873984 74.796875 31.0859375 C75.94179339 32.77423472 77.08377436 34.46452745 78.22290039 36.15673828 C79.08554001 37.43294037 79.08554001 37.43294037 79.96560669 38.73492432 C88.08946334 50.75446972 96.20344698 62.78007471 104.23828125 74.859375 C105.10744675 76.16577438 105.10744675 76.16577438 105.99417114 77.49856567 C108.72426073 81.60375576 111.45093638 85.7111631 114.17285156 89.82177734 C119.53639915 97.90667086 125.00793687 105.89603113 130.62889099 113.80419922 C135.60414537 120.81748694 140.37746393 127.95642789 145.125 135.125 C146.04612508 136.51181118 146.96751968 137.89844339 147.88916016 139.28491211 C149.86127396 142.25199278 151.83229437 145.21979583 153.80273438 148.18798828 C159.05885225 156.10229492 164.33326734 164.00442289 169.60491943 171.90838623 C172.43251302 176.14816787 175.25920061 180.38855341 178.0859375 184.62890625 C179.04475465 186.06714165 180.00357578 187.50537439 180.96240234 188.94360352 C181.63480957 189.95221436 182.3072168 190.9608252 183 192 C185.29755209 189.15544083 187.55101111 186.30464134 189.6640625 183.3203125 C190.14061279 182.64742187 190.61716309 181.97453125 191.1081543 181.28125 C191.85899292 180.21390625 191.85899292 180.21390625 192.625 179.125 C193.15714111 178.36960937 193.68928223 177.61421875 194.23754883 176.8359375 C197.85726182 171.67712968 201.39274649 166.46987216 204.86889648 161.21362305 C214.85501162 146.13061028 225.14618925 131.24737633 235.33911133 116.30371094 C242.18400941 106.26728798 249.01328031 96.22024881 255.84277344 86.17333984 C259.39460354 80.94849968 262.94734352 75.72427829 266.5 70.5 C267.91667112 68.41666969 269.33333778 66.33333636 270.75 64.25 C273.58333333 60.08333333 276.41666667 55.91666667 279.25 51.75 C280.30320435 50.20107056 280.30320435 50.20107056 281.37768555 48.62084961 C282.78515077 46.55118114 284.192863 44.48168061 285.60083008 42.41235352 C288.89485562 37.57039943 292.18651322 32.72689178 295.46908569 27.87716675 C296.62721024 26.16638968 297.78614049 24.45616122 298.9453125 22.74609375 C300.39613188 20.60525052 301.84545157 18.46338988 303.29296875 16.3203125 C303.95296875 15.34707031 304.61296875 14.37382812 305.29296875 13.37109375 C306.15184692 12.1015686 306.15184692 12.1015686 307.02807617 10.80639648 C307.67881104 9.88028564 308.3295459 8.9541748 309 8 C309.37803772 7.31136871 309.75607544 6.62273743 310.14556885 5.91323853 C312.18896878 2.55464038 313.64272258 0.37084693 317.54039001 -0.69410706 C320.71057669 -0.92700958 323.78438317 -0.89979001 326.9609375 -0.78125 C328.10664215 -0.76993042 329.2523468 -0.75861084 330.43276978 -0.74694824 C334.08190125 -0.70226563 337.72706214 -0.60190576 341.375 -0.5 C343.85280773 -0.45986308 346.33067722 -0.4233627 348.80859375 -0.390625 C354.873744 -0.30255684 360.93658837 -0.16879757 367 0 C366.21483555 1.43287086 365.42725486 2.86441785 364.63867188 4.29541016 C364.20035034 5.09274567 363.76202881 5.89008118 363.3104248 6.71157837 C361.5681843 9.75408859 359.57655805 12.55173443 357.5 15.375 C353.42437021 20.97792007 349.46461944 26.64989601 345.5625 32.375 C345.00796143 33.18791504 344.45342285 34.00083008 343.88208008 34.83837891 C342.77622767 36.46008037 341.67067296 38.08198488 340.56542969 39.70410156 C333.80897716 49.61328427 326.98080693 59.47185746 320.125 69.3125 C313.52233814 78.79058995 306.98022019 88.30823923 300.46875 97.84912109 C293.73812728 107.70563476 286.94763418 117.51947275 280.125 127.3125 C273.52233814 136.79058995 266.98022019 146.30823923 260.46875 155.84912109 C253.73812728 165.70563476 246.94763418 175.51947275 240.125 185.3125 C233.54463701 194.75858003 227.02416801 204.24379556 220.53466797 213.75244141 C217.94415991 217.54630351 215.34858202 221.33666457 212.75 225.125 C212.28360107 225.8068335 211.81720215 226.48866699 211.33666992 227.19116211 C208.11485411 231.88514589 208.11485411 231.88514589 207 233 C206.89101472 234.9992777 206.85309356 237.00243987 206.84178162 239.00465393 C206.8319928 240.31022247 206.82220398 241.61579102 206.81211853 242.96092224 C206.80621355 244.4212948 206.80040316 245.88166774 206.79467773 247.34204102 C206.78510472 248.86926543 206.77509499 250.39648716 206.76467896 251.92370605 C206.7375613 256.08258801 206.71658902 260.2414814 206.69667697 264.40040326 C206.67485958 268.74196806 206.64745018 273.08349737 206.62062073 277.42503357 C206.57063623 285.65211008 206.52571884 293.87920624 206.48259836 302.10632128 C206.43327508 311.47015585 206.37833881 320.83395481 206.32291877 330.19775498 C206.20901037 349.46513845 206.10293181 368.73255454 206 388 C190.82 388 175.64 388 160 388 C160.05667847 381.15157349 160.05667847 381.15157349 160.11450195 374.16479492 C160.23022161 359.0255735 160.27440739 343.88675432 160.28240681 328.74711132 C160.28897853 319.57392956 160.31943036 310.40203532 160.40795898 301.22924805 C160.48514308 293.22542127 160.5156283 285.22294319 160.49218339 277.2187565 C160.48136469 272.98774994 160.49246596 268.75958919 160.55968666 264.5290432 C160.83911166 245.93897441 160.9139197 231.14479843 147.53769398 216.70277882 C145.33142193 214.25964425 143.57615036 211.62818764 141.7578125 208.88671875 C140.54737592 207.15329594 139.33644483 205.42021832 138.125 203.6875 C131.50713326 194.19832133 124.97119291 184.65571586 118.46484375 175.08984375 C114.10368222 168.67806192 109.70909513 162.28948323 105.31054688 155.90332031 C103.03844939 152.60353044 100.76942087 149.30163099 98.5 146 C97.58334714 144.66665718 96.66668049 143.33332383 95.75 142 C68.25 102 68.25 102 66.8762207 100.00170898 C65.95556784 98.66262209 65.03483159 97.32359253 64.11401367 95.98461914 C61.88266308 92.73976998 59.65256052 89.49408198 57.42578125 86.24609375 C52.06622751 78.43293873 46.66831807 70.64752861 41.25 62.875 C33.99625488 52.46595334 26.8400506 41.99276549 19.70458984 31.50244141 C17.14541452 27.74541662 14.57461892 23.99645246 12 20.25 C11.55897949 19.60659668 11.11795898 18.96319336 10.66357422 18.30029297 C7.56303582 13.78643076 4.38771873 9.3308304 1.14453125 4.91796875 C0 3 0 3 0 0 Z " fill="#143158" transform="translate(1260,148)"/>
<path d="M0 0 C0.85207031 0.32742187 1.70414063 0.65484375 2.58203125 0.9921875 C16.84810702 7.14794303 26.24869549 19.77064655 31.875 33.8125 C37.20852087 48.02933543 36.25738975 64.0972615 30.78125 78.12109375 C27.36205591 85.57683641 22.81495389 91.26483964 17 97 C16.36191406 97.64839844 15.72382813 98.29679687 15.06640625 98.96484375 C3.5314939 109.92420954 -10.99444923 113.52426908 -26.4453125 113.41967773 C-43.3447003 112.9272012 -57.00528839 106.02941208 -68.58984375 93.828125 C-79.0236516 81.58488856 -84.13703488 66.03944951 -83 50 C-81.33268805 32.73979882 -73.26863051 18.13654168 -60 7 C-42.61447052 -5.3381177 -19.78926002 -8.52547293 0 0 Z M-62.859375 20.21484375 C-72.18757714 32.3517199 -76.13900352 45.80142172 -75 61 C-72.49223979 76.7910526 -64.38719486 88.93733111 -51.59375 98.46484375 C-38.315679 106.32370204 -23.86528542 107.70378598 -9.16796875 103.96484375 C3.46656549 100.11684134 14.14806151 91.31528774 21 80 C22.92890359 75.74639183 24.56087963 71.44224344 26 67 C26.20238281 66.37609375 26.40476563 65.7521875 26.61328125 65.109375 C29.0672555 51.72406093 26.54289812 37.81657493 19.53125 26.1875 C10.93146494 13.90209276 0.11443504 6.9309117 -14.421875 3.4140625 C-32.95294397 0.43786051 -50.01415912 6.7458494 -62.859375 20.21484375 Z " fill="#143158" transform="translate(4222,134)"/>
<path d="M0 0 C5.23875 -0.061875 10.4775 -0.12375 15.875 -0.1875 C17.50679199 -0.21481201 19.13858398 -0.24212402 20.81982422 -0.27026367 C29.86705955 -0.32181329 38.90234634 -0.37265135 46.4375 5.3125 C51.43721594 10.55610452 53 15.88719461 53 23 C52.3605888 28.48494923 50.51480611 32.68180963 47 37 C42.8 40 42.8 40 40 40 C40.63615234 40.93851807 40.63615234 40.93851807 41.28515625 41.89599609 C43.19488001 44.71913444 45.09751375 47.5469799 47 50.375 C48.00160156 51.85226563 48.00160156 51.85226563 49.0234375 53.359375 C49.65507812 54.30039063 50.28671875 55.24140625 50.9375 56.2109375 C51.52402344 57.08024902 52.11054688 57.94956055 52.71484375 58.84521484 C54 61 54 61 54 63 C48.32985432 64.16119151 42.52042566 65.20672639 37 63 C33.37679406 59.51132815 30.95981024 55.27565882 28.63989258 50.84643555 C26.08305852 45.83284695 26.08305852 45.83284695 21.39794922 43.17919922 C18.31953993 42.8160908 18.31953993 42.8160908 14 43 C14 49.6 14 56.2 14 63 C9.38 63 4.76 63 0 63 C0 42.21 0 21.42 0 0 Z M14 13 C14 18.61 14 24.22 14 30 C17.08427046 30.10800947 20.16475747 30.18731002 23.25 30.25 C24.55904297 30.30027344 24.55904297 30.30027344 25.89453125 30.3515625 C31.06607971 30.48888651 31.06607971 30.48888651 35.55078125 28.16796875 C37.44320766 25.33698046 37.93048528 23.40622104 38 20 C36.7485761 16.9409638 35.82512983 15.44560084 32.90234375 13.8671875 C29.1380978 12.74247337 25.57136258 12.78546078 21.6875 12.875 C19.150625 12.91625 16.61375 12.9575 14 13 Z " fill="#143158" transform="translate(4174,155)"/>
</svg>
