<?xml version="1.0" encoding="UTF-8"?>
<svg version="1.1" xmlns="http://www.w3.org/2000/svg" width="793" height="181">
<path d="M0 0 C1.04285156 -0.020625 2.08570313 -0.04125 3.16015625 -0.0625 C15.02538904 -0.1217521 25.58863573 2.97388868 34.453125 11.171875 C44.9502704 22.55113346 44.69938011 37.35160041 44.5 52.0625 C44.45875 56.414375 44.4175 60.76625 44.375 65.25 C31.835 65.25 19.295 65.25 6.375 65.25 C5.9375 46.875 5.9375 46.875 5.80688477 41.07666016 C5.76876738 39.5641181 5.73029872 38.05158483 5.69140625 36.5390625 C5.67493042 35.75039795 5.65845459 34.9617334 5.64147949 34.14916992 C5.62365462 30.06716651 5.62365462 30.06716651 4.375 26.25 C1.99415122 25.40701426 1.99415122 25.40701426 -0.625 25.25 C-3.7008696 26.87028164 -3.7008696 26.87028164 -4.30414295 29.14256287 C-4.82957399 32.59367261 -4.77227788 36.05285556 -4.77026367 39.53515625 C-4.77362228 40.36812225 -4.7769809 41.20108826 -4.78044128 42.05929565 C-4.78993378 44.81037897 -4.79189337 47.56140133 -4.79296875 50.3125 C-4.7961819 52.22534205 -4.79954602 54.13818386 -4.80305481 56.05102539 C-4.80904138 60.05908783 -4.81089513 64.06712872 -4.81030273 68.07519531 C-4.810201 73.21342049 -4.82386703 78.35150784 -4.84107494 83.48970032 C-4.85218596 87.43933753 -4.85422224 91.38894129 -4.85369301 95.33859253 C-4.85487395 97.23323035 -4.85930209 99.12786901 -4.86702538 101.02249146 C-4.87680951 103.670041 -4.87395375 106.31728948 -4.86791992 108.96484375 C-4.87353943 109.74834198 -4.87915894 110.53184021 -4.88494873 111.33908081 C-4.92973405 116.65024953 -4.92973405 116.65024953 -2.625 121.25 C0.93706661 122.06870185 0.93706661 122.06870185 4.375 122.25 C5.5236567 118.53832638 5.58042433 114.94663773 5.69140625 111.078125 C5.72951416 109.8293457 5.76762207 108.58056641 5.80688477 107.29394531 C5.84998779 105.71194336 5.89309082 104.12994141 5.9375 102.5 C6.081875 97.4675 6.22625 92.435 6.375 87.25 C18.915 87.25 31.455 87.25 44.375 87.25 C44.86743145 125.16722143 44.86743145 125.16722143 35.296875 135.51953125 C25.04890466 144.7468704 14.08688852 147.82352115 0.5625 147.6875 C-0.49195313 147.67992676 -1.54640625 147.67235352 -2.6328125 147.66455078 C-15.42893345 147.39434909 -24.93806318 144.55083497 -34.3359375 135.625 C-47.83127499 121.40552245 -43.94394363 94.65953733 -43.88574219 76.50268555 C-43.87433744 72.90683132 -43.88113396 69.31127256 -43.89260674 65.71542835 C-44.00882818 23.07479865 -44.00882818 23.07479865 -33.875 11.19921875 C-24.46049361 2.03968857 -12.52699855 0.06059008 0 0 Z " fill="#FF0000" transform="translate(273.625,19.75)"/>
<path d="M0 0 C8.03993776 5.81147675 11.93758478 12.18692578 13.85546875 21.87890625 C15.29010272 34.03037857 15.27159548 45.94677782 15.125 58.1875 C2.585 58.1875 -9.955 58.1875 -22.875 58.1875 C-23.3125 40.9375 -23.3125 40.9375 -23.44311523 35.51074219 C-23.48125504 34.08527697 -23.51972559 32.65982054 -23.55859375 31.234375 C-23.57506958 30.49912598 -23.59154541 29.76387695 -23.60852051 29.00634766 C-23.70498563 25.61216152 -23.83267877 22.43687152 -24.875 19.1875 C-28.16196233 18.38796862 -29.58523192 18.09091064 -32.875 19.1875 C-34.1556424 23.0294272 -34.01431593 26.64740439 -34.00439453 30.65039062 C-34.00614685 31.51407761 -34.00789917 32.37776459 -34.00970459 33.2676239 C-34.01411061 36.12635296 -34.01118949 38.9850203 -34.0078125 41.84375 C-34.0084859 43.82767753 -34.00945622 45.81160498 -34.01071167 47.79553223 C-34.01218695 51.95500473 -34.01003952 56.11445577 -34.00537109 60.27392578 C-33.99967391 65.61065631 -34.00295382 70.94733656 -34.00894356 76.28406525 C-34.01255374 80.38120911 -34.01140847 84.47834101 -34.00881577 88.57548523 C-34.00814776 90.54351304 -34.00897051 92.51154193 -34.01129532 94.47956848 C-34.01382929 97.22794479 -34.00997065 99.97623918 -34.00439453 102.72460938 C-34.00641876 103.54132614 -34.00844299 104.35804291 -34.01052856 105.19950867 C-33.99826273 108.45602299 -33.91225496 111.07573512 -32.875 114.1875 C-30.52132287 114.8753236 -30.52132287 114.8753236 -27.875 115.1875 C-24.8404235 113.57779993 -24.8404235 113.57779993 -24.20727539 111.48339844 C-23.77073418 108.46706222 -23.65213521 105.49990397 -23.55859375 102.453125 C-23.52048584 101.28555664 -23.48237793 100.11798828 -23.44311523 98.91503906 C-23.40001221 97.43745117 -23.35690918 95.95986328 -23.3125 94.4375 C-23.168125 89.735 -23.02375 85.0325 -22.875 80.1875 C-10.335 80.1875 2.205 80.1875 15.125 80.1875 C15.125 118.08064115 15.125 118.08064115 5.4375 128.5 C-4.38389204 137.52113047 -15.51282853 140.7557792 -28.625 140.625 C-29.68468994 140.61742676 -30.74437988 140.60985352 -31.83618164 140.60205078 C-43.37020279 140.35967623 -54.04693807 138.17734191 -62.875 130.1875 C-71.58471366 120.38667936 -72.98213515 107.30097251 -73.02026367 94.66088867 C-73.02530159 93.60299385 -73.02530159 93.60299385 -73.03044128 92.52372742 C-73.03985447 90.21762273 -73.0418895 87.91159139 -73.04296875 85.60546875 C-73.04618802 83.984156 -73.04955258 82.36284353 -73.05305481 80.74153137 C-73.05902202 77.3516879 -73.0608972 73.96186983 -73.06030273 70.57202148 C-73.06020125 66.25516418 -73.07385022 61.93847184 -73.09107494 57.62165356 C-73.10226187 54.27479828 -73.1042199 50.92798205 -73.10369301 47.58111 C-73.10486318 45.99090316 -73.10923004 44.40069498 -73.11702538 42.81050682 C-73.2377936 15.6317502 -73.2377936 15.6317502 -63.93359375 4.9609375 C-47.53119942 -10.70789715 -18.86345601 -11.55347963 0 0 Z " fill="#FF0000" transform="translate(151.875,26.8125)"/>
<path d="M0 0 C7.56396451 6.66349255 9.01405252 13.46919296 9.79269409 23.1854248 C10.23528544 31.32941835 10.12043917 39.48714782 10.09765625 47.640625 C10.09578766 49.61887577 10.09436584 51.59712701 10.09336853 53.57537842 C10.08957804 58.74393017 10.07977797 63.91245315 10.06866455 69.08099365 C10.05837527 74.37039806 10.05385491 79.65980719 10.04882812 84.94921875 C10.03815208 95.29949375 10.02058398 105.64973996 10 116 C-2.21 116 -14.42 116 -27 116 C-27.33 83.99 -27.66 51.98 -28 19 C-30.97 19.495 -30.97 19.495 -34 20 C-35.67986226 23.35972452 -35.18091527 27.15903397 -35.20532227 30.85595703 C-35.21522186 31.77308472 -35.22512146 32.6902124 -35.23532104 33.63513184 C-35.26698715 36.67599885 -35.29171366 39.71688151 -35.31640625 42.7578125 C-35.33697136 44.86246148 -35.35796771 46.96710629 -35.37937927 49.07174683 C-35.43464565 54.61851631 -35.48403478 60.16532334 -35.53222656 65.7121582 C-35.58240828 71.36933749 -35.6381117 77.02646207 -35.69335938 82.68359375 C-35.8009968 93.78901755 -35.90191928 104.89448768 -36 116 C-48.21 116 -60.42 116 -73 116 C-73 77.39 -73 38.78 -73 -1 C-60.79 -1 -48.58 -1 -36 -1 C-35.505 2.465 -35.505 2.465 -35 6 C-34.278125 5.236875 -33.55625 4.47375 -32.8125 3.6875 C-24.57061552 -4.1880785 -9.93966739 -6.53925486 0 0 Z " fill="#FF0000" transform="translate(586,49)"/>
<path d="M0 0 C11.88 0 23.76 0 36 0 C36.02505615 2.83706543 36.0501123 5.67413086 36.07592773 8.59716797 C36.15926746 17.95302581 36.24797047 27.3088272 36.33933926 36.66460991 C36.39459009 42.3390493 36.44801354 48.01349383 36.49731445 53.68798828 C36.54492614 59.16041794 36.59726777 64.63278349 36.65294075 70.10513687 C36.67337881 72.1967828 36.69208945 74.28844632 36.70907402 76.38012314 C36.73308593 79.30149468 36.76314485 82.22274432 36.79467773 85.14404297 C36.80331093 86.45171127 36.80331093 86.45171127 36.81211853 87.78579712 C36.74675111 92.02795794 36.74675111 92.02795794 38 96 C39.66611905 96.042721 41.33382885 96.04063832 43 96 C46.343138 92.656862 45.17172426 82.68652554 45.20532227 78.10546875 C45.21522186 77.2557399 45.22512146 76.40601105 45.23532104 75.53053284 C45.26665877 72.74954927 45.29158263 69.96854868 45.31640625 67.1875 C45.33699979 65.24836813 45.35799686 63.30924052 45.37937927 61.37011719 C45.43435225 56.28704282 45.48386993 51.20392962 45.53222656 46.12078857 C45.58262342 40.92554299 45.63821421 35.73035322 45.69335938 30.53515625 C45.80063757 20.35681692 45.90166838 10.1784297 46 0 C57.88 0 69.76 0 82 0 C82 38.61 82 77.22 82 117 C69.79 117 57.58 117 45 117 C44.67 115.02 44.34 113.04 44 111 C43.21625 111.763125 42.4325 112.52625 41.625 113.3125 C35.62474747 118.22179752 28.9825296 119.29971727 21.375 119 C13.95800873 118.1884939 9.15482104 115.54732152 4.125 110.125 C-0.22325505 103.73050729 -0.28624664 97.51639766 -0.22705078 90.02563477 C-0.22734283 89.04925552 -0.22763489 88.07287628 -0.22793579 87.06690979 C-0.22654892 83.85831638 -0.21101792 80.64995881 -0.1953125 77.44140625 C-0.19158009 75.20938748 -0.18873419 72.97736707 -0.18673706 70.74534607 C-0.17911859 64.88456663 -0.1594854 59.02388708 -0.1373291 53.16314697 C-0.1168322 47.17713777 -0.10772712 41.19111235 -0.09765625 35.20507812 C-0.07623784 23.47000125 -0.04107022 11.73502458 0 0 Z " fill="#FF0000" transform="translate(420,48)"/>
<path d="M0 0 C6.77817581 4.93071721 11.62257854 12.11168197 13.125 20.375 C14.02455464 26.77071373 14.28487938 33.08244001 14.29296875 39.53515625 C14.29796135 40.95736732 14.29796135 40.95736732 14.30305481 42.40830994 C14.30808959 44.40590942 14.31046421 46.40351722 14.31030273 48.40112305 C14.31247643 51.40493214 14.33063421 54.40836564 14.34960938 57.41210938 C14.45558722 92.7078392 14.45558722 92.7078392 3.8125 104.25 C-5.16303328 112.52462396 -17.45218416 114.71162559 -29.328125 114.52734375 C-39.33069033 113.92903079 -49.88831529 112.60284138 -57.75 105.9375 C-58.45125 105.091875 -59.1525 104.24625 -59.875 103.375 C-60.57625 102.6325 -61.2775 101.89 -62 101.125 C-68.25209696 91.95525779 -68.03773715 80.82464295 -68.078125 70.15234375 C-68.08382507 68.97466934 -68.08952515 67.79699493 -68.09539795 66.58363342 C-68.10482209 64.09490856 -68.11137162 61.60617135 -68.11523438 59.11743164 C-68.12490492 55.34954459 -68.15593969 51.58221157 -68.1875 47.81445312 C-68.34123438 13.35993216 -68.34123438 13.35993216 -57.1640625 1.5703125 C-42.13720741 -11.17398232 -16.11816873 -9.50350987 0 0 Z M-30.875 16.375 C-32.20083563 19.74208752 -32.00838608 23.22955466 -32.02026367 26.80834961 C-32.02664352 28.11327866 -32.03302338 29.4182077 -32.03959656 30.76268005 C-32.04112525 32.18423424 -32.0422392 33.60578893 -32.04296875 35.02734375 C-32.04618341 36.4893853 -32.04954764 37.95142653 -32.05305481 39.41346741 C-32.05903724 42.47576646 -32.06089559 45.53803732 -32.06030273 48.6003418 C-32.06020109 52.51883504 -32.07385954 56.43714718 -32.09107494 60.3555975 C-32.10220771 63.37452521 -32.10422156 66.39340929 -32.10369301 69.41235542 C-32.10487096 70.85680326 -32.10928234 72.30125229 -32.11702538 73.74567986 C-32.12685174 75.767848 -32.12267614 77.79006943 -32.11791992 79.81225586 C-32.11934494 80.96157089 -32.12076996 82.11088593 -32.12223816 83.29502869 C-31.87098226 86.42505098 -31.34512093 88.60703011 -29.875 91.375 C-27.42960214 92.44772562 -27.42960214 92.44772562 -24.875 92.375 C-22.00718517 89.50718517 -22.61476192 87.51098043 -22.6003418 83.49438477 C-22.59523087 82.78690094 -22.59011993 82.07941711 -22.58485413 81.35049438 C-22.57092439 79.00571291 -22.57191742 76.66122425 -22.57421875 74.31640625 C-22.57033356 72.68977244 -22.56599926 71.06313965 -22.56123352 69.43650818 C-22.55376397 66.02428908 -22.5540678 62.61217344 -22.55932617 59.19995117 C-22.56512072 54.82374439 -22.54819398 50.44796086 -22.5249815 46.07182407 C-22.5102605 42.71153785 -22.50937023 39.35135393 -22.51249123 35.99104118 C-22.51197715 34.37747293 -22.50672329 32.76389909 -22.49667931 31.15036201 C-22.48436394 28.8949637 -22.49107636 26.64039447 -22.50268555 24.38500977 C-22.50205612 23.10086685 -22.5014267 21.81672394 -22.5007782 20.4936676 C-22.61616073 17.40407549 -22.61616073 17.40407549 -24.27326965 15.43687439 C-27.20548373 13.49294979 -27.91889196 14.40426131 -30.875 16.375 Z " fill="#FF0000" transform="translate(395.875,52.625)"/>
<path d="M0 0 C20.46 0 40.92 0 62 0 C62 9.9 62 19.8 62 30 C54.08 30 46.16 30 38 30 C38 38.25 38 46.5 38 55 C45.59 55 53.18 55 61 55 C61 64.24 61 73.48 61 83 C53.41 83 45.82 83 38 83 C38 92.9 38 102.8 38 113 C46.91 113 55.82 113 65 113 C65 122.9 65 132.8 65 143 C43.55 143 22.1 143 0 143 C0 95.81 0 48.62 0 0 Z " fill="#FF0000" transform="translate(6,22)"/>
<path d="M0 0 C7.55514261 5.78053226 10.44362307 13.63999034 12.26171875 22.73046875 C12.26171875 28.34046875 12.26171875 33.95046875 12.26171875 39.73046875 C1.04171875 39.73046875 -10.17828125 39.73046875 -21.73828125 39.73046875 C-22.11328125 28.91796875 -22.11328125 28.91796875 -22.21630859 25.52026367 C-22.25191895 24.63443604 -22.2875293 23.7486084 -22.32421875 22.8359375 C-22.35563965 21.92996826 -22.38706055 21.02399902 -22.41943359 20.09057617 C-22.59856044 17.46521483 -22.59856044 17.46521483 -24.73828125 14.73046875 C-26.7136487 15.07833583 -26.7136487 15.07833583 -28.73828125 15.73046875 C-30.15583342 18.56557309 -29.86555365 20.95023853 -29.86767578 24.12036133 C-29.8694281 24.77586472 -29.87118042 25.4313681 -29.87298584 26.10673523 C-29.87739632 28.27951689 -29.87446818 30.45221747 -29.87109375 32.625 C-29.87176726 34.13474035 -29.87273769 35.6444806 -29.87399292 37.15422058 C-29.875469 40.32263214 -29.87331911 43.49101554 -29.86865234 46.65942383 C-29.86296972 50.71468519 -29.86622529 54.76988015 -29.87222481 58.82513905 C-29.87584532 61.94529212 -29.87468473 65.06542956 -29.87209702 68.18558311 C-29.87143111 69.68026424 -29.8722444 71.17494679 -29.87457657 72.66962624 C-29.87712591 74.76391963 -29.87322977 76.85810704 -29.86767578 78.95239258 C-29.86688019 80.14326981 -29.86608459 81.33414703 -29.86526489 82.56111145 C-29.75116452 85.40891794 -29.39382975 87.96339035 -28.73828125 90.73046875 C-26.75828125 90.73046875 -24.77828125 90.73046875 -22.73828125 90.73046875 C-21.10322961 87.11327557 -20.45692843 84.17010969 -20.32421875 80.2109375 C-20.2886084 79.28949951 -20.25299805 78.36806152 -20.21630859 77.41870117 C-20.18230957 76.26345947 -20.14831055 75.10821777 -20.11328125 73.91796875 C-19.98953125 70.22609375 -19.86578125 66.53421875 -19.73828125 62.73046875 C-9.17828125 62.73046875 1.38171875 62.73046875 12.26171875 62.73046875 C12.98196879 92.4407828 12.98196879 92.4407828 2.26171875 103.73046875 C-6.63431052 112.00584481 -17.42568888 114.0663538 -29.25390625 113.8828125 C-39.94826657 113.22702625 -50.10520894 110.98500403 -58.171875 103.5546875 C-66.6963771 93.62715014 -67.0479408 81.09804399 -67.0390625 68.67578125 C-67.04296036 67.32493969 -67.04729722 65.97409933 -67.05204773 64.6232605 C-67.05946806 61.80430106 -67.05924947 58.98546696 -67.05395508 56.16650391 C-67.04816768 52.58379903 -67.06509378 49.00161236 -67.08829975 45.418993 C-67.10315125 42.6322844 -67.10389341 39.84569732 -67.10079002 37.05895615 C-67.10154144 35.10553451 -67.11531843 33.1521315 -67.12947083 31.19876099 C-67.07520457 20.6447867 -66.28139839 11.24473721 -58.60546875 3.44140625 C-57.98929688 2.87679687 -57.373125 2.3121875 -56.73828125 1.73046875 C-55.96871094 1.00730469 -55.96871094 1.00730469 -55.18359375 0.26953125 C-40.22597567 -12.00911046 -15.41683251 -9.80191078 0 0 Z " fill="#FF0000" transform="translate(672.73828125,53.26953125)"/>
<path d="M0 0 C12.21 0 24.42 0 37 0 C37 47.19 37 94.38 37 143 C24.79 143 12.58 143 0 143 C0 95.81 0 48.62 0 0 Z " fill="#FF0000" transform="translate(744,22)"/>
<path d="M0 0 C12.21 0 24.42 0 37 0 C37 38.61 37 77.22 37 117 C24.79 117 12.58 117 0 117 C0 78.39 0 39.78 0 0 Z " fill="#FF0000" transform="translate(695,48)"/>
<path d="M0 0 C15.51 0 31.02 0 47 0 C47 8.25 47 16.5 47 25 C31.49 25 15.98 25 0 25 C0 16.75 0 8.5 0 0 Z " fill="#FF0000" transform="translate(175,94)"/>
<path d="M0 0 C12.21 0 24.42 0 37 0 C37 6.6 37 13.2 37 20 C24.79 20 12.58 20 0 20 C0 13.4 0 6.8 0 0 Z " fill="#FF0000" transform="translate(695,22)"/>
</svg>
