<?xml version="1.0" encoding="UTF-8"?>
<svg version="1.1" xmlns="http://www.w3.org/2000/svg" width="1110" height="433">
<path d="M0 0 C24 0 24 0 31 6 C32.8354748 8.14315555 34.5603307 10.25246346 36.25 12.5 C37.20558736 13.74229659 38.16132059 14.98448099 39.1171875 16.2265625 C39.59639648 16.8546582 40.07560547 17.48275391 40.56933594 18.12988281 C42.81384111 21.06382644 45.09283363 23.97031143 47.375 26.875 C47.82254639 27.44597412 48.27009277 28.01694824 48.73120117 28.60522461 C52.29067282 33.13300332 55.91933444 37.60193708 59.5625 42.0625 C64.28193428 47.84080823 68.86527936 53.6979608 73.38671875 59.6328125 C76.96930992 64.29088211 80.70890657 68.8240474 84.44726562 73.35742188 C84.96611328 73.98970703 85.48496094 74.62199219 86.01953125 75.2734375 C86.47432861 75.82435059 86.92912598 76.37526367 87.39770508 76.94287109 C89.69346902 79.89031997 91.82847148 82.95986007 94 86 C94.33 57.62 94.66 29.24 95 0 C104.57 0 114.14 0 124 0 C124 46.86 124 93.72 124 142 C100.2987013 142 100.2987013 142 95.015625 137.1953125 C90.36979906 131.74777324 85.95614605 126.14401648 81.625 120.4453125 C75.06187092 111.81038968 68.296798 103.33825839 61.4375 94.9375 C56.68436232 89.11495855 52.04665298 83.22196241 47.48828125 77.24609375 C44.25930957 73.01777165 40.96151695 68.84362948 37.66552734 64.66748047 C35.40677716 61.8028262 33.18924783 58.91899711 31 56 C30.67 84.38 30.34 112.76 30 142 C20.1 142 10.2 142 0 142 C0 95.14 0 48.28 0 0 Z " fill="#025B7C" transform="translate(202,147)"/>
<path d="M0 0 C14.00861118 11.97992511 22.41633609 27.86139888 25.1875 46.06640625 C26.66804085 69.38492467 21.92421288 89.52440059 6.625 107.75390625 C-5.85874014 121.19609093 -23.68165019 128.51903946 -41.8046875 129.38671875 C-63.72413647 129.97684546 -82.95986918 126.32745648 -100.03515625 111.43359375 C-114.03766584 97.9721394 -121.74685002 80.56399824 -122.765625 61.12890625 C-123.17270052 39.64724577 -117.48009315 20.1898403 -102.4375 4.31640625 C-74.97687387 -21.94539309 -29.75967352 -23.18169691 0 0 Z M-78.3125 24.62890625 C-88.55560461 36.9920953 -88.56501259 52.80379914 -87.5625 68.00390625 C-86.16871801 78.47403487 -80.84208522 87.89475747 -72.5625 94.44140625 C-62.11236666 101.5968167 -49.91959994 102.36926621 -37.64453125 100.578125 C-28.35240796 98.17015028 -20.75753431 92.60775206 -15.80859375 84.40625 C-8.94452298 71.17301012 -7.04047106 55.46552852 -10.75 40.87890625 C-11.30364209 39.23600552 -11.90730194 37.60900994 -12.5625 36.00390625 C-12.91441406 35.13507813 -13.26632812 34.26625 -13.62890625 33.37109375 C-18.08766444 23.51179346 -24.54137998 17.95068583 -34.5625 14.00390625 C-50.39974104 8.8149126 -66.75354186 12.67222052 -78.3125 24.62890625 Z " fill="#025B7C" transform="translate(572.5625,160.99609375)"/>
<path d="M0 0 C33.66 0 67.32 0 102 0 C100.02 2.64 98.04 5.28 96 8 C94.76562172 9.83693052 93.55322932 11.68905954 92.375 13.5625 C91.82585937 14.43003906 91.27671875 15.29757813 90.7109375 16.19140625 C88.74265827 19.42243997 86.87706495 22.71513634 85 26 C68.17 26 51.34 26 34 26 C34 36.56 34 47.12 34 58 C47.86 58 61.72 58 76 58 C75.67 66.25 75.34 74.5 75 83 C61.47 83 47.94 83 34 83 C34 93.89 34 104.78 34 116 C50.83 116 67.66 116 85 116 C89.455 123.92 89.455 123.92 94 132 C96.80039792 135.39229881 96.80039792 135.39229881 99.78515625 138.6171875 C101 140 101 140 101 142 C67.67 142 34.34 142 0 142 C0 95.14 0 48.28 0 0 Z " fill="#025B7C" transform="translate(726,147)"/>
<path d="M0 0 C1.26140512 1.0489344 2.51613224 2.10630779 3.75 3.1875 C2.4171703 7.62363466 0.66262725 11.38736474 -1.6875 15.375 C-2.58275391 16.91220703 -2.58275391 16.91220703 -3.49609375 18.48046875 C-6.39857577 22.96024613 -6.39857577 22.96024613 -8.25 24.1875 C-14.08875018 24.92090399 -17.95124825 23.33508231 -23 20.75 C-31.22279743 16.68687602 -38.20166993 14.71284938 -47.453125 16.6484375 C-51.996481 18.32750385 -54.19057558 20.90389721 -56.25 25.1875 C-56.94363499 29.50345107 -56.63875211 31.4932998 -54.5 35.3125 C-48.93293558 41.14172535 -40.03316887 42.95221095 -32.5859375 45.3671875 C-18.07528596 50.07465639 -5.19584164 54.79748505 2.52734375 68.69921875 C7.39420082 78.60397259 7.09307332 90.53754153 4.125 101 C-0.81070958 115.033237 -8.80829626 123.37065286 -22.0625 129.9609375 C-38.05477471 136.11482752 -57.71445063 134.9246329 -73.32128906 128.30957031 C-81.07096396 124.8648802 -88.19906732 121.23843268 -94.25 115.1875 C-92.73212384 110.99564512 -90.64529828 107.27956125 -88.3125 103.5 C-87.96509766 102.91927734 -87.61769531 102.33855469 -87.25976562 101.74023438 C-85.4449702 98.7839292 -84.18466727 97.14394485 -81.25 95.1875 C-73.21012285 93.86948735 -68.17176213 97.11131143 -61.58203125 101.2421875 C-55.89653674 104.56150317 -51.31535036 105.47998369 -44.75 105.5 C-43.4815625 105.51675781 -42.213125 105.53351563 -40.90625 105.55078125 C-35.63787612 105.02732102 -32.41784588 103.47827703 -28.875 99.5625 C-26.79683574 95.2463127 -26.54400212 91.89415253 -27.25 87.1875 C-29.11283662 82.53040844 -32.04013505 80.74735145 -36.25 78.1875 C-38.48534576 77.31634811 -40.75516926 76.53007379 -43.046875 75.8203125 C-44.34900098 75.40508162 -45.65108291 74.98971259 -46.953125 74.57421875 C-48.9701268 73.94305144 -50.98834309 73.31609743 -53.0078125 72.69287109 C-65.46698444 68.82380961 -76.65632794 64.39386593 -84.25 53.1875 C-90.27091622 40.779177 -90.67899049 28.12349487 -86.25 15.1875 C-80.1890609 2.08378742 -70.60775145 -4.91798546 -57.3203125 -9.9140625 C-38.80837312 -15.33104222 -15.3231994 -11.81461636 0 0 Z " fill="#025B7C" transform="translate(702.25,156.8125)"/>
<path d="M0 0 C0.99 0.99 0.99 0.99 2 2 C1.63503594 5.10719125 0.39775986 7.15104851 -1.43359375 9.63671875 C-2.1596582 10.62575195 -2.1596582 10.62575195 -2.90039062 11.63476562 C-3.40763672 12.31216797 -3.91488281 12.98957031 -4.4375 13.6875 C-4.94087891 14.37650391 -5.44425781 15.06550781 -5.96289062 15.77539062 C-9.73206967 20.86603484 -9.73206967 20.86603484 -12 22 C-18.69904101 22.83738013 -21.79819161 21.13712148 -27.3671875 17.53515625 C-35.59770638 12.73605548 -45.44267314 11.69232499 -54.703125 13.5390625 C-64.68049593 16.25744799 -71.57630252 22.00217087 -76.8671875 30.8203125 C-83.55590589 43.69032926 -84.02831291 60.51869338 -79.97265625 74.2890625 C-76.28750986 84.56011307 -71.6301917 91.8270418 -61.75 96.875 C-52.56671224 101.18144861 -41.63950723 101.46132695 -31.734375 99.28125 C-27.8806542 97.81541755 -24.88432733 96.05008705 -21.8125 93.3125 C-18.28915872 90.4155305 -16.56810923 89.68495798 -12 90 C-8.93429002 91.94305562 -6.5218553 94.40663652 -4 97 C-3.24589844 97.7425 -2.49179687 98.485 -1.71484375 99.25 C0.20849234 101.1495912 2.11128682 103.06607826 4 105 C0.4908313 114.71642464 -8.15494555 119.78243547 -17.09521484 124.13818359 C-33.54471902 131.58073034 -55.79353796 131.79436463 -72.8203125 126.25390625 C-90.95610131 119.10207798 -103.31081204 108.0039143 -111.68359375 90.27734375 C-119.88605565 69.85637778 -120.65393175 45.38300276 -112 25 C-104.58034609 8.3564594 -92.60543432 -3.71173687 -75.80078125 -10.9375 C-49.8657804 -20.77616141 -21.80910445 -17.02581927 0 0 Z " fill="#025B7C" transform="translate(944,161)"/>
<path d="M0 0 C33.99 0 67.98 0 103 0 C101.02 2.64 99.04 5.28 97 8 C95.61930737 9.84993159 94.24356507 11.70357862 92.875 13.5625 C92.23304688 14.43003906 91.59109375 15.29757813 90.9296875 16.19140625 C88.76616292 19.34034183 86.89552567 22.68283007 85 26 C68.17 26 51.34 26 34 26 C34 37.55 34 49.1 34 61 C47.53 61 61.06 61 75 61 C75 65.29 75 69.58 75 74 C75.495 80.435 75.495 80.435 76 87 C62.14 87 48.28 87 34 87 C34 105.15 34 123.3 34 142 C22.78 142 11.56 142 0 142 C0 95.14 0 48.28 0 0 Z " fill="#025B7C" transform="translate(353,147)"/>
<path d="M0 0 C11.22 0 22.44 0 34 0 C34 46.86 34 93.72 34 142 C22.78 142 11.56 142 0 142 C0 95.14 0 48.28 0 0 Z " fill="#025B7C" transform="translate(142,147)"/>
<path d="M0 0 C0.99 0 1.98 0 3 0 C3.66 1.65 4.32 3.3 5 5 C5.433125 4.175 5.86625 3.35 6.3125 2.5 C6.869375 1.675 7.42625 0.85 8 0 C8.99 0 9.98 0 11 0 C11 3.63 11 7.26 11 11 C10.34 11 9.68 11 9 11 C8.67 10.01 8.34 9.02 8 8 C7.67 8.99 7.34 9.98 7 11 C6.01 11 5.02 11 4 11 C3.67 10.34 3.34 9.68 3 9 C2.67 9.66 2.34 10.32 2 11 C1.34 11 0.68 11 0 11 C0 7.37 0 3.74 0 0 Z " fill="#025B7C" transform="translate(954,279)"/>
<path d="M0 0 C2.97 0 5.94 0 9 0 C9 0.66 9 1.32 9 2 C8.01 2 7.02 2 6 2 C6 4.97 6 7.94 6 11 C5.34 11 4.68 11 4 11 C4 8.03 4 5.06 4 2 C2.68 2 1.36 2 0 2 C0 1.34 0 0.68 0 0 Z " fill="#025B7C" transform="translate(944,279)"/>
</svg>
