<?xml version="1.0" encoding="UTF-8"?>
<svg version="1.1" xmlns="http://www.w3.org/2000/svg" width="1200" height="426">
<path d="M0 0 C0.66 0 1.32 0 2 0 C2.30067383 0.53141602 2.60134766 1.06283203 2.91113281 1.61035156 C8.82729584 12.05195449 14.81344466 22.44188356 21.01367188 32.7175293 C25.79546552 40.64440037 30.52632086 48.60091797 35.25 56.5625 C35.86272263 57.59499374 35.86272263 57.59499374 36.48782349 58.64834595 C42.64337414 69.02133362 48.7928506 79.39792105 54.94042969 89.77563477 C58.91017246 96.47617798 62.88254814 103.175145 66.86054993 109.87078857 C68.87253157 113.25746251 70.88244187 116.64532565 72.88745117 120.03613281 C76.4348783 126.03077594 79.99492039 132.01501334 83.64102173 137.95031738 C85.17716017 140.45288437 86.70205079 142.9622098 88.22607422 145.47216797 C88.94499595 146.64861473 89.6696987 147.82154998 90.40039062 148.99072266 C91.40226787 150.59437682 92.383363 152.21095929 93.36328125 153.828125 C93.92313721 154.7346582 94.48299316 155.64119141 95.05981445 156.57519531 C96 159 96 159 95.35083008 161.12280273 C94.01035702 162.98560725 92.65232213 164.59089181 91.0234375 166.20703125 C90.43433594 166.79419922 89.84523438 167.38136719 89.23828125 167.98632812 C88.62339844 168.58896484 88.00851562 169.19160156 87.375 169.8125 C86.48748047 170.69905273 86.48748047 170.69905273 85.58203125 171.60351562 C82.56656753 174.58967138 79.49537755 177.46082577 76.2668457 180.21557617 C71.93767685 183.9884234 67.9452047 188.0287927 63.95703125 192.15625 C62.45712828 193.68823276 60.95645512 195.21946178 59.45507812 196.75 C57.11725333 199.13748164 54.78443138 201.52908702 52.46411133 203.93359375 C50.20452702 206.27156842 47.92655872 208.59020478 45.64453125 210.90625 C44.6053228 211.9966156 44.6053228 211.9966156 43.54512024 213.10900879 C42.89061386 213.76719604 42.23610748 214.4253833 41.56176758 215.10351562 C40.7086071 215.98118591 40.7086071 215.98118591 39.83821106 216.87658691 C38 218 38 218 35.58081055 217.78027344 C33.0859652 217.02599042 30.6086021 216.26414174 28.14526367 215.41210938 C27.1974855 215.08597153 26.24970734 214.75983368 25.27320862 214.42381287 C24.24847946 214.06739212 23.22375031 213.71097137 22.16796875 213.34375 C20.54440712 212.78307579 20.54440712 212.78307579 18.88804626 212.21107483 C15.31997386 210.97755357 11.7536805 209.73897931 8.1875 208.5 C5.6841068 207.63265962 3.18068852 206.76539164 0.67724609 205.89819336 C-16.77660777 199.84703297 -34.20040602 193.7122555 -51.60668945 187.52563477 C-68.22294171 181.62040906 -84.85878269 175.77189602 -101.5 169.9375 C-102.79620424 169.4830035 -104.09240786 169.02850523 -105.38861084 168.57400513 C-112.5920472 166.04830908 -119.79583574 163.52361907 -127 161 C-126.27201313 157.75456454 -125.39150962 155.93257846 -123.2265625 153.3828125 C-122.65478271 152.70081787 -122.08300293 152.01882324 -121.49389648 151.31616211 C-120.56879272 150.23153687 -120.56879272 150.23153687 -119.625 149.125 C-118.33594695 147.58832299 -117.04820152 146.0505482 -115.76171875 144.51171875 C-115.12153809 143.74778809 -114.48135742 142.98385742 -113.82177734 142.19677734 C-111.30025636 139.15621907 -108.86079658 136.05653182 -106.4375 132.9375 C-102.51910947 127.9074272 -98.53202349 122.93945032 -94.5 118 C-90.45017933 113.03767756 -86.44194806 108.0484598 -82.5 103 C-78.0179989 97.25989332 -73.44043443 91.60306754 -68.8359375 85.9609375 C-65.34469917 81.67548382 -61.90181112 77.35670547 -58.5 73 C-54.01736805 67.25908539 -49.43955976 61.60112223 -44.83374023 55.95874023 C-41.36106518 51.69689091 -37.94173694 47.39868899 -34.5625 43.0625 C-29.88638469 37.06606978 -25.06364184 31.19923134 -20.21362305 25.34301758 C-15.48307006 19.61841493 -10.86823282 13.81134384 -6.3046875 7.953125 C-5.16386719 6.49132812 -5.16386719 6.49132812 -4 5 C-3.28070313 4.04609375 -2.56140625 3.0921875 -1.8203125 2.109375 C-1.21960938 1.41328125 -0.61890625 0.7171875 0 0 Z " fill="#0033A1" transform="translate(229,104)"/>
<path d="M0 0 C8.42938818 6.8431425 13.85709197 15.28545983 16 26 C16 28.97 16 31.94 16 35 C6.1 35 -3.8 35 -14 35 C-15.32 31.7 -16.64 28.4 -18 25 C-22.98427771 20.29785122 -26.69574743 19.64581602 -33.5 19.375 C-39.8871082 19.59765815 -44.36308184 20.48773018 -49 25 C-51.8887899 28.34016332 -52.70099654 31.49822068 -52.44140625 35.953125 C-51.52540537 40.20077511 -49.50637292 42.49799492 -46 45 C-38.9569645 48.36265229 -31.45899169 50.53451842 -24.0390625 52.90625 C8.76202561 63.45183309 8.76202561 63.45183309 17.4375 80.1875 C22.79777914 91.33162258 22.26771554 103.54074264 18.2578125 115.09375 C13.11951523 126.96608904 2.68366678 134.25755223 -9 139 C-25.59882637 144.8326127 -45.4739039 143.62688037 -61.3125 136.25 C-71.60476773 130.71113487 -78.90011269 123.1784261 -83.1015625 112.09375 C-84.68886859 106.69394238 -85 102.81157294 -85 97 C-74.77 97 -64.54 97 -54 97 C-52.515 101.455 -52.515 101.455 -51 106 C-49.52095532 108.13422429 -49.52095532 108.13422429 -47.6875 109.4375 C-47.13449219 109.88996094 -46.58148438 110.34242188 -46.01171875 110.80859375 C-39.43527811 114.70337898 -32.41801104 114.72760395 -25 114 C-19.81543914 112.54652485 -15.35191065 110.32955126 -12 106 C-10.2207639 100.6622917 -10.16789064 95.83757484 -12.5 90.6875 C-18.51017857 84.22655803 -27.34666217 82.59930445 -35.56973267 80.31005859 C-53.10397084 75.3821372 -69.96066458 70.03222007 -79.9375 53.5 C-85.18791972 43.05347525 -85.09133016 32.06785605 -82.0390625 20.95703125 C-78.19158744 10.00763795 -70.44112813 1.09710478 -60 -4 C-40.46758866 -11.5535497 -17.83795407 -12.24855017 0 0 Z " fill="#0033A1" transform="translate(429,166)"/>
<path d="M0 0 C81.68421053 0 81.68421053 0 95.6875 12.375 C107.20415133 25.44795557 110.07175785 38.86378281 109 56 C107.35706725 68.09922507 101.82607325 79.50331306 92 87 C80.75967683 93.72024648 69.72079787 96.19315384 56.78125 96.09765625 C55.7907666 96.09614563 55.7907666 96.09614563 54.78027344 96.09460449 C52.35349753 96.08943936 49.9267467 96.0754791 47.5 96.0625 C42.055 96.041875 36.61 96.02125 31 96 C31 112.83 31 129.66 31 147 C20.77 147 10.54 147 0 147 C0 98.49 0 49.98 0 0 Z M31 26 C31 40.19 31 54.38 31 69 C36.115 69.0825 41.23 69.165 46.5 69.25 C48.09779297 69.28641602 49.69558594 69.32283203 51.34179688 69.36035156 C58.82437275 69.41877974 64.67983693 69.44350115 71 65 C73.07786038 63.07648216 73.07786038 63.07648216 74.4375 60.9375 C74.91058594 60.26589844 75.38367188 59.59429687 75.87109375 58.90234375 C78.95746551 53.70143355 78.51544712 47.84415397 78 42 C76.32987383 35.61534623 73.47276648 31.61202587 68 28 C63.41440342 26.12760947 59.5673771 25.76390597 54.6328125 25.8046875 C53.38902832 25.80968262 52.14524414 25.81467773 50.86376953 25.81982422 C49.29997559 25.83803223 47.73618164 25.85624023 46.125 25.875 C38.638125 25.936875 38.638125 25.936875 31 26 Z " fill="#0033A1" transform="translate(669,159)"/>
<path d="M0 0 C2.05207562 1.60811695 3.89305186 3.32499584 5.625 5.2734375 C5.955 1.9734375 6.285 -1.3265625 6.625 -4.7265625 C16.195 -4.7265625 25.765 -4.7265625 35.625 -4.7265625 C35.625 28.2734375 35.625 61.2734375 35.625 95.2734375 C26.055 95.2734375 16.485 95.2734375 6.625 95.2734375 C6.295 91.9734375 5.965 88.6734375 5.625 85.2734375 C4.7175 86.1603125 3.81 87.0471875 2.875 87.9609375 C-5.4523732 95.0174666 -15.60087104 97.68686338 -26.375 97.2734375 C-41.7204174 95.49891236 -53.48605808 88.61321931 -63.4140625 76.859375 C-72.24287945 65.02500334 -74.57861608 51.76389927 -73.375 37.2734375 C-71.00540619 23.48411449 -64.20619681 12.12121451 -53.375 3.2734375 C-47.13785842 -0.84559964 -40.5723625 -3.75427911 -33.375 -5.7265625 C-32.570625 -5.9534375 -31.76625 -6.1803125 -30.9375 -6.4140625 C-20.04555461 -7.74234852 -9.1922996 -6.31970598 0 0 Z M-42 32.2109375 C-46.01769473 38.23747959 -46.09005305 44.23291517 -45.375 51.2734375 C-43.24571286 59.25152603 -36.95924144 64.13667818 -30.125 68.2109375 C-22.22196936 70.45012951 -14.63580352 70.26015502 -7.2734375 66.47265625 C-2.21209678 63.27547189 2.39661298 58.17679888 4.21875 52.38671875 C5.90215102 43.62979612 4.34455151 36.47638075 -0.4375 29.0859375 C-5.68111148 23.40665503 -12.26278294 20.97159766 -19.875 20.6484375 C-29.51198561 21.07926744 -35.8851098 24.92010687 -42 32.2109375 Z " fill="#0033A1" transform="translate(530.375,210.7265625)"/>
<path d="M0 0 C3.20308717 3.76791728 5.65074274 7.73372592 8 12.0625 C11.34644334 18.11253561 14.80095949 24.08164368 18.375 30 C23.70433293 38.83206586 28.98662321 47.69103459 34.25 56.5625 C34.65820984 57.25037598 35.06641968 57.93825195 35.48699951 58.64697266 C41.64282629 69.02041723 47.79257851 79.39746174 53.94042969 89.77563477 C57.91017246 96.47617798 61.88254814 103.175145 65.86054993 109.87078857 C67.87253157 113.25746251 69.88244187 116.64532565 71.88745117 120.03613281 C75.4348783 126.03077594 78.99492039 132.01501334 82.64102173 137.95031738 C84.17716017 140.45288437 85.70205079 142.9622098 87.22607422 145.47216797 C87.94499595 146.64861473 88.6696987 147.82154998 89.40039062 148.99072266 C90.40226787 150.59437682 91.383363 152.21095929 92.36328125 153.828125 C92.92313721 154.7346582 93.48299316 155.64119141 94.05981445 156.57519531 C95 159 95 159 94.35083008 161.12280273 C93.01035702 162.98560725 91.65232213 164.59089181 90.0234375 166.20703125 C89.43433594 166.79419922 88.84523438 167.38136719 88.23828125 167.98632812 C87.62339844 168.58896484 87.00851562 169.19160156 86.375 169.8125 C85.78332031 170.40353516 85.19164062 170.99457031 84.58203125 171.60351562 C81.56884866 174.58741242 78.49966283 177.46012275 75.27783203 180.21777344 C70.92762546 184.00929045 66.84538296 188.02709802 62.78125 192.12109375 C62.03790405 192.86585464 61.29455811 193.61061554 60.52868652 194.37794495 C58.18340699 196.72876745 55.84165164 199.08306431 53.5 201.4375 C51.89867039 203.04385199 50.29711002 204.64997397 48.6953125 206.25585938 C44.79420527 210.16791985 40.8959758 214.08282952 37 218 C35.49379731 215.23947641 34.6443644 212.84938586 34.14102173 209.75001526 C33.93100777 208.48730301 33.93100777 208.48730301 33.7167511 207.19908142 C33.57126328 206.2833284 33.42577545 205.36757538 33.27587891 204.42407227 C33.03636253 202.96686768 33.03636253 202.96686768 32.79200745 201.48022461 C32.26415981 198.25990528 31.74546351 195.0381782 31.2265625 191.81640625 C30.85850729 189.56304002 30.48979374 187.30978123 30.12045288 185.05662537 C29.14648874 179.10615267 28.17988 173.15451019 27.215271 167.20251465 C25.68042714 157.73761776 24.13579649 148.27431968 22.58872604 138.81141472 C22.05431524 135.53492142 21.52379651 132.25781669 20.99380493 128.98060608 C19.27045574 118.3751885 17.43527627 107.80502347 15.39116859 97.25655174 C13.98789068 90.00590526 12.73827812 82.74061937 11.5625 75.44921875 C11.2461638 73.51075839 10.92982738 71.57229807 10.61347961 69.63383961 C10.18156031 66.98273327 9.75223349 64.33120973 9.32287598 61.6796875 C8.57506942 57.06562207 7.8225103 52.45232852 7.07080078 47.83889771 C6.651657 45.26455264 6.2333502 42.69007115 5.81591797 40.115448 C4.83014933 34.04418341 3.83112911 27.9758064 2.796875 21.91259766 C2.60939697 20.80922562 2.42191895 19.70585358 2.22875977 18.56904602 C1.87865904 16.51568827 1.52520589 14.46289808 1.16772461 12.41081238 C1.01311768 11.50285416 0.85851074 10.59489594 0.69921875 9.65942383 C0.56346436 8.87545731 0.42770996 8.09149078 0.2878418 7.2837677 C-0.02093085 4.83393242 -0.04880294 2.46664444 0 0 Z " fill="#CB27B0" transform="translate(230,104)"/>
<path d="M0 0 C0.64324219 0.46277344 1.28648437 0.92554688 1.94921875 1.40234375 C11.03613526 8.5181287 17.40803991 20.62885652 19 32 C20.15235413 49.1125605 18.09023662 63.62314715 7.10546875 77.37109375 C-0.50074525 85.73934032 -12.13668131 92.23298204 -23.51367188 93.2175293 C-41.35334837 93.97756471 -55.70523742 92.11896711 -69.4765625 79.78125 C-79.63361226 69.31846965 -83.85753997 56.68600408 -84.375 42.375 C-84.09640957 27.31472926 -79.51223755 14.6701057 -69.0625 3.625 C-50.66194721 -13.61452365 -20.22232923 -14.96977619 0 0 Z M-50.3046875 25.9140625 C-54.08135316 30.56092762 -56.1193001 36.09027029 -56.5 42.0625 C-55.6505212 48.75214552 -52.95280052 55.30787319 -48 60 C-40.99923325 64.80470874 -34.39947126 66.22975684 -26 65 C-19.76677414 63.22206645 -15.50778968 59.36549761 -12 54 C-8.89339341 48.15020117 -7.97880211 42.43370085 -9.46875 35.96484375 C-11.6477228 29.23337422 -15.63440022 24.03342188 -21.875 20.625 C-32.24331787 16.08886093 -42.14770211 18.08731944 -50.3046875 25.9140625 Z " fill="#0033A1" transform="translate(859,214)"/>
<path d="M0 0 C7.66598217 5.47183179 11.59724995 13.69680832 13.81712341 22.66654968 C14.34447394 25.96611068 14.369462 29.1178953 14.36352539 32.46020508 C14.36367142 33.15343872 14.36381744 33.84667236 14.3639679 34.56091309 C14.36327451 36.83881829 14.35550915 39.11664043 14.34765625 41.39453125 C14.34579003 42.97922216 14.34436709 44.56391365 14.34336853 46.14860535 C14.33955943 50.3094951 14.32974292 54.47034968 14.31866455 58.63122559 C14.30841582 62.88109868 14.3038635 67.13097748 14.29882812 71.38085938 C14.28811916 79.71225749 14.27053542 88.04362031 14.25 96.375 C4.68 96.375 -4.89 96.375 -14.75 96.375 C-14.77578125 92.1365625 -14.8015625 87.898125 -14.828125 83.53125 C-14.85983895 80.13458954 -14.89549121 76.73802078 -14.93379211 73.34143066 C-14.97304325 69.76536185 -15.00548377 66.18953853 -15.02099609 62.61328125 C-15.0362298 59.16351111 -15.07079137 55.71440947 -15.11830902 52.26493835 C-15.14019091 50.31983638 -15.14246796 48.37454543 -15.14434814 46.42932129 C-15.2614045 39.30191662 -15.8054074 34.38938563 -19.75 28.375 C-25.02958095 24.17288455 -29.0404715 22.93503092 -35.75 23.375 C-40.74274435 24.49291999 -44.68106723 26.28107341 -47.79800415 30.54043579 C-51.59953235 37.866253 -51.08205719 47.14491597 -51.1640625 55.1640625 C-51.18342865 56.34849945 -51.2027948 57.5329364 -51.2227478 58.75326538 C-51.28208713 62.50210578 -51.32874552 66.25097765 -51.375 70 C-51.41322181 72.55600229 -51.45227593 75.11199228 -51.4921875 77.66796875 C-51.58930277 83.90357847 -51.66923474 90.13907178 -51.75 96.375 C-60.99 96.375 -70.23 96.375 -79.75 96.375 C-79.75 63.375 -79.75 30.375 -79.75 -3.625 C-70.18 -3.625 -60.61 -3.625 -50.75 -3.625 C-50.42 0.665 -50.09 4.955 -49.75 9.375 C-48.76 8.158125 -47.77 6.94125 -46.75 5.6875 C-34.62865761 -8.12007752 -15.41778292 -9.25066975 0 0 Z " fill="#0033A1" transform="translate(1011.75,209.625)"/>
<path d="M0 0 C9.57 0 19.14 0 29 0 C29 12.54 29 25.08 29 38 C35.27 38 41.54 38 48 38 C48 46.25 48 54.5 48 63 C41.73 63 35.46 63 29 63 C29 87.75 29 112.5 29 138 C19.43 138 9.86 138 0 138 C0 113.25 0 88.5 0 63 C-5.94 63 -11.88 63 -18 63 C-18 54.75 -18 46.5 -18 38 C-12.06 38 -6.12 38 0 38 C0 25.46 0 12.92 0 0 Z " fill="#0033A1" transform="translate(1050,168)"/>
<path d="M0 0 C51.15 0 102.3 0 155 0 C164 54 164 54 164 58 C157.26637931 56.03300944 150.61609709 53.89409955 143.9921875 51.5859375 C143.050336 51.25946732 142.1084845 50.93299713 141.13809204 50.59663391 C138.0495728 49.52510586 134.9622329 48.45022811 131.875 47.375 C129.67903733 46.61173251 127.48307378 45.84846758 125.28710938 45.08520508 C108.73545511 39.32625785 92.2111664 33.49151733 75.69677734 27.62670898 C58.97833 21.69080927 42.2416637 15.80750962 25.5 9.9375 C24.85622406 9.71176174 24.21244812 9.48602348 23.54916382 9.25344467 C15.69984988 6.50113383 7.85015544 3.74990982 0 1 C0 0.67 0 0.34 0 0 Z " fill="#0071CE" transform="translate(102,264)"/>
<path d="M0 0 C9.24 0 18.48 0 28 0 C28 48.51 28 97.02 28 147 C18.76 147 9.52 147 0 147 C0 98.49 0 49.98 0 0 Z " fill="#0033A1" transform="translate(626,159)"/>
<path d="M0 0 C9.57 0 19.14 0 29 0 C29 33 29 66 29 100 C19.43 100 9.86 100 0 100 C0 67 0 34 0 0 Z " fill="#0033A1" transform="translate(581,206)"/>
<path d="M0 0 C9.24 0 18.48 0 28 0 C28 33 28 66 28 100 C18.76 100 9.52 100 0 100 C0 67 0 34 0 0 Z " fill="#0033A1" transform="translate(888,206)"/>
<path d="M0 0 C22.44 0 44.88 0 68 0 C64.41065735 4.18756642 60.99893754 8.1387639 57.125 12 C55.95324219 13.175625 55.95324219 13.175625 54.7578125 14.375 C52.65747214 16.37419083 50.5393341 18.27069073 48.34130859 20.15649414 C43.97154617 23.97035677 39.86612064 28.00620796 35.78125 32.12109375 C34.66623108 33.23823509 34.66623108 33.23823509 33.52868652 34.37794495 C31.18340699 36.72876745 28.84165164 39.08306431 26.5 41.4375 C24.89867039 43.04385199 23.29711002 44.64997397 21.6953125 46.25585938 C17.79420527 50.16791985 13.8959758 54.08282952 10 58 C8.38786846 55.0804292 7.58606181 52.51846728 7.03857422 49.23486328 C6.87855927 48.29353546 6.71854431 47.35220764 6.55368042 46.38235474 C6.38901276 45.3718808 6.22434509 44.36140686 6.0546875 43.3203125 C5.87994904 42.27479218 5.70521057 41.22927185 5.525177 40.15206909 C5.15736926 37.94190498 4.79277222 35.73120451 4.43115234 33.52001953 C3.87801064 30.14337839 3.31284011 26.7689125 2.74609375 23.39453125 C2.38990349 21.2449111 2.03441162 19.09517508 1.6796875 16.9453125 C1.51097137 15.93888702 1.34225525 14.93246155 1.16842651 13.89553833 C1.01471588 12.94790619 0.86100525 12.00027405 0.70263672 11.02392578 C0.56654999 10.19659943 0.43046326 9.36927307 0.29025269 8.51687622 C-0.03517662 5.69497203 0 2.84060688 0 0 Z " fill="#E07ED1" transform="translate(257,264)"/>
<path d="M0 0 C4.21191871 3.81078359 8.15099199 7.43529406 8.86328125 13.35546875 C9.05976081 19.19815036 8.23018729 23.6636757 4.625 28.375 C0.43260001 32.52708845 -3.6647756 33.71306829 -9.5 33.9375 C-15.97225113 33.64404781 -19.20010862 31.67071868 -23.625 27 C-27.07040111 21.83189833 -27.78872827 17.60224794 -26.9140625 11.55078125 C-25.54366848 6.01955323 -21.92918478 2.52789715 -17.375 -0.625 C-11.6073764 -2.5475412 -5.49525209 -2.64586212 0 0 Z " fill="#0033A1" transform="translate(911.375,159.625)"/>
<path d="M0 0 C4.90635475 2.56899261 8.14116054 6.04066913 9.8828125 11.265625 C10.37270103 16.83107991 10.65095791 21.67243452 8.1953125 26.765625 C1.48020702 34.0251985 1.48020702 34.0251985 -3.69140625 34.50390625 C-10.45726844 34.66520033 -14.79386258 34.61119637 -20.1171875 30.265625 C-23.69042378 26.30954197 -25.43268115 22.61742927 -25.6796875 17.265625 C-25.32666472 11.37286012 -23.74575073 6.80760026 -19.45703125 2.66015625 C-13.66445127 -1.58614981 -6.79392772 -2.35656533 0 0 Z " fill="#0033A1" transform="translate(603.1171875,158.734375)"/>
<path d="M0 0 C3.09223479 3.16765515 4.22407037 5.72002797 4.4375 10.0625 C3.99808491 14.01723584 3.44564766 15.92029554 1 19 C-3.24740799 21.83160532 -7.01346043 21.64522317 -12 21 C-15.15337491 19.22622661 -16.5090514 17.80337044 -18.375 14.75 C-19.23956777 10.9459018 -19.17684094 7.73420682 -18 4 C-12.81381649 -2.58785473 -7.5329228 -2.99934724 0 0 Z M-9 1 C-9.66 1.66 -10.32 2.32 -11 3 C-8.36 3.66 -5.72 4.32 -3 5 C-3 8 -3 11 -3 14 C-2.34 14.66 -1.68 15.32 -1 16 C1.34168764 12.48746854 1.49623677 11.13530644 1 7 C-1.04121833 3.46712212 -2.19154247 2.24253726 -6.125 1.0625 C-7.07375 1.041875 -8.0225 1.02125 -9 1 Z M-13 3 C-15.26839451 6.57708364 -16.05946559 8.41525499 -15.625 12.6875 C-14.23558549 16.25885096 -14.23558549 16.25885096 -10.6875 18.0625 C-6.76186082 19.06054386 -5.44056666 18.98093232 -2 17 C-2.598125 16.731875 -3.19625 16.46375 -3.8125 16.1875 C-5.97224808 15.01506533 -7.35790256 13.80630718 -9 12 C-9 13.32 -9 14.64 -9 16 C-9.99 16 -10.98 16 -12 16 C-12 11.71 -12 7.42 -12 3 C-12.33 3 -12.66 3 -13 3 Z M-9 7 C-9 7.66 -9 8.32 -9 9 C-8.01 9 -7.02 9 -6 9 C-6 8.34 -6 7.68 -6 7 C-6.99 7 -7.98 7 -9 7 Z " fill="#0033A1" transform="translate(1107,286)"/>
</svg>
